<svg id="Layer_1" data-name="Layer 1" xmlns="http://www.w3.org/2000/svg" viewBox="0 0 294 142"><defs><style>.cls-1{fill:transparent;}.cls-2{fill:#9b315b;}.cls-3{fill:#e9931c;opacity:0.2;}</style></defs><title>ICGC_DA_setop</title><rect class="cls-1" width="294" height="142"/><path class="cls-2" d="M123.42,15.5A37.42,37.42,0,1,1,86,52.92,37.46,37.46,0,0,1,123.42,15.5m0-4a41.42,41.42,0,1,0,41.42,41.42A41.42,41.42,0,0,0,123.42,11.5Z"/><path class="cls-2" d="M168.61,15.5a37.42,37.42,0,1,1-37.42,37.42A37.46,37.46,0,0,1,168.61,15.5m0-4A41.42,41.42,0,1,0,210,52.92,41.42,41.42,0,0,0,168.61,11.5Z"/><path class="cls-2" d="M146,53.16a37.42,37.42,0,1,1-37.42,37.42A37.46,37.46,0,0,1,146,53.16m0-4a41.42,41.42,0,1,0,41.42,41.42A41.42,41.42,0,0,0,146,49.16Z"/><path class="cls-3" d="M127.18,53.68c0-.25,0-.5,0-.75a41.33,41.33,0,0,1,15.33-32.16,37.41,37.41,0,1,0-37.59,64.67A41.43,41.43,0,0,1,127.18,53.68Z"/></svg>