<?xml version="1.0" encoding="utf-8"?>
<!-- Generator: Adobe Illustrator 20.1.0, SVG Export Plug-In . SVG Version: 6.00 Build 0)  -->
<svg version="1.1" id="Layer_1" xmlns="http://www.w3.org/2000/svg" xmlns:xlink="http://www.w3.org/1999/xlink" x="0px" y="0px"
	 viewBox="0 0 128 120.5" style="enable-background:new 0 0 128 120.5;" xml:space="preserve">
<style type="text/css">
	.st0{fill:#9B315B;}
</style>
<title>ICGC_DA_setop</title>
<circle id="top-left" class="st0" cx="41.4" cy="41.4" r="41.4"/>
<g>
	<path id="top-right" class="st0" d="M86.6,0C63.7,0,45.2,18.5,45.2,41.4c0,22.9,18.5,41.4,41.4,41.4c22.9,0,41.4-18.5,41.4-41.4
		c0,0,0,0,0,0C128,18.6,109.5,0,86.6,0z"/>
	<path id="bottom" class="st0" d="M64,37.7c-22.9,0-41.4,18.5-41.4,41.4s18.5,41.4,41.4,41.4s41.4-18.5,41.4-41.4S86.9,37.7,64,37.7
		L64,37.7z"/>
</g>
<title>ICGC_DA_setop</title>
<path id="top-left-diff" class="st0" d="M45.2,42.2c0-0.3,0-0.5,0-0.8c0-14.5,7.5-27.3,18.8-34.7C57.5,2.5,49.8,0,41.4,0
	C18.5,0,0,18.5,0,41.4c0,16.1,9.2,30,22.6,36.9C22.9,62.5,32,48.9,45.2,42.2z"/>
</svg>
