<svg id="Layer_1" data-name="Layer 1" xmlns="http://www.w3.org/2000/svg" viewBox="0 0 294 142"><defs><style>.cls-1{fill:transparent;}.cls-2{fill:#999;}.cls-3{fill:#e9931c;}.cls-4{fill:#ccc;}</style></defs><title>ICGC_DA_survival</title><rect class="cls-1" width="294" height="142"/><polygon class="cls-2" points="261 118 222 118 222 106 181 106 181 91 170 91 170 85 137 85 137 66 96 66 96 46 70 46 70 16 22 16 22 14 72 14 72 44 98 44 98 64 139 64 139 83 172 83 172 89 183 89 183 104 224 104 224 116 261 116 261 118"/><polygon class="cls-3" points="208 127 206 127 206 115 140 115 140 103 111 103 111 81 88 81 88 60 78 60 78 36 59 36 59 17 22 17 22 15 61 15 61 34 80 34 80 58 90 58 90 79 113 79 113 101 142 101 142 113 208 113 208 127"/></svg>