<svg data-name="Layer 1" id="Layer_1" viewBox="0 0 294 142" xmlns="http://www.w3.org/2000/svg">
  <defs>
    <style>.cls-1{fill:transparent;}.cls-2{fill:#9b315b;}.cls-3{fill:#ececec;}</style>
  </defs>
  <title>ICGC_DA_enrichment</title>
  <rect class="cls-1" height="142" width="294"/>
  <ellipse class="cls-2" cx="59.48" cy="19.18" rx="11.93" ry="4.64"/>
  <ellipse class="cls-2" cx="64.78" cy="65.56" rx="11.93" ry="4.64"/>
  <ellipse class="cls-2" cx="94.73" cy="113.8" rx="11.93" ry="4.64"/>
  <ellipse class="cls-2" cx="74.33" cy="100.81" rx="11.93" ry="4.64"/>
  <ellipse class="cls-2" cx="155.96" cy="95.24" rx="11.93" ry="4.64"/>
  <ellipse class="cls-2" cx="189.09" cy="67.41" rx="11.93" ry="4.64"/>
  <rect class="cls-3" height="72.17" transform="translate(15.97 117.84) rotate(-72.03)" width="1" x="88.54" y="11.85"/>
  <rect class="cls-2" height="78.27" transform="translate(10.95 96.85) rotate(-58.57)" width="1" x="91.32" y="-0.48"/>
  <rect class="cls-3" height="48.56" transform="translate(-0.04 86.5) rotate(-43.45)" width="1" x="108.02" y="19.02"/>
  <rect class="cls-2" height="1" transform="translate(-5.53 9.43) rotate(-5.54)" width="57.78" x="65.71" y="61.35"/>
  <rect class="cls-3" height="86.07" transform="translate(15.59 124.75) rotate(-82.57)" width="1" x="78.33" y="10.47"/>
  <ellipse class="cls-2" cx="53.65" cy="35.87" rx="11.93" ry="4.64"/>
  <ellipse class="cls-2" cx="92.61" cy="24.74" rx="11.93" ry="4.64"/>
  <ellipse class="cls-2" cx="36.96" cy="47.01" rx="11.93" ry="4.64"/>
  <rect class="cls-2" height="65.36" transform="translate(75.76 210.47) rotate(-83.48)" width="1" x="155.33" y="30.1"/>
  <rect class="cls-3" height="64.8" transform="translate(25.69 183.38) rotate(-66.37)" width="1" x="152.54" y="39.65"/>
  <rect class="cls-3" height="91.79" transform="translate(59.07 216.05) rotate(-75.96)" width="1" x="167.38" y="24.3"/>
  <rect class="cls-2" height="48.56" transform="translate(-14.87 116.06) rotate(-43.45)" width="1" x="137.7" y="52.41"/>
  <rect class="cls-2" height="45.82" transform="translate(-22.1 88.18) rotate(-21.37)" width="1" x="222.12" y="79.75"/>
  <rect class="cls-2" height="69.02" transform="translate(-16.47 142.04) rotate(-36.25)" width="1" x="208.2" y="61.66"/>
  <rect class="cls-2" height="60.57" transform="translate(-6.56 194.97) rotate(-49.97)" width="1" x="205.42" y="74.23"/>
  <rect class="cls-3" height="14.84" width="33.61" x="212.19" y="116.58"/>
  <ellipse class="cls-2" cx="215.06" cy="80.4" rx="11.93" ry="4.64"/>
  <ellipse class="cls-2" cx="181.93" cy="84.11" rx="11.93" ry="4.64"/>
  <rect class="cls-2" height="1" transform="translate(-27.86 82.84) rotate(-40.21)" width="63.19" x="67.65" y="78.97"/>
  <rect class="cls-2" height="1" transform="translate(-18.85 142.31) rotate(-61.81)" width="58.93" x="79.98" y="86.39"/>
  <rect class="cls-3" height="14.84" width="33.61" x="106.66" y="51.64"/>
</svg>