<svg id="Layer_1" data-name="Layer 1" xmlns="http://www.w3.org/2000/svg" viewBox="0 0 294 142"><defs><style>.cls-1{fill:transparent;}.cls-2{fill:#9b315b;}.cls-3{fill:#e9931c;}.cls-4{fill:#ccc;}.cls-5{fill:#166aa2;}</style></defs><title>ICGC_DA_onco</title><rect class="cls-1" width="294" height="142"/><rect class="cls-2" x="9" y="13" width="5" height="19.98"/><rect class="cls-2" x="17" y="13" width="5" height="19.98"/><rect class="cls-2" x="25" y="13" width="5" height="19.98"/><rect class="cls-2" x="33" y="13" width="5" height="19.98"/><rect class="cls-2" x="41" y="13" width="5" height="19.98"/><rect class="cls-2" x="49" y="13" width="5" height="19.98"/><rect class="cls-3" x="57" y="23" width="5" height="9.98"/><rect class="cls-2" x="57" y="13" width="5" height="9.98"/><rect class="cls-4" x="65" y="13" width="5" height="19.98"/><rect class="cls-4" x="73" y="13" width="5" height="19.98"/><rect class="cls-4" x="81" y="13" width="5" height="19.98"/><rect class="cls-4" x="89" y="13" width="5" height="19.98"/><rect class="cls-4" x="97" y="13" width="5" height="19.98"/><rect class="cls-4" x="105" y="13" width="5" height="19.98"/><rect class="cls-4" x="113" y="13" width="5" height="19.98"/><rect class="cls-4" x="121" y="13" width="5" height="19.98"/><rect class="cls-4" x="129" y="13" width="5" height="19.98"/><rect class="cls-4" x="137" y="13" width="5" height="19.98"/><rect class="cls-4" x="145" y="13" width="5" height="19.98"/><rect class="cls-4" x="153" y="13" width="5" height="19.98"/><rect class="cls-4" x="161" y="13" width="5" height="19.98"/><rect class="cls-4" x="169" y="13" width="5" height="19.98"/><rect class="cls-5" x="177" y="13" width="5" height="19.98"/><rect class="cls-5" x="185" y="13" width="5" height="19.98"/><rect class="cls-4" x="193" y="13" width="5" height="19.98"/><rect class="cls-4" x="201" y="13" width="5" height="19.98"/><rect class="cls-4" x="209" y="13" width="5" height="19.98"/><rect class="cls-4" x="217" y="13" width="5" height="19.98"/><rect class="cls-4" x="225" y="13" width="5" height="19.98"/><rect class="cls-4" x="233" y="13" width="5" height="19.98"/><rect class="cls-4" x="241" y="13" width="5" height="19.98"/><rect class="cls-4" x="249" y="13" width="5" height="19.98"/><rect class="cls-5" x="257" y="13" width="5" height="19.98"/><rect class="cls-4" x="265" y="13" width="5" height="19.98"/><rect class="cls-4" x="273" y="13" width="5" height="19.98"/><rect class="cls-4" x="281" y="13" width="5" height="19.98"/><rect class="cls-2" x="9" y="36.51" width="5" height="19.98"/><rect class="cls-2" x="17" y="36.51" width="5" height="19.98"/><rect class="cls-2" x="25" y="36.51" width="5" height="19.98"/><rect class="cls-2" x="33" y="36.51" width="5" height="19.98"/><rect class="cls-4" x="41" y="36.51" width="5" height="19.98"/><rect class="cls-4" x="49" y="36.51" width="5" height="19.98"/><rect class="cls-4" x="57" y="36.51" width="5" height="19.98"/><rect class="cls-4" x="65" y="36.51" width="5" height="19.98"/><rect class="cls-4" x="73" y="36.51" width="5" height="19.98"/><rect class="cls-4" x="81" y="36.51" width="5" height="19.98"/><rect class="cls-4" x="89" y="36.51" width="5" height="19.98"/><rect class="cls-4" x="97" y="36.51" width="5" height="19.98"/><rect class="cls-4" x="105" y="36.51" width="5" height="19.98"/><rect class="cls-4" x="113" y="36.51" width="5" height="19.98"/><rect class="cls-4" x="121" y="36.51" width="5" height="19.98"/><rect class="cls-4" x="129" y="36.51" width="5" height="19.98"/><rect class="cls-4" x="137" y="36.51" width="5" height="19.98"/><rect class="cls-4" x="145" y="36.51" width="5" height="19.98"/><rect class="cls-4" x="153" y="36.51" width="5" height="19.98"/><rect class="cls-4" x="161" y="36.51" width="5" height="19.98"/><rect class="cls-4" x="169" y="36.51" width="5" height="19.98"/><rect class="cls-4" x="177" y="36.51" width="5" height="19.98"/><rect class="cls-4" x="185" y="36.51" width="5" height="19.98"/><rect class="cls-4" x="193" y="36.51" width="5" height="19.98"/><rect class="cls-4" x="201" y="36.51" width="5" height="19.98"/><rect class="cls-4" x="209" y="36.51" width="5" height="19.98"/><rect class="cls-4" x="217" y="36.51" width="5" height="19.98"/><rect class="cls-4" x="225" y="36.51" width="5" height="19.98"/><rect class="cls-4" x="233" y="36.51" width="5" height="19.98"/><rect class="cls-4" x="241" y="36.51" width="5" height="19.98"/><rect class="cls-4" x="249" y="36.51" width="5" height="19.98"/><rect class="cls-4" x="257" y="36.51" width="5" height="19.98"/><rect class="cls-4" x="265" y="36.51" width="5" height="19.98"/><rect class="cls-4" x="273" y="36.51" width="5" height="19.98"/><rect class="cls-4" x="281" y="36.51" width="5" height="19.98"/><rect class="cls-4" x="9" y="60.01" width="5" height="19.98"/><rect class="cls-4" x="17" y="60.01" width="5" height="19.98"/><rect class="cls-4" x="25" y="60.01" width="5" height="19.98"/><rect class="cls-4" x="33" y="60.01" width="5" height="19.98"/><rect class="cls-4" x="41" y="60.01" width="5" height="19.98"/><rect class="cls-4" x="49" y="60.01" width="5" height="19.98"/><rect class="cls-4" x="57" y="60.01" width="5" height="19.98"/><rect class="cls-5" x="65" y="60.01" width="5" height="19.98"/><rect class="cls-5" x="73" y="60.01" width="5" height="19.98"/><rect class="cls-5" x="81" y="60.01" width="5" height="19.98"/><rect class="cls-4" x="89" y="60.01" width="5" height="19.98"/><rect class="cls-4" x="97" y="60.01" width="5" height="19.98"/><rect class="cls-4" x="105" y="60.01" width="5" height="19.98"/><rect class="cls-4" x="113" y="60.01" width="5" height="19.98"/><rect class="cls-4" x="121" y="60.01" width="5" height="19.98"/><rect class="cls-4" x="129" y="60.01" width="5" height="19.98"/><rect class="cls-4" x="137" y="60.01" width="5" height="19.98"/><rect class="cls-4" x="145" y="60.01" width="5" height="19.98"/><rect class="cls-4" x="153" y="60.01" width="5" height="19.98"/><rect class="cls-4" x="161" y="60.01" width="5" height="19.98"/><rect class="cls-4" x="169" y="60.01" width="5" height="19.98"/><rect class="cls-4" x="177" y="60.01" width="5" height="19.98"/><rect class="cls-4" x="185" y="60.01" width="5" height="19.98"/><rect class="cls-4" x="193" y="60.01" width="5" height="19.98"/><rect class="cls-4" x="201" y="60.01" width="5" height="19.98"/><rect class="cls-4" x="209" y="60.01" width="5" height="19.98"/><rect class="cls-4" x="217" y="60.01" width="5" height="19.98"/><rect class="cls-4" x="225" y="60.01" width="5" height="19.98"/><rect class="cls-4" x="233" y="60.01" width="5" height="19.98"/><rect class="cls-4" x="241" y="60.01" width="5" height="19.98"/><rect class="cls-4" x="249" y="60.01" width="5" height="19.98"/><rect class="cls-4" x="257" y="60.01" width="5" height="19.98"/><rect class="cls-4" x="265" y="60.01" width="5" height="19.98"/><rect class="cls-4" x="273" y="60.01" width="5" height="19.98"/><rect class="cls-4" x="281" y="60.01" width="5" height="19.98"/><rect class="cls-4" x="9" y="83.52" width="5" height="19.98"/><rect class="cls-4" x="17" y="83.52" width="5" height="19.98"/><rect class="cls-4" x="25" y="83.52" width="5" height="19.98"/><rect class="cls-4" x="33" y="83.52" width="5" height="19.98"/><rect class="cls-4" x="41" y="83.52" width="5" height="19.98"/><rect class="cls-4" x="49" y="83.52" width="5" height="19.98"/><rect class="cls-4" x="57" y="83.52" width="5" height="19.98"/><rect class="cls-4" x="65" y="83.52" width="5" height="19.98"/><rect class="cls-4" x="73" y="83.52" width="5" height="19.98"/><rect class="cls-4" x="81" y="83.52" width="5" height="19.98"/><rect class="cls-4" x="89" y="83.52" width="5" height="19.98"/><rect class="cls-4" x="97" y="83.52" width="5" height="19.98"/><rect class="cls-4" x="105" y="83.52" width="5" height="19.98"/><rect class="cls-4" x="113" y="83.52" width="5" height="19.98"/><rect class="cls-2" x="121" y="83.52" width="5" height="19.98"/><rect class="cls-2" x="129" y="83.52" width="5" height="19.98"/><rect class="cls-2" x="137" y="83.52" width="5" height="19.98"/><rect class="cls-2" x="145" y="83.52" width="5" height="19.98"/><rect class="cls-2" x="153" y="83.52" width="5" height="19.98"/><rect class="cls-2" x="161" y="83.52" width="5" height="19.98"/><rect class="cls-2" x="169" y="83.52" width="5" height="19.98"/><rect class="cls-2" x="177" y="83.52" width="5" height="19.98"/><rect class="cls-2" x="185" y="83.52" width="5" height="19.98"/><rect class="cls-2" x="193" y="83.52" width="5" height="19.98"/><rect class="cls-2" x="201" y="83.52" width="5" height="19.98"/><rect class="cls-4" x="209" y="83.52" width="5" height="19.98"/><rect class="cls-4" x="217" y="83.52" width="5" height="19.98"/><rect class="cls-4" x="225" y="83.52" width="5" height="19.98"/><rect class="cls-4" x="233" y="83.52" width="5" height="19.98"/><rect class="cls-4" x="241" y="83.52" width="5" height="19.98"/><rect class="cls-4" x="249" y="83.52" width="5" height="19.98"/><rect class="cls-4" x="257" y="83.52" width="5" height="19.98"/><rect class="cls-4" x="265" y="83.52" width="5" height="19.98"/><rect class="cls-4" x="273" y="83.52" width="5" height="19.98"/><rect class="cls-4" x="281" y="83.52" width="5" height="19.98"/><rect class="cls-2" x="9" y="107.02" width="5" height="19.98"/><rect class="cls-2" x="17" y="107.02" width="5" height="19.98"/><rect class="cls-2" x="25" y="107.02" width="5" height="19.98"/><rect class="cls-2" x="33" y="107.02" width="5" height="19.98"/><rect class="cls-2" x="41" y="107.02" width="5" height="19.98"/><rect class="cls-2" x="49" y="107.02" width="5" height="19.98"/><rect class="cls-2" x="57" y="107.02" width="5" height="19.98"/><rect class="cls-4" x="65" y="107.02" width="5" height="19.98"/><rect class="cls-4" x="73" y="107.02" width="5" height="19.98"/><rect class="cls-4" x="81" y="107.02" width="5" height="19.98"/><rect class="cls-4" x="89" y="107.02" width="5" height="19.98"/><rect class="cls-4" x="97" y="107.02" width="5" height="19.98"/><rect class="cls-4" x="105" y="107.02" width="5" height="19.98"/><rect class="cls-2" x="113" y="107.02" width="5" height="19.98"/><rect class="cls-4" x="121" y="107.02" width="5" height="19.98"/><rect class="cls-4" x="129" y="107.02" width="5" height="19.98"/><rect class="cls-4" x="137" y="107.02" width="5" height="19.98"/><rect class="cls-4" x="145" y="107.02" width="5" height="19.98"/><rect class="cls-4" x="153" y="107.02" width="5" height="19.98"/><rect class="cls-4" x="161" y="107.02" width="5" height="19.98"/><rect class="cls-4" x="169" y="107.02" width="5" height="19.98"/><rect class="cls-4" x="177" y="107.02" width="5" height="19.98"/><rect class="cls-4" x="185" y="107.02" width="5" height="19.98"/><rect class="cls-4" x="193" y="107.02" width="5" height="19.98"/><rect class="cls-4" x="201" y="107.02" width="5" height="19.98"/><rect class="cls-4" x="209" y="107.02" width="5" height="19.98"/><rect class="cls-4" x="217" y="107.02" width="5" height="19.98"/><rect class="cls-4" x="225" y="107.02" width="5" height="19.98"/><rect class="cls-4" x="233" y="107.02" width="5" height="19.98"/><rect class="cls-4" x="241" y="107.02" width="5" height="19.98"/><rect class="cls-2" x="249" y="107.02" width="5" height="19.98"/><rect class="cls-2" x="257" y="107.02" width="5" height="19.98"/><rect class="cls-4" x="265" y="107.02" width="5" height="19.98"/><rect class="cls-4" x="273" y="107.02" width="5" height="19.98"/><rect class="cls-4" x="281" y="107.02" width="5" height="19.98"/><rect class="cls-3" x="81" y="70.02" width="5" height="9.98"/></svg>