<svg xmlns="http://www.w3.org/2000/svg" xmlns:xlink="http://www.w3.org/1999/xlink" version="1.1" x="0px" y="0px" viewBox="0 0 185.121 229.183" xml:space="preserve">
<g>
    <path d="M112.726,121.037v-0.262v-6.58c-8.477-6.616-14.887-13.21-19.749-19.402c-5.026,2.334-10.66,3.211-16.236,2.474   c-0.627-0.083-1.253-0.186-1.878-0.311c-0.208-0.041-0.417-0.072-0.624-0.118c-1.633-0.362-3.235-0.867-4.78-1.499l-1.76,1.607   l-2.174,1.984l-1.475,1.349L62.698,98.8l-1.482-1.624l-8.369,7.639l-5.47,4.992l-6.132,5.597c0.21,0.514,0.387,1.044,0.511,1.597   c0.582,2.605,0.113,5.283-1.315,7.539c-1.844,2.908-5.003,4.645-8.452,4.645c-1.896,0-3.747-0.541-5.351-1.558   c-1.385-0.881-2.71-1.764-3.988-2.649v2.843v89c0,6.828,5.537,12.363,12.365,12.363c6.826,0,12.363-5.535,12.363-12.363v-81.273   h4.771v81.273c0,6.828,5.537,12.363,12.365,12.363c6.826,0,12.363-5.535,12.363-12.363V108.881c0-0.593-0.056-1.171-0.137-1.742   v-7.4c6.449,9.236,15.585,19.204,28.455,28.845c1.439,1.08,3.124,1.602,4.795,1.602c2.146,0,4.266-0.862,5.814-2.504   c-2.233-3.429-2.964-6.176-3.018-6.388L112.726,121.037z"/>
    <ellipse transform="matrix(0.9739 -0.2268 0.2268 0.9739 -3.8079 11.8564)" cx="49.694" cy="22.5" rx="22.495" ry="22.495"/>
    <path d="M185.121,48.338c0,0-2.196,8.784-12.078,14.274c-8.398,4.665-17.643,8.997-20.817,10.458   c2.727,1.259,8.992,4.2,15.67,7.686c1.713-0.896,3.447-1.826,5.148-2.771c9.882-5.49,12.078-14.274,12.078-14.274V48.338z"/>
    <path d="M130.978,83.554c-0.622,0.338-1.24,0.678-1.857,1.019c-9.882,5.49-12.078,14.274-12.078,14.274v5.567   c0,0,0.015,0.055,0.081,0.267c0.064,0.211,0.175,0.536,0.342,0.951c0.329,0.826,0.871,2.016,1.709,3.367   c0.045,0.075,0.103,0.154,0.15,0.23c1.241-2.026,3.112-4.395,5.82-6.589h44.543c-2.749-1.496-5.547-2.944-8.159-4.259h-29.541   c5.337-2.861,10.697-5.477,14.375-7.222C143.103,89.64,137.155,86.806,130.978,83.554z"/>
    <path d="M150.513,128.754c0.176,0.08,0.273,0.123,0.273,0.123c0.025,0.011,7.307,3.291,15.605,7.563   c2.192-1.131,4.451-2.33,6.651-3.553c6.173-3.43,9.348-8.145,10.859-11.201c-0.186-0.738-1.245-4.954-1.306-5.146   c-0.066-0.21-0.175-0.537-0.342-0.95c-0.137-0.349-0.324-0.772-0.544-1.235c-0.303-0.635-0.679-1.351-1.163-2.133   c-0.095-0.152-0.207-0.313-0.309-0.469c-0.351-0.537-0.731-1.088-1.176-1.658h-59.166c0.952,1.365,2.194,2.834,3.795,4.26h53.896   c-1.299,1.111-2.796,2.188-4.546,3.161c-2.689,1.493-5.461,2.95-8.095,4.292h-28.794c2.655,1.358,5.192,2.608,7.382,3.664   c0.428,0.207,0.837,0.404,1.236,0.595h11.52c-3.15,1.501-5.21,2.43-5.21,2.43S150.88,128.586,150.513,128.754z"/>
    <path d="M117.043,208.651v15.373c0,0,2.196-8.784,12.078-14.274c4.811-2.673,9.898-5.234,13.963-7.211   c-3.993-1.907-9.522-4.631-14.942-7.571C119.112,200.474,117.043,208.651,117.043,208.651z"/>
    <path d="M129.529,139.25c-0.136,0.075-0.271,0.15-0.407,0.225c-9.882,5.49-12.078,14.275-12.078,14.275v7.132   c0.004-0.005,0.015,0.055,0.081,0.263c0.066,0.213,0.177,0.539,0.339,0.953c0.14,0.348,0.326,0.772,0.548,1.234   c0.232,0.484,0.515,1.02,0.849,1.594c0.103,0.178,0.198,0.35,0.313,0.534c0.42,0.677,0.911,1.395,1.486,2.132h58.701   c-1.641,1.689-3.703,3.372-6.317,4.824c-1.61,0.895-3.252,1.776-4.875,2.629h-38.134c2.75,1.495,5.547,2.945,8.161,4.259h21.546   c-5.018,2.452-8.659,4.093-8.659,4.093s-0.843,0.38-2.265,1.042c1.243,0.576,1.967,0.902,1.967,0.902   c0.026,0.011,6.436,2.899,14.08,6.782c2.659-1.354,5.463-2.825,8.179-4.334c5.849-3.25,8.992-7.642,10.595-10.694   c-0.38-1.508-0.995-3.948-1.041-4.094c-0.064-0.21-0.177-0.536-0.339-0.946c-0.329-0.831-0.874-2.017-1.712-3.369   c-0.219-0.354-0.461-0.721-0.722-1.094c-0.063-0.092-0.137-0.186-0.204-0.277c-0.924-1.287-2.096-2.65-3.589-3.982h-56.188   c1.587-2.383,3.986-5.118,7.57-7.453h36.154c-2.657-1.357-5.192-2.609-7.382-3.668c-0.426-0.205-0.834-0.4-1.231-0.591h-19.811   c3.492-1.811,6.847-3.463,9.57-4.77C140.991,145.091,135.279,142.322,129.529,139.25z"/>
    <path d="M184.868,104.041v-3.593c0,0-2.258-9.034-12.421-14.681c-2.32-1.288-4.701-2.553-7.01-3.74   c-8.268-4.261-15.576-7.553-15.576-7.553s-0.126-0.057-0.354-0.16c-2.04-0.93-12.668-5.818-22.231-11.132   c-10.164-5.646-12.422-14.681-12.422-14.681v15.81c0,0,2.258,9.034,12.422,14.681c2.019,1.122,4.085,2.225,6.108,3.274   c6.962,3.616,13.413,6.615,15.646,7.641c0.537,0.245,0.83,0.378,0.83,0.378s7.938,3.576,16.63,8.097   c1.975,1.027,3.987,2.103,5.956,3.195c0.616,0.343,1.202,0.698,1.761,1.063c3.476,2.266,5.879,4.903,7.511,7.251   c2.436,3.507,3.149,6.366,3.149,6.366V104.041z"/>
    <path d="M172.447,142.23c-2.838-1.576-5.769-3.114-8.54-4.523c-7.62-3.872-14.046-6.768-14.046-6.768s-0.75-0.338-2.04-0.937   c-1.84-0.854-4.782-2.241-8.218-3.937c-2.586-1.275-5.452-2.726-8.343-4.259c-1.33-0.706-2.668-1.43-3.984-2.16   c-2.859-1.59-5.074-3.445-6.809-5.293c-0.916-0.977-1.704-1.949-2.36-2.881c-0.063-0.091-0.127-0.181-0.189-0.271   c-0.324-0.474-0.611-0.929-0.875-1.373c-1.657-2.78-2.189-4.862-2.189-4.862v10.866v4.943c0,0,0.546,2.155,2.276,5.013   c1.816,3,4.939,6.774,10.146,9.667c1.529,0.85,3.086,1.686,4.629,2.501c6.195,3.264,12.195,6.121,15.449,7.638   c1.574,0.733,2.507,1.154,2.507,1.154s4.413,1.987,10.258,4.872c2.586,1.276,5.45,2.727,8.341,4.259   c1.332,0.707,2.67,1.43,3.987,2.162c2.858,1.588,5.073,3.443,6.807,5.291c0.708,0.756,1.336,1.504,1.886,2.237   c0.232,0.309,0.459,0.615,0.664,0.916c2.361,3.446,3.064,6.235,3.064,6.235v-13.777v-2.031   C184.867,156.908,182.61,147.876,172.447,142.23z"/>
    <path d="M172.447,198.694c-3.372-1.874-6.876-3.693-10.092-5.308c-6.92-3.473-12.494-5.984-12.494-5.984s-1.414-0.638-3.702-1.714   c-3.134-1.475-7.904-3.771-12.929-6.385c-1.974-1.027-3.986-2.102-5.954-3.195c-0.616-0.342-1.201-0.698-1.762-1.063   c-3.719-2.423-6.197-5.267-7.827-7.732c-0.231-0.349-0.447-0.689-0.644-1.02c-1.657-2.782-2.189-4.863-2.189-4.863v15.81   c0,0,2.258,9.034,12.422,14.681c1.049,0.582,2.111,1.16,3.173,1.729c5.759,3.079,11.517,5.87,15.249,7.633   c2.556,1.206,4.163,1.931,4.163,1.931s11.954,5.387,22.586,11.293c10.163,5.646,12.421,14.68,12.421,14.68v-15.809   C184.868,213.375,182.611,204.34,172.447,198.694z"/>
    <path d="M61.345,94.351l2.03,2.223l0.802,0.878l0.988-0.902l3.902-3.563c1.382,0.643,2.812,1.15,4.266,1.551   c1.122,0.31,2.259,0.558,3.407,0.721c5.036,0.718,10.241,0.023,14.989-2.093c2.604-1.161,5.073-2.739,7.294-4.767   c11.143-10.188,11.923-27.467,1.757-38.612c-10.182-11.135-27.465-11.923-38.612-1.744c-1.242,1.134-2.339,2.365-3.322,3.657   c-5.661,7.44-7.042,17.188-3.961,25.771L50,81.929l2.836,3.106L39.378,97.324l-9.184,8.385c2.003,1.577,4.362,3.262,7.156,5.033   c1.18,0.747,2.165,1.716,2.925,2.84l6.977-6.367L61.345,94.351z M94.567,55.456c7.034,7.723,6.489,19.669-1.22,26.725   c-1.934,1.761-4.131,3.046-6.45,3.863c-3.278,1.155-6.796,1.357-10.156,0.66c-3.758-0.779-7.318-2.687-10.11-5.734   c-0.12-0.132-0.22-0.273-0.335-0.408c-3.777-4.393-5.204-10.035-4.344-15.371c0.654-4.063,2.619-7.943,5.89-10.94   c0.772-0.703,1.596-1.309,2.443-1.86c0.222-0.145,0.437-0.304,0.662-0.438C78.504,47.466,88.403,48.725,94.567,55.456z"/>
    <path d="M22.649,122.536c1.593,1.135,3.277,2.269,5.062,3.402c1.328,0.843,2.812,1.245,4.277,1.245   c2.649,0,5.239-1.313,6.764-3.714c1.298-2.046,1.545-4.455,0.894-6.605c-0.202-0.67-0.495-1.313-0.87-1.913   c-0.614-0.985-1.445-1.856-2.492-2.52c-2.901-1.84-5.411-3.63-7.585-5.356c-0.541-0.43-1.066-0.856-1.566-1.278   c-1.107-0.936-2.114-1.85-3.024-2.738c-0.518-0.507-1.001-1.004-1.458-1.493c-1.156-1.237-2.129-2.423-2.927-3.544   c-1.859-2.635-2.845-4.858-3.324-6.837c-0.274-1.13-0.388-2.182-0.396-3.18c0.003-2.572,0.773-5.054,2.195-7.579   c1.142-2.035,2.735-4.008,4.452-5.782v23.896c0.703,0.85,1.553,1.788,2.577,2.807c0.969,0.963,2.092,1.994,3.399,3.089l8.466-7.73   l12.921-11.796l-1.487-1.625l-1.352-1.477l1.479-1.352l3.926-3.585c-2.673-8.646-1.19-17.88,3.796-25.17H30.377   c-0.644,0-1.266,0.087-1.863,0.235c-1.217,0.03-2.445,0.331-3.591,0.948H24.92c-0.371,0.214-6.051,3.258-12.061,8.932   c-3.003,2.85-6.11,6.375-8.579,10.721C1.821,76.862,0,82.121,0,88.005c-0.004,1.048,0.077,2.111,0.196,3.18   c0.597,5.336,2.717,10.873,6.509,16.14C10.415,112.503,15.622,117.531,22.649,122.536z"/>
</g>
</svg>
