<svg xmlns="http://www.w3.org/2000/svg" xmlns:xlink="http://www.w3.org/1999/xlink" version="1.1" x="0px" y="0px" viewBox="0 0 100 100" enable-background="new 0 0 100 125" xml:space="preserve">
    <g>
        <path fill="#4F4F4F" d="M54.4,29.3l-1.5-1.2c-0.1-0.1-0.4-0.1-0.5,0.1l-4.2,5l-1.5-1.5c-0.1-0.1-0.4-0.1-0.5,0l-1.3,1.4c-0.1,0.1-0.1,0.4,0,0.5   l3.4,3.2c0.1,0.1,0.3,0.1,0.5,0l1.2-1.5l0,0l4.4-5.5C54.6,29.6,54.5,29.4,54.4,29.3z" />
    </g>
    <g>
        <path fill="#4F4F4F" d="M49.9,41.8c-5.1,0-9.3-4.2-9.3-9.3s4.2-9.3,9.3-9.3s9.3,4.2,9.3,9.3S55,41.8,49.9,41.8z M49.9,25.2c-4,0-7.2,3.2-7.2,7.2   s3.2,7.2,7.2,7.2s7.2-3.2,7.2-7.2S53.8,25.2,49.9,25.2z" />
    </g>
    <path fill="#4F4F4F" d="M66.5,45.3H32.9c-1.4,0-2.5,1.1-2.5,2.5s1.1,2.5,2.5,2.5h33.6c1.4,0,2.5-1.1,2.5-2.5S67.9,45.3,66.5,45.3z" />
    <path fill="#4F4F4F" d="M66.5,56.8H32.9c-1.4,0-2.5,1.1-2.5,2.5c0,1.4,1.1,2.5,2.5,2.5h33.6c1.4,0,2.5-1.1,2.5-2.5C69.1,57.9,67.9,56.8,66.5,56.8z" />
    <path fill="#4F4F4F" d="M66.5,68.2H32.9c-1.4,0-2.5,1.1-2.5,2.5c0,1.4,1.1,2.5,2.5,2.5h33.6c1.4,0,2.5-1.1,2.5-2.5C69.1,69.5,67.9,68.2,66.5,68.2z" />
    <path fill="#4F4F4F" d="M66.5,79.8H32.9c-1.4,0-2.5,1.1-2.5,2.5c0,1.4,1.1,2.5,2.5,2.5h33.6c1.4,0,2.5-1.1,2.5-2.5C69.1,81,67.9,79.8,66.5,79.8z" />
    <g>
        <path fill="none" d="M48.8,10.6C48.8,10.6,48.8,10.7,48.8,10.6c0.2,0.1,0.2,0.1,0.3,0.2c0.1,0,0.2,0.1,0.2,0.1h0.1   c0.1,0,0.2,0,0.3,0c0,0,0,0,0.1,0c0.1,0,0,0,0.1,0c0.1,0,0.2,0,0.3,0h0.1c0.1,0,0.2,0,0.2-0.1c0.1,0,0.1-0.1,0.2-0.1H51   c0.5-0.3,0.9-1,0.9-1.6c0-0.2,0-0.3-0.1-0.4V8.5c0-0.1-0.1-0.2-0.1-0.3V8.1c-0.1-0.2-0.3-0.4-0.7-0.7c0,0-0.1,0-0.1-0.1   c-0.1,0-0.2-0.1-0.3-0.1h-0.1c-0.1,0-0.3-0.1-0.4-0.1c-0.1,0-0.3,0-0.4,0.1h-0.1c-0.1,0-0.2,0.1-0.3,0.1c0,0-0.1,0-0.1,0.1   c-0.2,0.1-0.4,0.4-0.7,0.7v0.1c-0.1,0.1-0.1,0.2-0.1,0.3v0.1c-0.3,0-0.3,0.2-0.3,0.3C47.9,9.7,48.2,10.3,48.8,10.6z" />
        <g>
            <path fill="none" d="M48.8,10.6C48.8,10.6,48.8,10.7,48.8,10.6c0.2,0.1,0.2,0.1,0.3,0.2c0.1,0,0.2,0.1,0.2,0.1h0.1    c0.1,0,0.2,0,0.3,0c0,0,0,0,0.1,0c0.1,0,0,0,0.1,0c0.1,0,0.2,0,0.3,0h0.1c0.1,0,0.2,0,0.2-0.1c0.1,0,0.1-0.1,0.2-0.1H51    c0.5-0.3,0.9-1,0.9-1.6c0-0.2,0-0.3-0.1-0.4V8.5c0-0.1-0.1-0.2-0.1-0.3V8.1c-0.1-0.2-0.3-0.4-0.7-0.7c0,0-0.1,0-0.1-0.1    c-0.1,0-0.2-0.1-0.3-0.1h-0.1c-0.1,0-0.3-0.1-0.4-0.1c-0.1,0-0.3,0-0.4,0.1h-0.1c-0.1,0-0.2,0.1-0.3,0.1c0,0-0.1,0-0.1,0.1    c-0.2,0.1-0.4,0.4-0.7,0.7v0.1c-0.1,0.1-0.1,0.2-0.1,0.3v0.1c-0.3,0-0.3,0.2-0.3,0.3C47.9,9.7,48.2,10.3,48.8,10.6z" />
            <path fill="none" d="M67.1,19.9H32.5c0,0,0-0.5,0-1.4h-8.9v71.8h52.1V18.5h-8.6C67.1,19.4,67.1,19.9,67.1,19.9z" />
            <path fill="#4F4F4F" d="M76.5,13h-9.3c0-0.3,0-0.5,0-0.7c0-1.8-1.3-2.6-3.6-2.6h-6c-1.1,0-2.3-0.9-3.1-1.5c-0.4-0.3-0.9-0.8-1.2-1.2    c-0.1-0.2-0.3-0.3-0.5-0.5c-0.4-0.5-1-0.9-1.6-1.1c-0.1,0-0.2-0.1-0.2-0.1c-0.1,0-0.2,0-0.3-0.1c-0.2,0-0.3,0-0.5-0.1    c0,0,0,0-0.1,0l0,0l0,0c0,0,0,0-0.1,0c-0.2,0-0.3,0-0.5,0.1c-0.1,0-0.2,0-0.3,0.1c-0.1,0-0.2,0-0.2,0.1c-0.7,0.2-1.2,0.7-1.6,1.1    c-0.2,0.2-0.3,0.3-0.5,0.5c-0.3,0.4-0.8,0.8-1.2,1.2c-0.9,0.7-2,1.5-3.1,1.5h-6c-2.3,0-3.6,0.9-3.6,2.6c0,0,0,0.2,0,0.7H23    c-2.2,0-4.1,1.8-4.1,4.1v73.8c0,2.2,1.8,4.1,4.1,4.1h53.4c2.2,0,4.1-1.8,4.1-4.1V17.1C80.4,14.9,78.7,13,76.5,13z M47.9,8.5    C47.9,8.5,47.9,8.4,47.9,8.5C48,8.3,48,8.2,48.1,8.1V8c0.1-0.2,0.3-0.4,0.7-0.7c0,0,0.1,0,0.1-0.1c0.1,0,0.2-0.1,0.3-0.1h0.1    c0.1,0,0.3-0.1,0.4-0.1c0.2,0,0.3,0,0.4,0.1h0.1c0.1,0,0.2,0.1,0.3,0.1c0,0,0.1,0,0.1,0.1C51,7.4,51.2,7.7,51.4,8v0.1    c0.1,0.1,0.1,0.2,0.1,0.3v0.1c0,0.1,0.1,0.3,0.1,0.4c0,0.7-0.3,1.3-0.9,1.6h-0.1c-0.1,0-0.1,0.1-0.2,0.1c-0.1,0-0.2,0.1-0.2,0.1    h-0.1c-0.1,0-0.2,0-0.3,0c0,0,0,0-0.1,0c-0.1,0,0,0-0.1,0c-0.1,0-0.2,0-0.3,0h-0.1c-0.1,0-0.2,0-0.2-0.1c-0.1,0-0.1-0.1-0.2-0.1    h-0.1c-0.3-0.3-0.7-0.9-0.7-1.6C47.9,8.8,47.9,8.6,47.9,8.5z M34.1,14.7h31.3v1.5H34.1V14.7z M75.7,90.4H23.6V18.5h8.9    c0,0.9,0,1.4,0,1.4h34.6c0,0,0-0.5,0-1.4h8.6V90.4z" />
        </g>
    </g>
</svg>