<svg xmlns="http://www.w3.org/2000/svg" viewBox="0 0 86 83">
 <g>
  <path fill="#4F4F4F" id="svg_1" d="m61.405883,22.758824c-1.7,-5 -7,-12.3 -18.4,-12.3c-13.8,0 -19.5,11.1 -20.7,17.2c-4.6,1.2 -10.9,4.7 -10.9,13.2c0,8.9 7.4,13.2 11.2,13.2l15.1,0l0,11l-4.4,0l9.9,17.1l9.8,-17.1l-5.3,0l0,-11l15.9,0l0.3,0.2c3.9,-0.9 11.2,-5.5 11.2,-16.6c0.1,-9.5 -8.2,-13.6 -13.7,-14.9zm1.6,26.3l-39.6,0c-1.3,0 -6.7,-1.9 -6.7,-8.1c0,-7.6 7.1,-8.5 7.9,-8.6l2.1,-0.2l0,-2.3c0,-1.9 3.2,-14.2 16,-14.2c11.7,0 13.8,9.4 13.9,9.8l0.5,1.8l1.9,0.3c0.5,0.1 11.1,1.5 11.1,10c-0.2,8.8 -5.8,11.5 -7.1,11.5z"/>
  <path fill="#4F4F4F" id="svg_2" d="m12.505883,49.058824c-0.9,-3 -1.8,-3.8 -2.2,-5.8c-2,-1 -4.4,-3.1 -4.4,-7.3c0,-7.6 7.4,-8.4 8.3,-8.5l2.5,-0.1l0,-2.4c0,-1.9 2.8,-14.2 15.6,-14.2c0.5,0 1,0 1.5,0.1c2.4,-0.7 6.2,-1.6 10.2,-1.8c-2.9,-2 -6.7,-3.5 -11.8,-3.5c-13.8,0 -19.5,11.1 -20.6,17.2c-4.6,1.2 -10.9,4.6 -10.9,13.2c0,8.9 7.3,13.1 11.2,13.1l0.6,0z"/>
  <path fill="#4F4F4F" id="svg_3" d="m70.905883,12.658824c-1.7,-5 -7,-12.3 -18.4,-12.3c-6,0 -10.4,2.1 -13.6,4.9l5.6,1.9c2,-1 4.4,-1.6 7.3,-1.6c11.7,0 14,9.4 14.1,9.8l0.6,1.8l2,0.3c0.5,0.1 11.1,1.5 11.1,10c0,4.1 -1.3,6.9 -2.7,8.6c0.5,1.6 0.8,3.9 0.4,6.8c3.6,-2.1 7.6,-7.2 7.6,-15.4c-0.2,-9.4 -8.4,-13.5 -14,-14.8z"/>
 </g>
</svg>