<svg id="Layer_1" data-name="Layer 1" xmlns="http://www.w3.org/2000/svg" xmlns:xlink="http://www.w3.org/1999/xlink" viewBox="0 0 26 23"><defs><style>.cls-1{fill:#fff;}.cls-2{mask:url(#mask);}.cls-3{fill:#166aa2;}</style><mask id="mask" x="0" y="0" width="26" height="23" maskUnits="userSpaceOnUse"><g transform="translate(0 0)"><g id="mask-2"><polygon id="path-1" class="cls-1" points="13 23 26 23 26 0 0 0 0 23 13 23"/></g></g></mask></defs><title>icon-target</title><g id="ICGC-Data-Portal-Homepage"><g id="Page-1-Copy-2"><g class="cls-2"><path id="Fill-1" class="cls-3" d="M20.38,7.4,18.28,7l.42-2.34L20.6,3.37,20.18,5.7l2.1.38ZM26,5.28a1.09,1.09,0,0,0-.87-.84L22.64,4l.49-2.7A1.09,1.09,0,0,0,21.44.2l-4.37,3a10.73,10.73,0,0,0-6.23-2A10.87,10.87,0,1,0,21.67,12.13a11.07,11.07,0,0,0-.07-1.23l-2.05,1.35a8.72,8.72,0,1,1-8.71-8.87,8.64,8.64,0,0,1,5.58,2l-.34,1.87-1,.69,0-.05a5.88,5.88,0,0,0-4.19-1.74,5.94,5.94,0,1,0,5.93,5.94c0-.09,0-.18,0-.27l-2.33,1.53a3.81,3.81,0,1,1-3.59-5.08,3.77,3.77,0,0,1,2.45.9l-1.77,1.22a1.84,1.84,0,1,0,1.15,1.79L17.33,9l3.54.64,4.66-3.24A1.09,1.09,0,0,0,26,5.28Z" transform="translate(0 0)"/></g></g></g></svg>