<svg id="Layer_1" data-name="Layer 1" xmlns="http://www.w3.org/2000/svg" viewBox="0 0 426.54 427"><defs><style>.cls-1{fill:#0e5686;}</style></defs><title>icon-dna</title><g id="ICGC-Data-Portal-Homepage"><g id="Page-1"><path class="cls-1" d="M172.53,136.9l30.67,30.67a67.8,67.8,0,0,1-2.72,16.14L156.36,139.6A69.26,69.26,0,0,1,172.53,136.9Zm29,1.61c.7,5.39,1.26,10.6,1.58,15.65L185.91,137C190.94,137.29,196.13,137.84,201.5,138.51Zm-12.55,65.84-53.29-53.29a58.66,58.66,0,0,1,11.27-7.6l49.65,49.65A59,59,0,0,1,188.95,204.35Zm-73.49,20.2c-.79-6.15-1.44-12.08-1.72-17.79l19.44,19.44C127.49,225.94,121.59,225.33,115.46,224.55ZM117,177.87l45.07,45.07a66.18,66.18,0,0,1-16,3.13l.11-.11-32.17-32.17-.2.2A65.18,65.18,0,0,1,117,177.87Zm12-20.2L182.34,211a59.89,59.89,0,0,1-11,7.85l-50.22-50.23A60.62,60.62,0,0,1,129,157.67ZM253.9,116.54,223.38,86a67.77,67.77,0,0,1,2.7-16.17l44,44A69.14,69.14,0,0,1,253.9,116.54Zm-28.81-1.62c-.69-5.33-1.25-10.48-1.57-15.47l17,17C235.53,116.13,230.4,115.59,225.09,114.91Zm12.47-65.75,53.27,53.27A58.41,58.41,0,0,1,279.55,110l-49.6-49.6A59.11,59.11,0,0,1,237.56,49.17Zm73.57-20.29c.81,6.22,1.47,12.21,1.75,18L293.25,27.23C299,27.48,304.94,28.1,311.13,28.88Zm-1.57,46.82L264.39,30.54a66.19,66.19,0,0,1,16.07-3.16l-.19.19,32.17,32.16.32-.32A64.31,64.31,0,0,1,309.56,75.71Zm-12,20.14L244.17,42.47a60.07,60.07,0,0,1,11-7.87l50.28,50.28A61.42,61.42,0,0,1,297.54,95.85ZM80.27,312.78l-53-53a57.84,57.84,0,0,1,11.49-7.37l49,49A58.85,58.85,0,0,1,80.27,312.78Zm-1.67-66c4.3.32,8.72.8,13.26,1.37.59,4.57,1.11,9,1.45,13.34Zm15.11,28.4a70.55,70.55,0,0,1-2.38,16.48L48.46,248.79A72.45,72.45,0,0,1,65,246.42ZM347.82,6.65c-3.84-.28-7.74-.7-11.71-1.18-.53-4.07-1-8.06-1.43-12Zm-1.55-65.87,53,53A57.88,57.88,0,0,1,387.7,1.08L339-47.61A55,55,0,0,1,346.27-59.23ZM335.65-37.69,378,4.62A73.67,73.67,0,0,1,361.44,7l-27.6-27.61A72.26,72.26,0,0,1,335.65-37.69Zm72.2,23.44-1.65,1.65L352.61-66.18l1.76-1.76L336-87l-3.33,3.32C306-57,305-25.82,308.51,1.92c-28-3.07-59-2.38-85.92,24.5C195.23,53.78,195,84.35,198,111.43c-27.41-2.95-58.08-2.34-85,24.58-27.57,27.57-27.69,58.09-24.66,85-27.42-2.9-58.1-2.26-85,24.65L0,249l18.71,18.72,1.61-1.61,53.58,53.58-1.61,1.61L91,340l3.32-3.32c27.23-27.23,27.62-57.84,24.66-85,27.42,2.92,58.1,2.27,85-24.65,27.64-27.64,27.66-58.13,24.6-85,27.4,2.95,58.08,2.33,85-24.58,27.44-27.44,27.66-58,24.6-85,27.45,2.9,58.15,2.27,85-24.62l3.32-3.32Z" transform="translate(0 87)"/></g></g></svg>