<svg xmlns="http://www.w3.org/2000/svg" xmlns:xlink="http://www.w3.org/1999/xlink" version="1.1" x="0px" y="0px" viewBox="0 0 100 100" style="enable-background:new 0 0 100 100;" xml:space="preserve">
  <path fill="#E9931C" stroke="#E9931C" stroke-width="1.5" d="M82.3,25L63,5.8C62.4,5.3,61.7,5,61,5H21c-2.9,0-5.3,2.4-5.3,5.3v79.5c0,2.9,2.4,5.3,5.3,5.3h58c2.9,0,5.3-2.4,5.3-5.3V30  C84.3,28.1,83.6,26.4,82.3,25z M79.1,27.5h-16c-0.7,0-1.3-0.6-1.3-1.3v-16L79.1,27.5z M79,91.5H21c-1,0-1.8-0.8-1.8-1.8V10.3  c0-1,0.8-1.8,1.8-1.8h37.4v17.8c0,2.6,2.1,4.7,4.7,4.7h17.7v58.8C80.8,90.7,80,91.5,79,91.5z M82.3,25L63,5.8C62.4,5.3,61.7,5,61,5  H21c-2.9,0-5.3,2.4-5.3,5.3v79.5c0,2.9,2.4,5.3,5.3,5.3h58c2.9,0,5.3-2.4,5.3-5.3V30C84.3,28.1,83.6,26.4,82.3,25z M79.1,27.5h-16  c-0.7,0-1.3-0.6-1.3-1.3v-16L79.1,27.5z M79,91.5H21c-1,0-1.8-0.8-1.8-1.8V10.3c0-1,0.8-1.8,1.8-1.8h37.4v17.8  c0,2.6,2.1,4.7,4.7,4.7h17.7v58.8C80.8,90.7,80,91.5,79,91.5z M37.1,53.7V56c0,0.4-0.3,0.8-0.8,0.8h-0.5c-0.1,0-0.2,0-0.3,0.1  c-0.1,0-0.1,0.1-0.2,0.2c-0.1,0.1-0.1,0.3-0.2,0.6c-0.1,0.3-0.1,0.7-0.1,1.1v2.1c0,0.6,0,1.2-0.1,1.7c-0.1,0.5-0.2,0.9-0.4,1.3  c-0.1,0.3-0.3,0.5-0.5,0.7c0.2,0.2,0.3,0.4,0.4,0.7c0.3,0.7,0.5,1.7,0.5,3v3.1c0,0.5,0,0.9,0.1,1.2c0.1,0.3,0.2,0.5,0.2,0.6  c0.1,0.1,0.1,0.2,0.2,0.2c0.1,0,0.2,0.1,0.4,0.1h0.5c0.4,0,0.8,0.3,0.8,0.8v2.3c0,0.4-0.3,0.8-0.8,0.8h-0.6c-1.3,0-2.3-0.5-3-1.6  c-0.6-0.9-0.9-2.3-0.9-4.3v-3.1c0-0.9-0.1-1.3-0.3-1.5c-0.1-0.1-0.2-0.2-0.5-0.2h-0.5c-0.4,0-0.8-0.3-0.8-0.8v-2.3  c0-0.4,0.3-0.8,0.8-0.8h0.5c0.2,0,0.3,0,0.4-0.1c0,0,0.1-0.1,0.2-0.2c0-0.1,0.1-0.2,0.2-0.5c0-0.3,0.1-0.6,0.1-1v-2.2  c0-0.9,0.1-1.7,0.2-2.4c0.1-0.7,0.4-1.3,0.7-1.8c0.3-0.5,0.8-1,1.3-1.2c0.5-0.3,1.1-0.4,1.8-0.4h0.6C36.8,52.9,37.1,53.2,37.1,53.7z   M43.9,68.5c0.1,0.3,0.2,0.6,0.2,0.9c0,0.3-0.1,0.6-0.2,0.9c-0.1,0.3-0.3,0.5-0.5,0.7c-0.2,0.2-0.4,0.4-0.7,0.5  c-0.3,0.1-0.6,0.2-0.9,0.2c-0.3,0-0.6-0.1-0.9-0.2c-0.3-0.1-0.5-0.3-0.7-0.5c-0.2-0.2-0.4-0.4-0.5-0.7c-0.1-0.3-0.2-0.6-0.2-0.9  c0-0.3,0.1-0.6,0.2-0.9c0.1-0.3,0.3-0.5,0.5-0.7c0.2-0.2,0.4-0.4,0.7-0.5c0.6-0.2,1.2-0.2,1.8,0c0.3,0.1,0.5,0.3,0.7,0.5  C43.6,68,43.8,68.2,43.9,68.5z M52,68.5c0.1,0.3,0.2,0.6,0.2,0.9c0,0.3-0.1,0.6-0.2,0.9c-0.1,0.3-0.3,0.5-0.5,0.7  c-0.2,0.2-0.4,0.4-0.7,0.5c-0.3,0.1-0.6,0.2-0.9,0.2c-0.3,0-0.6-0.1-0.9-0.2c-0.3-0.1-0.5-0.3-0.7-0.5c-0.2-0.2-0.4-0.4-0.5-0.7  c-0.1-0.3-0.2-0.6-0.2-0.9c0-0.3,0.1-0.6,0.2-0.9c0.1-0.3,0.3-0.5,0.5-0.7c0.2-0.2,0.4-0.4,0.7-0.5c0.6-0.2,1.2-0.2,1.8,0  c0.3,0.1,0.5,0.3,0.7,0.5C51.8,68,51.9,68.2,52,68.5z M60.2,68.5c0.1,0.3,0.2,0.6,0.2,0.9c0,0.3-0.1,0.6-0.2,0.9  c-0.1,0.3-0.3,0.5-0.5,0.7c-0.2,0.2-0.4,0.4-0.7,0.5c-0.3,0.1-0.6,0.2-0.9,0.2c-0.3,0-0.6-0.1-0.9-0.2c-0.3-0.1-0.5-0.3-0.7-0.5  c-0.2-0.2-0.4-0.4-0.5-0.7c-0.1-0.3-0.2-0.6-0.2-0.9c0-0.3,0.1-0.6,0.2-0.9c0.1-0.3,0.3-0.5,0.5-0.7c0.2-0.2,0.4-0.4,0.7-0.5  c0.6-0.2,1.2-0.2,1.8,0c0.3,0.1,0.5,0.3,0.7,0.5C59.9,68,60.1,68.2,60.2,68.5z M70.2,63.3v2.3c0,0.4-0.3,0.8-0.8,0.8h-0.5  c-0.2,0-0.3,0-0.4,0.1c-0.1,0-0.1,0.1-0.2,0.2c0,0.1-0.1,0.2-0.2,0.5c0,0.3-0.1,0.6-0.1,1v3.2c0,0.9-0.1,1.7-0.2,2.3  c-0.1,0.7-0.4,1.3-0.7,1.8c-0.3,0.5-0.8,1-1.3,1.2c-0.5,0.3-1.1,0.4-1.8,0.4h-0.6c-0.4,0-0.8-0.3-0.8-0.8V74c0-0.4,0.3-0.8,0.8-0.8  h0.5c0.1,0,0.3,0,0.4-0.1c0.1,0,0.1-0.1,0.2-0.2c0.1-0.1,0.2-0.3,0.2-0.6c0.1-0.3,0.1-0.7,0.1-1.1v-3.2c0-0.6,0-1.2,0.1-1.7  c0.1-0.5,0.2-0.9,0.3-1.3c0.1-0.3,0.3-0.5,0.5-0.7c-0.2-0.2-0.3-0.4-0.4-0.7c-0.3-0.7-0.5-1.7-0.5-3v-2c0-0.5,0-0.9-0.1-1.2  c-0.1-0.3-0.2-0.5-0.2-0.6c-0.1-0.1-0.1-0.2-0.2-0.2c-0.1,0-0.2-0.1-0.4-0.1h-0.5c-0.4,0-0.8-0.3-0.8-0.8v-2.3  c0-0.4,0.3-0.8,0.8-0.8h0.6c1.3,0,2.4,0.5,3,1.6c0.6,0.9,0.9,2.3,0.9,4.3v2.1c0,0.9,0.1,1.3,0.3,1.5c0.1,0.1,0.2,0.2,0.5,0.2h0.5  C69.8,62.6,70.2,62.9,70.2,63.3z"/>
</svg>