<?xml version="1.0" encoding="utf-8"?>
<!-- Generator: Adobe Illustrator 20.1.0, SVG Export Plug-In . SVG Version: 6.00 Build 0)  -->
<svg version="1.1" id="Layer_1" xmlns="http://www.w3.org/2000/svg" xmlns:xlink="http://www.w3.org/1999/xlink" x="0px" y="0px"
	 viewBox="0 0 122 163" style="enable-background:new 0 0 122 163;" xml:space="preserve">
<style type="text/css">
	.st0{fill-rule:evenodd;clip-rule:evenodd;fill:#FFFCDE;}
	.st1{fill-rule:evenodd;clip-rule:evenodd;fill:#FFFCE8;}
	.st2{fill-rule:evenodd;clip-rule:evenodd;fill:#FFFCE7;}
	.st3{fill-rule:evenodd;clip-rule:evenodd;fill:#FEF3B4;}
	.st4{fill-rule:evenodd;clip-rule:evenodd;fill:#FFFCEB;}
	.st5{fill-rule:evenodd;clip-rule:evenodd;fill:#B0BBAC;}
	.st6{fill-rule:evenodd;clip-rule:evenodd;fill:#FFFAD9;}
	.st7{fill-rule:evenodd;clip-rule:evenodd;fill:#FEF9D5;}
	.st8{fill-rule:evenodd;clip-rule:evenodd;fill:#FEF6B9;}
	.st9{fill-rule:evenodd;clip-rule:evenodd;fill:#FFFEF1;}
	.st10{fill-rule:evenodd;clip-rule:evenodd;fill:#FFF7C3;}
	.st11{fill-rule:evenodd;clip-rule:evenodd;fill:#C1C3B8;}
	.st12{fill-rule:evenodd;clip-rule:evenodd;fill:#FFF7CA;}
	.st13{fill-rule:evenodd;clip-rule:evenodd;fill:#C2C4B9;}
	.st14{fill-rule:evenodd;clip-rule:evenodd;fill:#A39F54;}
	.st15{fill-rule:evenodd;clip-rule:evenodd;fill:#B1B5A6;}
	.st16{fill-rule:evenodd;clip-rule:evenodd;fill:#FEF29B;}
	.st17{fill-rule:evenodd;clip-rule:evenodd;fill:#B9BDAC;}
	.st18{fill-rule:evenodd;clip-rule:evenodd;fill:#FFF4B6;}
	.st19{fill-rule:evenodd;clip-rule:evenodd;fill:#FFF8C6;}
	.st20{fill-rule:evenodd;clip-rule:evenodd;fill:#FEF194;}
	.st21{fill-rule:evenodd;clip-rule:evenodd;fill:#FFFCEA;}
	.st22{fill-rule:evenodd;clip-rule:evenodd;fill:#C1C2B7;}
	.st23{fill-rule:evenodd;clip-rule:evenodd;fill:#F4F5F3;}
	.st24{fill-rule:evenodd;clip-rule:evenodd;fill:#C6C8BE;}
	.st25{fill-rule:evenodd;clip-rule:evenodd;fill:#FFFCEE;}
	.st26{fill-rule:evenodd;clip-rule:evenodd;fill:#EEEFEC;}
	.st27{fill-rule:evenodd;clip-rule:evenodd;fill:#D3D4CD;}
	.st28{fill-rule:evenodd;clip-rule:evenodd;fill:#DDDFD9;}
	.st29{fill-rule:evenodd;clip-rule:evenodd;fill:#FFFBE3;}
	.st30{fill-rule:evenodd;clip-rule:evenodd;fill:#FFF08B;}
	.st31{fill-rule:evenodd;clip-rule:evenodd;fill:#FDED83;}
	.st32{fill-rule:evenodd;clip-rule:evenodd;fill:#FEEA73;}
	.st33{fill-rule:evenodd;clip-rule:evenodd;fill:#FDED84;}
	.st34{fill-rule:evenodd;clip-rule:evenodd;fill:#FEEE89;}
	.st35{fill-rule:evenodd;clip-rule:evenodd;fill:#FEEF8D;}
	.st36{fill-rule:evenodd;clip-rule:evenodd;fill:#FFF1A3;}
	.st37{fill-rule:evenodd;clip-rule:evenodd;fill:#FEE86C;}
	.st38{fill-rule:evenodd;clip-rule:evenodd;fill:#A3A999;}
	.st39{fill-rule:evenodd;clip-rule:evenodd;fill:#A7B1A1;}
	.st40{fill-rule:evenodd;clip-rule:evenodd;fill:#FFE55E;}
	.st41{fill-rule:evenodd;clip-rule:evenodd;fill:#FDE971;}
	.st42{fill-rule:evenodd;clip-rule:evenodd;fill:#FEF3AC;}
	.st43{fill-rule:evenodd;clip-rule:evenodd;fill:#FEF29C;}
	.st44{fill-rule:evenodd;clip-rule:evenodd;fill:#FEF3AB;}
	.st45{fill-rule:evenodd;clip-rule:evenodd;fill:#FEEF90;}
	.st46{fill-rule:evenodd;clip-rule:evenodd;fill:#FFF2A1;}
	.st47{fill-rule:evenodd;clip-rule:evenodd;fill:#BCB250;}
	.st48{fill-rule:evenodd;clip-rule:evenodd;fill:#A49A34;}
	.st49{fill-rule:evenodd;clip-rule:evenodd;fill:#BDAD31;}
	.st50{fill-rule:evenodd;clip-rule:evenodd;fill:#A5A371;}
	.st51{fill-rule:evenodd;clip-rule:evenodd;fill:#FEE858;}
	.st52{fill-rule:evenodd;clip-rule:evenodd;fill:#FFEF94;}
	.st53{fill-rule:evenodd;clip-rule:evenodd;fill:#FFF19F;}
	.st54{fill-rule:evenodd;clip-rule:evenodd;fill:#FEE445;}
	.st55{fill-rule:evenodd;clip-rule:evenodd;fill:#FEE74C;}
	.st56{fill-rule:evenodd;clip-rule:evenodd;fill:#FFEF6F;}
	.st57{fill-rule:evenodd;clip-rule:evenodd;fill:#FDEB7B;}
	.st58{fill-rule:evenodd;clip-rule:evenodd;fill:#FEEF8E;}
	.st59{fill-rule:evenodd;clip-rule:evenodd;fill:#FEEE8A;}
	.st60{fill-rule:evenodd;clip-rule:evenodd;fill:#FEEA70;}
	.st61{fill-rule:evenodd;clip-rule:evenodd;fill:#FDEA7A;}
	.st62{fill-rule:evenodd;clip-rule:evenodd;fill:#FEE867;}
	.st63{fill-rule:evenodd;clip-rule:evenodd;fill:#FEE767;}
	.st64{fill-rule:evenodd;clip-rule:evenodd;fill:#FDE76B;}
	.st65{fill-rule:evenodd;clip-rule:evenodd;fill:#FFFBE5;}
	.st66{fill-rule:evenodd;clip-rule:evenodd;fill:#FFF5B9;}
	.st67{fill-rule:evenodd;clip-rule:evenodd;fill:#FEF6A7;}
	.st68{fill-rule:evenodd;clip-rule:evenodd;fill:#FFF9CD;}
	.st69{fill-rule:evenodd;clip-rule:evenodd;fill:#FEED78;}
	.st70{fill-rule:evenodd;clip-rule:evenodd;fill:#FEE94E;}
	.st71{fill-rule:evenodd;clip-rule:evenodd;fill:#FFF8CA;}
	.st72{fill-rule:evenodd;clip-rule:evenodd;fill:#FEEB83;}
	.st73{fill-rule:evenodd;clip-rule:evenodd;fill:#FFF097;}
	.st74{fill-rule:evenodd;clip-rule:evenodd;fill:#FDEA7C;}
	.st75{fill-rule:evenodd;clip-rule:evenodd;fill:#FEF59F;}
	.st76{fill-rule:evenodd;clip-rule:evenodd;fill:#FEE44C;}
	.st77{fill-rule:evenodd;clip-rule:evenodd;fill:#FEE553;}
	.st78{fill-rule:evenodd;clip-rule:evenodd;fill:#A49B39;}
	.st79{fill-rule:evenodd;clip-rule:evenodd;fill:#FFE452;}
	.st80{fill-rule:evenodd;clip-rule:evenodd;fill:#FEEE92;}
	.st81{fill-rule:evenodd;clip-rule:evenodd;fill:#FEE45A;}
	.st82{fill-rule:evenodd;clip-rule:evenodd;fill:#FFF6C0;}
	.st83{fill-rule:evenodd;clip-rule:evenodd;fill:#FFF2A4;}
	.st84{fill-rule:evenodd;clip-rule:evenodd;fill:#FFF9D5;}
	.st85{fill-rule:evenodd;clip-rule:evenodd;fill:#FEF3AD;}
	.st86{fill-rule:evenodd;clip-rule:evenodd;fill:#FEE034;}
	.st87{fill-rule:evenodd;clip-rule:evenodd;fill:#FDE537;}
	.st88{fill-rule:evenodd;clip-rule:evenodd;fill:#FEDA26;}
	.st89{fill-rule:evenodd;clip-rule:evenodd;fill:#FEE12F;}
	.st90{fill-rule:evenodd;clip-rule:evenodd;fill:#FEE235;}
	.st91{fill-rule:evenodd;clip-rule:evenodd;fill:#FFF9D3;}
	.st92{fill-rule:evenodd;clip-rule:evenodd;fill:#FFF19C;}
	.st93{fill-rule:evenodd;clip-rule:evenodd;fill:#FDEA75;}
	.st94{fill-rule:evenodd;clip-rule:evenodd;fill:#FFF4AA;}
	.st95{fill-rule:evenodd;clip-rule:evenodd;fill:#FFF7C7;}
	.st96{fill-rule:evenodd;clip-rule:evenodd;fill:#FFF4A7;}
	.st97{fill-rule:evenodd;clip-rule:evenodd;fill:#FFF4BB;}
	.st98{fill-rule:evenodd;clip-rule:evenodd;fill:#FFF8D1;}
	.st99{fill-rule:evenodd;clip-rule:evenodd;fill:#FFF8D8;}
	.st100{fill-rule:evenodd;clip-rule:evenodd;fill:#FEFBEA;}
	.st101{fill-rule:evenodd;clip-rule:evenodd;fill:#FEF6BB;}
	.st102{fill-rule:evenodd;clip-rule:evenodd;fill:#FFFFFF;}
	.st103{fill-rule:evenodd;clip-rule:evenodd;fill:#FFFCF0;}
	.st104{fill:#944B31;}
</style>
<g>
	<g>
		<path class="st0" d="M25.1,72.2c-0.5-1-0.6-2-0.6-3.1c-0.1-1.9,0.3-3.8,0.2-5.8c0-0.7-0.2-1.5,0.4-2.2c0.4-0.5,0.1-1-0.1-1.5
			c-0.1-0.3-0.3-0.8-0.1-0.8c1.6-0.5,0.8-1.6,0.7-2.6c-0.1-1,0.4-1.9,1.1-2.6c2.4-2.4,4.2-5.2,6.3-7.7c0.1-0.2,0.2-0.4,0.3-0.6
			c1.5-0.7,2.8-2.8,4.6-0.5c0.3,0.4,0.6-0.2,0.8-0.4c0.8-0.9,1-2.2,1.5-3.3c1.1-2.4,2.5-3,4.5-1.8c0.1,0.4-0.1,0.9-0.4,0.9
			c-2.2,0.3-2.4,1.9-2.6,3.7c-0.1,1.2-0.6,1.9-1.9,2.7c-1.4,0.8-2.6,2.4-4,3.5c-1.8,0.9-2.8,2.7-4.4,3.7c-1.7,1.1-2.5,3-3.5,4.7
			c-0.1,0.2-0.2,0.4-0.3,0.5c-1,1.6-1.2,3.2-0.3,4.9c0.2,0.4,0.6,0.9,0.2,1.3c-1.9,2-1.1,4.7-1.8,7C25.5,72.3,25.3,72.3,25.1,72.2z"
			/>
		<path class="st1" d="M101,72.1c0,0.2,0,0.5,0,0.7c0,0.6-0.7,1.1-0.2,1.7c0.4,0.6,1,0,1.5,0c1.2,0.1,2.4,1.7,1.8,2.8
			c-0.6,1.2-0.7,2.2,0.1,3.3c0.3,0.4,0.3,1.1-0.1,1.3c-1.8,0.7-1.2,2.9-2.4,4c-1.2,1.1-1.7,2.8-2.6,4.1c-0.9,1.4-2.1,2.6-3.6,3.3
			c-0.8,0.4-1.7,0.7-2.5,1c-0.3,0.3-0.6,0.3-0.9,0l-0.2,0h-0.2c-0.2,0.1-0.3,0.3-0.5,0.5v0c-2,0.3-3.4,1.6-4.9,2.8
			c-0.2,0.1-0.4,0-0.6-0.1c-0.8-0.8-0.7-1.6,0.2-2.1c1.8-0.9,3.3-2.4,5.5-2.3c1.8,0.1,2.5-1.5,3.1-2.6c0.8-1.5,1.9-2.7,2.7-4.1
			c0.3-0.6,1.3-1,0.3-1.9c-0.4-0.4,0.2-0.8,0.6-0.9c0.6-0.2,1.4,0,2-0.3c-1.2-1.1-1.8-2.4-0.9-4c0.7-1.2-0.2-2.5,0.2-3.8
			c0-0.2,0.1-0.4,0.1-0.6C99.8,74,99.3,72.4,101,72.1z"/>
		<path class="st2" d="M54.2,32.6c0.7-1.2,2.1-1.9,3.5-1.6c1,0.2,2,0.4,3,0.6c0.1-0.2,0.3-0.4,0.3-0.5c0-0.8-0.8-1.6,0.2-2.3
			c1.2-0.9,2.6-1,3.9-0.5c1.2,0.5,2.2,1.1,3.6,0.7c0.9-0.3,1.8,0.5,2.2,1c1.1,1.8,3,2.3,4.6,3.3c0.6,0.4,1.2,0.7,1.2,1.5
			c-0.5,0.3-1,0-1.5-0.2c-1.5-0.5-2.9-1.4-4.6-0.1c-0.7,0.5-1.9,0.3-2.8-0.4c-0.8-0.6-1.6-0.6-2.3-0.2c-2.4,1.6-4.2,0.3-6.1-1.1
			c-0.9-0.4-1.8,0-2.7,0.1C55.7,33.2,54.8,33.3,54.2,32.6z"/>
		<path class="st3" d="M90.6,43.5c0.8,0.9,0.4,2.2,1.1,3.2c0.5,0.7,0.8,1,1.6,0.5c0.4-0.2,0.8-0.4,1.2-0.6c1-0.5,1.8-0.6,2.7,0.3
			c0.4,0.4,1,0.6,1.5,1c0.5,0.3,1,0.7,0.9,1.4c-0.2,1-1.1-0.1-1.5,0.5c-0.2,0.5,0.3,0.9,0.2,1.4c-0.3,1.8,0.3,3,2,3.8
			c0.6,0.3,0.9,1.2,0.2,1.3c-1.2,0.1-0.9,0.4-0.5,1.1c0.7,1.2,0.9,2.7,1.7,3.9c0.3,0.5,0.1,1-0.1,1.5c-0.4,1-0.7,2-1.1,3
			c-0.3,0.3-0.3,0.7-0.2,1.1c0.7,2.9,0.1,5.7-0.7,8.5v0c-0.2,0.2-0.4,0.2-0.6,0c-0.6-0.6-0.8-1.4-0.7-2.2c0-0.2,0.1-0.4,0.2-0.6
			c1.1-1.4-0.1-2.9,0.1-4.3c0.2-1.9,0.2-3.8,0.4-5.7c0.1-0.8-0.3-1.6-0.6-2.3c-0.4-0.7-0.7-1.5-1-2.3c-0.1-2.4-1.2-4.6-0.9-7.1
			c-0.5-1.9-1.7-2.5-3.6-1.9c-0.8,0.3-1.6,0.3-2.4,0.1c-0.2-0.1-0.4-0.2-0.6-0.3c-0.3-0.4-0.5-0.8-0.7-1.2c-0.2-1.3-0.3-2.7,0.7-3.8
			C90.1,43.3,90.4,43.3,90.6,43.5z"/>
		<path class="st4" d="M44.7,39.4c-2.2-0.6-3.5,0.1-4.1,2.2c-0.5,1.7-1.1,3.3-2.7,4.3c-0.1-0.2-0.3-0.3-0.4-0.5
			c-0.7-1.3-0.9-1.5-2.1-0.9c-0.7,0.3-1.2,0.9-2.1,0.7c0-0.5,0.2-0.9,0.6-1.2c2.5-1.5,4.4-3.4,6.2-5.7c0.9-1.2,2.5-1.9,4-2.2
			c2-0.5,3.9-1,5.5-2.3c1-0.9,2.3-0.3,3.3-0.9c0.1,0.2,0.3,0.3,0.4,0.5c0.3,1.8-0.4,2.9-2.3,3c-1,0.1-1.7,0.5-2.2,1.2
			C47.3,40.3,46.7,40.5,44.7,39.4z"/>
		<path class="st5" d="M76.1,143.1c0,2.2,0,2.2,2,2.2c2.2-0.1,2.2,0,1.5,2.1c1.3,0.5,2.5,1.1,3.8,1.5c1.1,0.4,1.5,0.9,1,2
			c-0.6,1.4-0.9,2.8-1.4,4.2c-0.8,2.3-2.7,3.8-5.1,4.3c-0.1-0.1-0.2-0.3-0.2-0.5c0.1-0.2,0.2-0.3,0.3-0.5c0.2-0.2,0.4-0.4,0.7-0.6
			c2.7-1.5,2.5-4,2.1-6.5c-0.2-1.4-2.1-1.8-3.6-0.6c-1.4,1.1-3.1,1.7-4.4,3c-0.8,0.2-1.6,0-1.8-0.9c-0.1-0.8,0.5-1.5,1.2-1.8
			c1.4-0.6,2.5-1.6,3.3-3c0.3-0.5,0.7-0.8,0-1.5c-1.4-1.3-1.1-2.8,0.1-4.2C76,142.5,76.2,142.7,76.1,143.1z"/>
		<path class="st6" d="M90.6,43.5c-0.2,0-0.3,0-0.5,0c-2-0.1-3.3-2-5.2-2.3c-0.5-0.1-0.8-0.6-1.4-0.5c-1.6,0.2-2.8-0.6-3.8-1.7
			c-1.1-1.1-2.1-1.8-3.8-1.4c-1.5,0.3-2.7-0.8-4.1-1.1c-0.7-0.2-1.4-0.6-2.2-0.4c-1.3,0-2.5-0.2-3.6-0.8c-0.8-0.4-1.5-0.4-2.2,0.2
			c-0.2,0.2-0.5,0.3-0.9,0.4c-1.2-0.1-2-1.2-3.2-1.4c-1.2-0.2-0.8-1.1-0.3-1.9c0.1-0.1,0.2-0.1,0.3-0.2c0.6,1,2,0.8,2.7,1.9
			c0.2,0.4,0.7,0,1-0.2c0.8-0.6,1.8-0.8,2.7-1.1c0.5-0.2,1.1-0.2,1.7,0.2c1.3,1,2.4,1,3.5,0.1c0.9-0.7,1.5-1.1,2.5,0.2
			c0.5,0.6,2,0.4,2.8,1.2c1.1,0.4,1.8,1.4,3,1.4c0.6,0,0.5,0.6,0.7,1c0.7,1.3,2,2.1,3.3,2c2.4-0.3,3.6,1.5,5.3,2.4
			C89.6,42.1,90,42.9,90.6,43.5z"/>
		<path class="st7" d="M62.8,130.3c-0.9-0.6-2-0.7-3-0.6c-1.5,0.2-1.6,0.2-2-1c-0.5-1.7-0.8-1.9-2.4-1c-0.7,0.4-1.3,1-2.2,0.4
			c-1-0.8-2.3-1.4-2.2-2.9c0.1-1.8-0.2-3.3-1.6-4.4c-0.7-0.6-0.3-1.4-0.2-2.1c1.9,1.6,3.1,3.7,4.6,5.7c0.1,0.1,0.3,0.3,0.4,0.4
			c0.5,0.4,1,0.5,1.6,0.3c0.2,0,0.4-0.1,0.6-0.1c1.3,0,2.5,0.2,3.5-1.2c0.8-1.2,1.7-0.7,2.2,1.4c-0.1,1.2,0.5,2.1,1.1,3.1
			C63.5,128.8,64.4,129.8,62.8,130.3z"/>
		<path class="st8" d="M83.8,114.4c0.7,0.6,1.6,0.8,2.5,0.9c0.4,0,0.8,0,1.1,0.1c0.8,0.3,2.1,4.1,1.6,4.8c-0.5,0.7-1,0.6-1.1-0.3
			c0.5-1.6-0.7-1.5-1.8-1.9c0.3,1.2,2.6,0,1.8,1.9c-0.3,0.2-0.4,0.6-0.5,1c-0.1,0.9-0.6,0.9-1.3,0.6c-0.5-0.3-0.8-1.2-1.7-0.6
			c-0.7,0.5-1.6,0.8-1.6,2c0,0.2-0.3,0.5-0.4,0.8c-0.8-0.9-0.8-2.2-0.1-2.6c1.5-1,0.5-1.9,0.4-2.9C82.5,116.7,81.3,115,83.8,114.4z"
			/>
		<path class="st9" d="M42.8,105.3c-0.9-0.4-1.7-0.7-1.8-2c-0.1-0.8-0.9-1.7-2.1-1.6c-0.4,0-0.7-0.1-1.1-0.3
			c-0.5-0.3-0.5-0.8,0.2-1.1c0.4-0.2,0.5-0.3,0.2-0.6c-0.8-0.8,0.1-1.3,0.4-1.9c-0.3-0.9-1.4-0.3-1.7-1c0.7-0.7,1.6-0.6,2.4-0.5
			c1.3,0.4,2.2,1.2,3.1,2.2c0.3,1.5,0.4,3,1.1,4.4C43.6,103.7,43.5,104.6,42.8,105.3z"/>
		<path class="st10" d="M39.6,96.7c-0.9,0-1.8,0-2.7,0c-1.3-0.6-1.6-2-2.1-3c-0.5-1.1-1.2-1.8-2.2-2c-1.1-0.2-1.6-0.7-1.9-1.7
			c-0.2-0.7-0.5-1.4-1.1-1.9c-0.1-0.2-0.3-0.3-0.5-0.4c-0.5,0-0.9,0-1.4,0c-0.6-0.6-1.4-0.9-2-1.5c-0.6-0.7-1.1-1.5-0.1-2.3
			c1.9,1.2,3.7,2.4,5.6,3.5c1.1,1.8,2.2,3.6,4.4,4.4c1.2,0.4,1.1,2,1.8,3c0.2,1.2,1.9,0.6,2.1,1.7C39.7,96.5,39.7,96.6,39.6,96.7z"
			/>
		<path class="st11" d="M62.8,130.3c0.9-1,0.1-1.7-0.4-2.3c-0.8-0.9-1.1-1.9-0.9-3.1c0.2-0.1,0.4-0.1,0.6,0c0.5,0.8,0.7,1.7,1.4,2.3
			c0.2,0.2,0.4,0.5,0.6,0.8c0.2,0.4,0.4,0.8,0.5,1.2c-0.1,2.6-0.4,5.2-2.2,7.2c-1.8,2-4,3.5-5.6,5.7c-0.2,0.3-0.6,0.4-1,0.2
			c-0.1-0.1-0.2-0.2-0.2-0.3c0-0.1,0-0.2,0.1-0.2c0.6-1.3,2-2.1,2.3-3.6c1-1.8,1.6-3.8,3.6-4.9c0.8-0.5,0.4-1.7,1-2.4l0,0
			C62.5,130.7,62.7,130.5,62.8,130.3L62.8,130.3z"/>
		<path class="st12" d="M48.7,118.1c-0.8-0.8-0.5-1.8-0.6-2.8c-0.1-1.7-0.1-3.2-2.1-3.9c-1.1-0.4-1.6-1.6-1.4-2.8
			c0.2-0.3,0.5-0.4,0.9-0.5c3.3-0.4,5.3,2.7,4.1,6.3C49.1,115.5,49.8,117,48.7,118.1z"/>
		<path class="st13" d="M71.5,162.2c-0.1,0-0.3,0.1-0.4,0.1c-2.4,0.2-2.2-1.8-2.8-3.2c-1.3,0-2.5,0.1-3.8,0.8
			c-2.3,1.4-3.3,1.1-4.7-0.5c-0.3-0.4-0.7-0.8-1-1.2c0.2-0.2,0.3-0.3,0.6-0.3c1.7,0.5,3.4,0.2,5.1-0.3c0.3,0-0.1,0,0.2,0
			c3.4-0.5,6,0.3,7,4C71.6,161.7,71.6,162,71.5,162.2z"/>
		<path class="st14" d="M80.6,129.4c0.3,1.2,0.2,2.4,0,3.7c-1.2,0.7-2.2,1.7-2.9,2.9c-0.1,0.1-0.2,0.2-0.3,0.3
			c-1.9,2.2-1.9,2.2-4.4,0.9c-0.6-0.2-1.4-0.1-1.5-0.9c1.8-1,4.1-1,5.3-3c0.8-1.3,1.8-2.4,2.7-3.6c0.1-0.2,0.3-0.3,0.5-0.5
			C80.2,129.3,80.4,129.3,80.6,129.4z"/>
		<path class="st15" d="M71.5,161.7c-0.9-0.4-1.5-1.1-1.6-2c-0.1-1.4-1-1.6-2.2-1.6c-1.2,0-2.4,0-3.6,0c-0.4-1.4,0.6-1.3,1.4-1.2
			c2.4,0.3,5.1-0.3,6.9,2c0.3,0.4,0.8,0.3,1.3,0.2c0.3-0.1,0.6-0.3,0.8-0.4c0.2-0.1,0.4-0.1,0.6-0.2c0.9-0.1,1.8-0.1,2.7,0.4
			c0,0.2,0,0.4,0,0.5c0,0.1,0,0.2-0.1,0.3c-1.4,0.7-3.1,0.8-4.5,1.4c-0.4,0.2-0.9,0.3-1.3,0.5C71.8,161.9,71.6,161.9,71.5,161.7z"/>
		<path class="st16" d="M83.8,114.4c-1,0.5-1,1.4-0.8,2.3c0.1,0.7,0.4,1.3,0.6,1.9c0.2,0.7,0.6,1.4-0.5,2c-1,0.6-0.7,1.9-0.7,2.9
			c0,1.2,0.5,2.5,0,3.7c-0.7-0.2-0.9-0.8-1.1-1.5c-0.1-3.3,0-6.7,0.1-10c0-1.7,0.7-3.1,2.6-3.4c0.3,0,0.5,0.1,0.7,0.3
			C84.4,113.2,83.7,113.6,83.8,114.4z"/>
		<path class="st17" d="M77.4,135.8c0.6-1.4,1.2-2.9,3.2-2.7c-0.6,1.9-1.2,3.9-2.7,5.3c-0.6,0.5-0.7,1.4-1,2.2
			c-0.3,0.8-0.1,1.8-0.8,2.5c-0.2-0.2-0.3-0.3-0.5-0.5c-0.1-0.1-0.2-0.3-0.2-0.5c0-0.3,0-0.6,0-0.8c-0.2-1.3,0.9-2.1,1.2-3.3
			C76.8,137.3,76.8,136.4,77.4,135.8z"/>
		<path class="st18" d="M48.7,118.1c0.2-1.4-0.4-2.8,0.5-4.1c1,0,1.3,0.7,1.4,1.6c-0.3,1.4-0.2,2.7,1.1,3.7c0.1,1,0.7,1.8,1.4,2.5
			c0.6,0.7,1.3,1.5,1,2.6c-0.1,0.2-0.2,0.4-0.4,0.5c-1.4-1.3-2-3.1-3.5-4.2c-0.8-0.5-0.3-1.6-1-2.1C49,118.4,48.9,118.2,48.7,118.1z
			"/>
		<path class="st19" d="M45.6,108.5c-0.3,0-0.6,0-0.9,0c-0.9-0.5-1.4-1.2-1.4-2.3c0-0.4-0.1-0.7-0.4-0.9c-0.2-1,0.3-1.8,0.4-2.7
			c0.3-0.3,0.7-0.3,1.1-0.1C45.9,104.3,46.9,106.2,45.6,108.5z"/>
		<path class="st20" d="M86,104.9c-1.7,1.1-1.9,2.7-1.3,4.5c-0.1,0.1-0.2,0.1-0.3,0.2c-2.1-0.7-2.5-1.4-1.5-3.2
			c0.4-0.8,0.8-1.6,1.2-2.4c1-1.3,2.7-2.2,2.9-4.2c0.1-0.2,0.3-0.3,0.5-0.4c0.1,0.3,0.3,0.7,0.4,1c0.6,1.3,0.2,2.4-0.9,3.2l0,0
			C86.6,103.9,86.5,104.5,86,104.9z"/>
		<path class="st21" d="M25.1,72.2c0.2,0,0.3,0,0.5,0c1.8,0.1,2.6,0.9,2.4,2.9c-0.2,1.8-0.1,3.7-0.3,5.6c-0.6,0.9-0.4,2.2-1.4,2.9
			c-0.1,0-0.2-0.1-0.3-0.1c-0.4-0.8,0-1.6,0.2-2.4C26.8,78,26.4,75,25.1,72.2z"/>
		<path class="st22" d="M59.2,158.1c-0.2,0-0.4,0-0.6,0c-1.2-0.4-2.5-0.7-3.5-1.5c-1.3-1.1-1.9-2.3-1.2-4c0.2-0.4,0.2-0.9,0.3-1.3
			c0.3-0.5,0.6-0.9,1.3-0.5c0.1,0.1,0.2,0.3,0.2,0.4c0,2.7,0.4,5.2,3.4,6.3C59.3,157.5,59.3,157.8,59.2,158.1z"/>
		<path class="st23" d="M62.4,130.8c0.2,1.4-0.2,2.6-1.4,3.3c-1.6,1-1.7,3-3.2,4c0.3-1.1,0.6-2.3,0.9-3.4c0.3-0.9,1.6-1,1.8-2.1
			c0.4,0.1,0.8,0.4,1-0.4C61.6,131.7,61.9,131.1,62.4,130.8z"/>
		<path class="st24" d="M55.6,141.8c0,0.1,0,0.3,0,0.4c-0.1,2.1-0.3,4.1-0.3,6.2c-1.5,0.1-1.1-1.6-1.9-2.2c0.2-1.1,0-2.3,0.5-3.4
			C54.2,142,54.7,141.6,55.6,141.8z"/>
		<path class="st21" d="M26,84c-1,0.9-0.2,1.5,0.5,2c0.6,0.5,1.4,0.7,1.3,1.6c-1.2-0.1-2.5,0.4-3.1-1.3c-0.5-1.5-0.5-1.9,1.2-2.8
			c0,0,0.1,0.1,0.1,0.1C26.2,83.7,26.1,83.8,26,84z"/>
		<path class="st25" d="M86,97.6c1.2-1.8,2.8-2.8,5-2.7c-0.2,0.2-0.3,0.3-0.5,0.5c-0.6,0.6-1.8,0.6-2.1,1.1
			c-0.3,0.7-0.7,1.4-1.1,2.1c-0.1,0.1-0.3,0.1-0.4,0.1c-0.2-0.1-0.4-0.2-0.6-0.4C86.2,98,86,97.9,86,97.6z"/>
		<path class="st26" d="M53.3,146.2c1.1,0.4,1.1,1.6,1.8,2.3c0.1,0,0.2,0,0.3,0c0.5,0.2,0.9,0.5,0.9,1.1c0,0.2,0,0.4-0.1,0.6
			c-0.1,0.2-0.2,0.3-0.4,0.5c-0.1,0-0.2,0.1-0.3,0.1c-0.5,0-0.9,0.3-1.3,0.5C54.2,149.6,53.8,147.9,53.3,146.2z"/>
		<path class="st6" d="M99.7,75.3c0-1.2-0.1-2.4,0.6-3.5c0.4-0.6,0.1-1.1,0-1.7c-0.2-1.4-0.6-2.9,0.3-4.3c-0.2,1.3,0.4,2.4,0.5,3.6
			c0.1,0.1,0.1,0.2,0.1,0.3c0,0.1-0.1,0.2-0.1,0.2c0,0.3,0,0.6,0,0.9c0.3,0.5,0.3,0.9,0,1.4C99.8,72.9,100.5,74.4,99.7,75.3z"/>
		<path class="st27" d="M68.2,159c0.4,0,0.9,0.1,0.8,0.5c-0.3,1.6,0.7,2.2,1.9,2.7c-0.8,0.6-1.6,0-2.2-0.4c-0.4-0.3-0.9-0.5-1.3-0.8
			C67.3,160.2,68.5,159.8,68.2,159z"/>
		<path class="st28" d="M73.3,161.3c0.2-0.2,0.6-0.3,0.7-0.5c1.1-1.2,2.4-1.1,3.8-0.9C76.7,161.7,74.9,161.2,73.3,161.3z"/>
		<path class="st29" d="M86.9,103.5c0.5-1,0.9-2.1,0.9-3.2c0.6,0.5,1.5,0.8,1.1,1.9C88.6,103.1,88,103.6,86.9,103.5z"/>
		<path class="st30" d="M81.9,125.8c0,0.6,0.3,1,0.5,1.5c-0.7,0.6-1.9,0.9-1.9,2.2c-0.2,0-0.3,0-0.5-0.1c-0.3-0.2-0.3-0.5-0.4-0.8
			c0.1-1,0.5-1.8,1.1-2.5c0.1-0.2,0.3-0.3,0.5-0.4C81.6,125.6,81.7,125.6,81.9,125.8z"/>
		<path class="st6" d="M54.2,32.6c1.1,0,2.1,0,3.1-0.3c0.8-0.2,1.6-0.4,2.3,0.3l-0.1,0.1c-1.8,0.8-3.6,1.4-5.6,0.6
			c-0.1-0.1-0.2-0.2-0.3-0.3C53.8,32.9,54,32.7,54.2,32.6z"/>
		<path class="st20" d="M84.7,112.6c-0.2,0-0.4,0-0.6,0c-0.7-1.2,0.1-2.1,0.4-3.1l0.2-0.1C85.9,110.9,85.9,111.1,84.7,112.6z"/>
		<path class="st29" d="M86,104.9c0-0.6,0.3-1.1,0.9-1.4C86.9,104.2,86.9,104.8,86,104.9z"/>
		<path class="st1" d="M101,72.1c0-0.5,0-0.9,0-1.4C101.6,71.2,101.6,71.7,101,72.1z"/>
		<path class="st2" d="M52.9,33.6c0-0.2,0-0.4,0-0.5c0.3,0,0.6,0,0.9,0c0,0,0.1,0.1,0.1,0.1C53.7,33.7,53.4,33.8,52.9,33.6z"/>
		<path class="st20" d="M87,98.5c0.1,0,0.3,0,0.4,0.1c0,0.3,0.1,0.5,0.1,0.8c-0.1,0-0.1,0.1-0.2,0.1c-0.4,0-0.5-0.2-0.6-0.5
			c0-0.1,0-0.2,0-0.3C86.8,98.6,86.9,98.6,87,98.5z"/>
		<path class="st25" d="M91.9,94.4c0.3,0,0.6,0,0.9,0C92.5,94.9,92.2,94.9,91.9,94.4z"/>
		<path class="st21" d="M29.2,87.6c0.2,0.1,0.3,0.3,0.5,0.4C29.5,87.9,29.3,87.8,29.2,87.6z"/>
		<path class="st25" d="M91,94.9c0.2-0.2,0.3-0.3,0.5-0.5C91.3,94.6,91.2,94.7,91,94.9z"/>
		<path class="st1" d="M101,69.9c0-0.2,0-0.3,0-0.5C101.3,69.6,101.3,69.7,101,69.9z"/>
		<path class="st7" d="M62.8,130.4c-0.1,0.2-0.3,0.3-0.4,0.5C62.5,130.7,62.7,130.5,62.8,130.4z"/>
		<polygon class="st23" points="60.6,132.6 60.4,132.5 60.5,132.4 		"/>
		<path class="st27" d="M71.5,161.7c0.2,0,0.3,0,0.5,0.1c-0.2,0.1-0.3,0.3-0.5,0.4C71.5,162,71.5,161.9,71.5,161.7z"/>
		<path class="st31" d="M27.3,80.7c-0.1-0.7-0.4-1.4-0.1-2.2c0.6-1.4-0.7-3.1,0.4-4.5c0.2-0.2-0.1-0.6-0.4-0.7
			c-0.5-0.4-1.1-0.8-1.7-1.1c-0.6-1.9-0.5-4,0.4-5.5c0.9-1.5,0.7-2.5,0.2-3.8c-0.6-1.6,0.2-3,1.2-4.3c0.9,1,1.2,2.6,3,2.6
			c0.7,0,0.7,1.1,0.7,1.7c-0.2,0.3-0.4,0.6-0.3,1c0.1-0.3,0.1-0.7,0.3-0.9c0.1-0.3,0.1-0.8,0.4-0.8c2,0.1,2.8-2,4.5-2.5
			c0.5-3,3-2.5,5.1-2.9c2-0.5,4-1.3,6-1.7c1.7-0.1,3.1-0.7,3.8-2.5c0.3-0.8,0.9-1.7,2.2-1.3c-0.1,2.6-1.3,4.3-3.6,5
			c-0.7,0.2-1.4,0.4-2.1,0.7c-0.4,0.1-0.8,0.2-1.2,0.3c-0.2,0.1-0.4,0.1-0.5,0.2c-0.1,0-0.2,0.1-0.2,0.1c-0.1,0.1-0.3,0.2-0.5,0.3
			c-0.1,0.1-0.3,0.2-0.5,0.3c-0.1,0.1-0.3,0.2-0.4,0.4c-0.1,0.1-0.1,0.1-0.2,0.2c-0.1,0.2-0.2,0.3-0.4,0.5c-3.6,2-4.4,5.4-4.7,9
			c-0.1,1.1-0.5,1.8-2.2,2.2c1.4,0,2.3-0.2,3.1,0.2c1,0.6,0.7,1.5,0.7,2.4c0,1.1,1.1,1.3,1.8,1.8c0.2,0.1,0.4,0.2,0.5,0.4
			c0.2,0.2,0.4,0.5,0.5,0.8c0.7,2.7-1.5,4.3-2.3,6.4c-0.2,0.4-0.7,0.6-1.1,0.2c-0.3-0.3-0.2-1.4-1-0.8c-0.9,0.6-1,1.8-1.1,2.9
			c-0.1,0.8,0.5,0.7,1,0.9c0.9,0.3,2,0.6,1.9,1.6c-0.1,1.2-1.3,1.3-2.3,1.3c-1.4,0.1-2.8,0.3-3.9-0.9c-0.4-0.4-1-0.2-1.5-0.2
			c-2.1,0.1-2.6-0.7-2.2-2.9c0.4-0.2,0.7-0.1,1.1,0c2.1,0.6,3.7-0.8,3.1-2.9c-0.4-1.5-0.5-2.5,1.3-2.8c1.2-0.2,1.1-1,0.6-1.8
			c-0.4-0.7-0.9-1.4-1.2-2.2c-0.3-0.9-0.5-1.7,0.4-2.4c-3.2-0.3-6.3,2.1-7.4,5.7c-0.3,1.8-0.1,3.4,1.6,4.5c0.3,0.6,0.5,1.2-0.1,1.7
			C27.3,84.4,26.6,83.5,27.3,80.7z"/>
		<path class="st32" d="M31,63.1c-0.5-1-0.6-2.3-2.3-1.5c-0.4,0.2-0.7-0.3-0.8-0.6c-0.2-0.8-0.7-1.5-0.6-2.4l0,0
			c1.3-0.6,1.2-2.3,2.4-2.9c0.1,0.1,0.3,0.2,0.4,0.2c2.8,0.2,2.9,0.2,2,3.1c0.1,0.2-0.2,0.3-0.2,0.5c0.2-0.1,0-0.3,0.2-0.4
			c2.7-3.2,5.1-6.8,10.2-5.8c1.9,0.4,3.8-0.6,5.9-0.9c-0.9-1.6-2.8-2.3-2.7-4.3c-1.9,0.5-3.9-0.8-5.7,0.7c-0.8,0.6-1.7,0.9-2.6,1.4
			c-0.5,0.3-1.1,0.6-1.7,0.4c-0.1-0.1-0.2-0.2-0.1-0.4c0-0.1,0.1-0.2,0.1-0.2c0.3-0.6,0.8-1.2,1.4-1.5c0.9-0.4,1.4-1,1.7-1.9
			c0.3-0.7,0.5-1.5,1.6-0.7c0.4,0.3,0.7-0.3,0.7-0.6c0-1,0.5-1.9,0.4-2.9c-0.1-1.7,0.3-2,2.2-2.3c0.5-0.1,0.9-0.2,1.1-0.7
			c0.4,0.1,0.9,0.2,1.3,0.2c0.8-0.1,1.9,0,1.7-1.4c0-0.2,0.4-0.4,0.6-0.6c0.7,0.5,0.6,1.4,1.1,2.1c0.1,0.2,0.1,0.4,0.1,0.6
			c0,0.2-0.1,0.4-0.3,0.5c-0.1,0.2-0.3,0.3-0.5,0.4c-0.3,0.2-0.5,0.3-0.8,0.5c-0.4,0.2-0.8,0.4-1.2,0.3c-1.3-0.8-2.2-0.6-3,1.2
			c3.1-1.1,5.3,0.9,7.7,1.7c0.2,0.1,0.4,0.2,0.5,0.4c0.3,0.2,0.6,0.6,0.9,0.6c4-0.3,7.8,1.5,11.7,1.1c0.2,0,0.4-0.1,0.6-0.3
			c0.2-0.1,0.4-0.2,0.6-0.2c0.3,0,0.6,0.2,0.8,0.4c0.1,0.1,0.3,0.3,0.4,0.4c0.3,0.2,0.6,0.4,0.9,0.6c0.1,0.1,0.3,0.2,0.4,0.4
			c0.1,0.1,0.2,0.3,0.3,0.4c0.1,0.1,0.1,0.1,0.2,0.2c0.1,0.1,0.2,0.3,0.4,0.4c0.1,0.1,0.1,0.2,0.2,0.2c0.2,0.3,0.2,0.6,0.2,0.9
			c-0.1,0.2-0.2,0.4-0.4,0.5c-0.2,0-0.4,0-0.6-0.1c-4.3-2.2-8.6-2.9-13.4-1.2c-2.2,0.8-3.6,1.9-4.4,4c-0.6,1.7-2.6,1.3-3.7,2.3
			c-0.1,0-0.2-0.1-0.2-0.1c-1.8,0.6-3.8,0.7-5.6,1.7c-0.9,0.5-1.6,0.9-2.6,0.1c-0.8-0.6-1.2-0.4-1.3,0.8c0,0.5-0.3,1-0.4,1.5
			c0,0.2-0.3,0.6-0.3,0.6c-1.7-0.8-1.6,0.8-2.2,1.5c-0.4,0.4-1.2,0.8-1.9,0.5C31.7,62,31.5,62.8,31,63.1L31,63.1z"/>
		<path class="st33" d="M30.1,55.8c-0.4,0.1-0.9,0.2-0.8,0.6c0.2,1.5-0.9,1.7-1.9,2.2c0.9-1.9,1.6-3.9,3.6-5
			c0.3-0.2,0.6-0.3,0.9-0.1c0.7,1.1-0.4,1.5-0.9,2.1c-0.2,0.1-0.4,0.2-0.6,0.3C30.3,55.8,30.2,55.8,30.1,55.8z"/>
		<path class="st34" d="M31.9,53.5c-0.3,0-0.6,0-0.9,0c1-1.1,2.4-1.8,3.2-3.1c0.2-0.4,0.9-0.5,1.4-0.6c0,0.2,0,0.3,0,0.5
			C34.9,52,33.8,53.3,31.9,53.5z"/>
		<path class="st6" d="M99.2,75.3c0.1,0,0.3,0,0.4,0c0.1,0.9-0.2,1.8,0.2,2.7c0.3,0.6,0.1,1.1-0.2,1.7c-0.9,1.4-0.6,2.5,1,3.3
			c0.3,0.1,0.6,0.1,0.5,0.5c-0.1,0.4-0.3,0.6-0.8,0.5c-0.5-0.1-1-0.1-1.5,0c-0.4,0-0.8,0.2-1.3,0.3c0.5,0.8,1.5,0.2,1.9,1.2
			c-1.1,0.4-2.2,0.8-2.1,2.2c0,0.1,0,0.4-0.1,0.4c-1.2,0.3-1.8,1-1.8,2.2c0,1.2-1.5,1.3-1.8,2.4c-0.2,0.7-1,1.3-1.8,1.1
			c-2.5-0.5-4,1.5-6.1,2.1c-0.7,0.2,0,0.9-0.1,1.4c-0.1,0.1-0.2,0.1-0.2,0.2c-2,0.4-2.7-1.2-3.7-2.4c-0.3-0.3-0.6-0.5-0.9-0.9
			c-0.3-0.4-0.6-0.9-0.5-1.4c0.1-1.3-0.2-2.1-1.7-2.2c-1.7-0.1-1.4,1.2-1.7,2c-0.1,0.2-0.1,0.4-0.2,0.6c-0.1,0.2-0.1,0.4-0.2,0.6
			c-0.1,0.2-0.2,0.4-0.3,0.5c-0.1,0.2-0.3,0.3-0.4,0.5c-0.5,0.3-0.9,0.5-1.5,0.4c-1.5-0.4-2-1.4-1.7-2.9c0.2-0.9,0.3-1.7-0.2-2.6
			c-0.7-1.1,0-1.3,1-1.2c2.1,0.2,2.2,0,1.9-2.2c-0.1-0.5-0.3-1.3,0.4-1.3c1.4,0.1,1.2-2.7,2.3-1.6c0.9,0.9,2,0.8,2.7,1.5
			c-1.4-2.3-1.4-2.3,1.1-4.1c0.6-0.2,1.1,0,1.6,0.2c1.6,1.1,3.7,1.4,4.9,3.1c0.5,0.7,1.4,0.6,2.1,0.3c1.7-0.6,3.5-1.1,4.8-2.4
			c1.4-0.9,2.4-2.1,2.7-3.8C96.8,76.8,97.4,75.7,99.2,75.3z"/>
		<path class="st20" d="M86,97.6c0.2,0.2,0.3,0.3,0.5,0.5c-0.1,0.1-0.2,0.1-0.2,0.2c-0.2,0-0.4,0-0.6-0.1c-0.1-0.1-0.2-0.2-0.2-0.3
			c0-0.1,0-0.2,0-0.2c0,0,0-0.2,0-0.2C85.7,97.5,85.9,97.6,86,97.6z"/>
		<path class="st35" d="M97.8,57.6c0.3,0.8,0.6,1.5,0.9,2.3c0.2,1.8,0.9,3.5-0.3,5.3c-0.9,1.4,0.1,3,0.3,4.5c0.1,1,0.2,1.9,0,2.9
			c0,0.2,0,0.3,0,0.5c-1.2,2.4-2.9,4.5-4.5,6.6c-1.1,1.4-3.2,1.8-5.2,1.8c-0.2,0-0.4,0-0.6,0.1c-0.2,0-0.4-0.1-0.6-0.2
			c-0.7-0.9-1.2-1.9-1.3-3c-0.1-0.7-0.2-1.7,1.1-1.6c0.2,0.1,0.3,0.2,0.4,0.4c0.7-1.5,0.7-1.6-0.4-2.3c-1.3-0.9-1.4-2.3-1.5-3.7
			c0.2-0.8,0.6-1.1,1.4-1c-1.1-0.3-1.8-1-2.2-2.2c-0.1-0.5-0.6-0.9-1.1-1c-1.8-0.4-2.2-1.6-2.1-3.2c0.3-0.6,0.7-0.9,1.4-0.7
			c-0.1-1.5,0.9,2.6,0.6-0.1c0-0.4,0.6-0.7,0.8-0.5c1.4,1.1,4.2-0.5,4.4,2.5c0.9-0.4,1-1.5,2-1.6c0.2-0.1,0.4,0.4,0.6,0.1
			c-0.1-0.1-0.2-0.2-0.1-0.4c1.6-0.9,1.7-2.3,0.9-3.6c-0.9-1.4,0.6-3.1-0.7-4.4c0-0.8-0.1-1.4-1.2-1.2C90,54,89,53.4,89.6,52.7
			c1.3-1.5,0-2.4-0.2-3.6c0-0.2,0.1-0.4,0.2-0.6c0.2-0.1,0.4-0.1,0.6,0l0,0c2,1,4.2,1.6,6.4,2.1C95.8,53.2,95.9,55.6,97.8,57.6z"/>
		<path class="st35" d="M69.6,35.7c0.4-0.5,1-0.5,1.4-0.2c1,0.7,2.3,0.6,3.3,1.3c0.7,0.5,1.6,0.4,2.4,0c0.9-0.4,1.4-0.1,2,0.5
			c0.8,0.7,1.5,1.5,2.3,2.1c0.5,0.4,1.1,0.6,1.6,0.6c1.1-0.1,2.1-0.3,2.7,0.9c2.1-0.2,3.1,1.6,4.6,2.4c-0.4,1.3-0.5,2.7-0.4,4.1
			c0.2,0.3,0.3,0.6,0,0.9l0,0c-1.2,0-1.3-1.1-1.3-1.8c0.2-2.7-1.7-3.4-3.6-4.1c-0.4-0.1-0.8-0.3-1.1-0.6c-0.4-0.5-0.9-0.7-1.5-0.7
			c-1.6,0-2.9-0.5-4.1-1.5c-1.1-1-2.6-1-4-1.5c-0.2,0-0.4-0.1-0.6-0.2c-0.6-0.6-1.4-0.8-2.1-1C70.6,36.8,69.6,36.9,69.6,35.7z"/>
		<path class="st36" d="M88.7,80.8c1.3,0,2.5-0.1,3.8-1c2.4-1.7,2.4-1.4,3.2-3.6c0.3-0.7,0.4-1.1,1.3-1.2c0.9-0.1,0.7-1.6,1.7-1.9
			c-0.1,0.8,0.4,1.5,0.5,2.3c-0.2,0.2-0.3,0.5-0.5,0.7c-1.3,1-1.3,1-0.4,2.5c-1.1,0.7-1.9,1.8-2.9,2.7c-0.8,1.2-1.9,2.1-3.4,1.3
			c-1.2-0.6-2.7,0.4-3.9-0.6c0-0.2,0-0.4,0.2-0.6C88.4,81.1,88.6,81,88.7,80.8z"/>
		<path class="st36" d="M98.8,72.6c-0.5-0.4-0.5-0.9-0.4-1.4c0.3-0.9,0.2-2.1-0.2-2.6c-1.5-1.9-0.2-3.3,0.6-4.8
			c0.3-0.5,0.1-0.8,0.1-1.3c0.1-0.9-0.5-1.8-0.1-2.6c0.7,1.7,1.6,3.3,0.3,5.1c0,0.1-0.1,0.2-0.1,0.2c1.2,1.8-0.5,3.8,0.5,5.6
			C99.9,71.6,99.6,72.2,98.8,72.6z"/>
		<path class="st36" d="M96.5,50.8c-1.3,0.2-2.5-0.4-3.7-0.2c-0.5,0.1-0.8-0.1-0.9-0.5c-0.3-0.9-1.2-1.1-1.7-1.6c1,0,1.9,0,2.9-0.3
			c2.4-0.8,3.5,0,3.9,2.5C96.8,50.9,96.6,50.9,96.5,50.8z"/>
		<path class="st36" d="M96.5,50.8c0.2,0,0.3,0,0.5,0c1.3,0.8-1,1.7,0,2.4c0.9,0.6,1,1.3,0.6,2.3c-0.2,0.7-0.1,1.4,0.2,2.1
			c-1.6-0.3-1.8-1.8-2.2-2.9c-0.3-0.6-0.1-1.4-0.3-2.2C95,51.6,96.4,51.5,96.5,50.8z"/>
		<path class="st36" d="M89.7,48.5c0-0.3,0-0.6,0-0.9c0.4,0.2,0.4,0.5,0.5,0.9l-0.2,0H89.7z"/>
		<path class="st37" d="M49.2,39.9c-1.1-0.5-0.9-1.5-0.9-2.4c0.3-1.1,1.2-1.6,2.2-1.6c2.2-0.2,2.2-0.2,2.5-2.3
			c0.4-0.1,0.7-0.2,0.9-0.5c1.9-0.1,3.8-0.3,5.8-0.4c0.2,0.5-1.2,1.9,0.9,1.5c0.9-0.2,1.5,1.1,2.4,1.5c0.2,0.1,0.2,0.3,0.2,0.5
			c-0.1,0.2-0.2,0.3-0.4,0.4c-0.2,0.1-0.3,0.2-0.5,0.3c-0.1,0-0.2,0.1-0.3,0.1c-0.2,0.1-0.4,0.1-0.6,0.1c-0.2,0-0.4,0-0.6-0.1
			c-0.2-0.1-0.3-0.2-0.4-0.3c-0.2-0.3-0.3-0.6-0.6-0.8c-0.1-0.1-0.2-0.2-0.4-0.3c-0.3-0.2-0.6-0.2-0.9-0.4c-0.2-0.1-0.3-0.2-0.4-0.3
			c-0.1-0.1-0.3-0.3-0.4-0.4c-1.4-0.3-2.8-0.8-3,1.5c0,0.6-0.7,1.2-1.1,1.6C51.4,37.2,50.8,39.5,49.2,39.9z"/>
		<path class="st38" d="M56,150.3c0-0.1,0-0.3,0-0.4c0.6-1.1-0.3-1.1-0.9-1.4c0,0,0,0,0,0c0-0.4,0.1-0.8-0.1-1.1
			c-1.1-1.9-0.1-3.5,0.5-5.2c1.2-0.6,2-1.5,2.5-2.7c0.3-0.8,0.6-1.6,1.9-1.6c0.8,0,1.5-1,1.9-1.7c0.9-1.5,2-3,1.9-5
			c-0.1-0.8,0.4-1.4,0.4-2.2c0.1-0.1,0.1-0.1,0.2-0.2c0.1,0,0.2,0,0.3,0c0.1,0,0.2,0.1,0.3,0.1c0.2,0.1,0.3,0.2,0.4,0.4
			c0.1,0.1,0.1,0.1,0.2,0.2c0.2,0.2,0.3,0.5,0.3,0.8c0,1,0.3,1.9,0.6,2.8c0.8,2.3,2.5,2.9,4.7,2.9c0.1,0.1,0.1,0.1,0.2,0.2
			c0.5,0.6,1.2,0.4,1.8,0.5c0.9,1.3,1.9,2.4,3.6,1.4c0,0.8-0.4,1.4-0.9,2c-0.5,0.6-0.3,1.1,0,1.6c-0.1,0.2-0.3,0.3-0.4,0.5
			c0,0.2,0,0.3,0,0.5c-0.1,0.8-0.5,1.6-0.5,2.4c0.1,1.2,0.1,1.2,1.7,1.6c-0.2,1.7-1.5,2.7-2.3,4c-0.2,0.3-0.6,0.5-1,0.5
			c-0.5,0-0.9,0.1-1.3,0.4c-0.4,0.4-1,0.7-0.9,1.2c0.2,0.8,0.9,0.6,1.5,0.6c0.3-0.2,0.6-0.4,0.9-0.7c0.6-0.7,1.4-0.9,2.2-0.5
			c1.1,0.5,0.5,1.4,0.4,2.2c0,0.3-0.1,0.6,0,1c0.5,0.3,1.2,0.2,1.9,0.2c0.5,0,1.1,0,1.2,0.7c0.1,0.6-0.3,1-0.8,1.2
			c-1.2,0.3-2.3,1-3.5,1.4c-0.2,0-0.3,0-0.5,0c-0.1,0.2-0.3,0.3-0.5,0.4c-0.6,0.5-0.9,1.5-2,0.1c-1.1-1.5-2.9-2.4-5-1.9
			c-0.7,0.1-1.3-0.1-2-0.3c-0.7-0.2-1,0.1-1.1,0.8c-1.7,0.5-3.3,1.1-5,0c-0.9-0.9-2.1-1.2-3.1-1.8c-0.8-0.4-1.2-0.9-0.8-1.8
			c0.3-0.7,0.3-1.3,0-2c-0.3-0.6,0-1.2,0.3-1.7h0C55.7,150.7,55.9,150.5,56,150.3z"/>
		<path class="st39" d="M75.1,159c0.9-1,1.9-2,3.4-1.9c0.4,0,0.7-0.3,0.6-0.7c-0.1-0.5-0.5-0.2-0.7,0c-0.5,0.3-0.9,0-1.3-0.2
			c-0.5-0.2-0.8,0.4-1.2,0.3c-0.6-1.3,0.1-2.4,0.3-3.6c-1.4-0.9-2.2,0.6-3.3,0.6c0.6-1,1.2-1.8,2.5-2.1c0.7-0.2,1.6-0.6,1.6-1.7
			c0-0.1,0.1-0.3,0.1-0.4c0.8,0.7,1.5,0.1,2.3,0.1c0.8-0.1,2.2,0.8,2.1,1.7c-0.1,1.8,0.6,3.7-0.4,5.3c-0.6,1-1.5,1.9-2.8,2.1
			c-0.1,0.2-0.3,0.3-0.5,0.5h0C76.9,159.5,76,158.8,75.1,159z"/>
		<path class="st15" d="M77.8,159c0.2-0.2,0.3-0.3,0.5-0.5C78.1,158.7,78,158.8,77.8,159z"/>
		<path class="st40" d="M62.8,36.2c0-0.2,0-0.4,0-0.6c0.1-0.1,0.3-0.2,0.4-0.3c1.9-0.5,3.6,0.2,5.4,0.7c1.2,0.4,0.9,1.6,0.9,2.6
			c1.3-2.2,1.6-2.2,4.2-0.6l0,0c0.8,0.3,0.7,1,0.9,1.6c0.3,0.7,0.7,1.6,1.5,1.4c1.5-0.4,2,0.6,2.7,1.4c0.2,0.3,0.3,0.6,0.3,0.9
			c0,0.2,0,0.4,0,0.6c-0.3,1.1,0.4,0.6,0.7,0.4c1.4-0.7,2.7-0.6,3.8,0.3c1.9,1.5,1.7,2.8-0.6,3.8c-0.2,0.1-0.4,0.2-0.6,0.3
			c-1,0.3-2.1,0.3-3,0.9c-0.5,0.3-1,0.2-1.5,0.1c-2.8-0.5-2.8-0.5-5.6,1.1c-0.8,0.3-1.6-0.1-2.4-0.2c-0.2-0.1-0.4-0.2-0.5-0.3
			c-0.2-0.5-0.4-0.8-0.9-1l0,0c-0.1-0.2-0.3-0.3-0.5-0.5l0,0c-0.2-0.2-0.3-0.3-0.5-0.5c0-0.2,0-0.3,0-0.5c-0.4-0.4-1-0.1-1.4-0.5
			c0-0.1,0-0.3,0-0.5c-0.1-0.2-0.3-0.3-0.5-0.5c-0.2,0-0.3,0-0.5,0c-0.9,0.4-1.8,0.3-2.8,0.2c-3.1-0.1-6-1.6-9.2-1.2
			c-0.8,0.1-1.5,0.1-2.2-0.4c-0.9-1.2-2.2-1.6-3.5-2.2c-0.6-0.3-1.6-0.3-1-1.5c0.3-0.2,0.6-0.3,0.9-0.5c0,0,0.2,0,0.2,0
			c0.1-0.1,0.2-0.1,0.3-0.2c0.1,0,0.3-0.1,0.4-0.2v0c0.2-0.1,0.3-0.3,0.5-0.5c0-0.2,0-0.3,0-0.5c0.5-0.9,1.3-1.4,1.9-2.2
			c0.7-1,1.4-0.8,2.2-0.1c0.6-0.3,1.3-0.7,1.3,0.5c-0.3,0.3-0.6,0.6-0.9,0.8c-0.4,0.3-0.7,0.7-1.3,0.7c-0.6-0.2-1.1-0.3-1.1,0.6
			c-0.1,0.2-0.2,0.4-0.3,0.5c-0.7,0.6-1.2,1.3,0.1,1.8c3.8,1.4,7.5,2.5,11.6,1.6c1.1-0.2,1.4-0.7,1.3-1.7c-0.2-1.1,0-2.1,0.7-3
			c1.3-1.9,1.3-2-1.2-2.4c-0.2,0-0.4-0.1-0.6-0.2C62.7,36.6,62.7,36.4,62.8,36.2z"/>
		<path class="st41" d="M73.7,38c-0.5,0.1-0.8,0.6-1.4-0.1c-1-1.1-1.7-1-2.1,0.3c-0.4,1.3-0.4,1.3-1.8,0.8c0-0.1,0-0.3,0-0.4
			c0.8-1.7,0.5-2.8-1.2-2.7c-1.4,0-2.7-0.6-4-0.6c0.6-1.1,1.7-1.2,2.5-0.7c1.2,0.8,2.6,0.6,3.9,1.1c0.7,0.7,1.5,0.9,2.4,0.9
			C73,36.7,73.4,37.3,73.7,38z"/>
		<path class="st42" d="M53.7,124.9c0-0.2,0-0.3,0-0.5c3.1-1.4,3.9-4.2,2.1-7.1c-1-1.8,0-2.5,1.6-2.7c0.2,0,0.4,0.1,0.6,0.2
			c1,0.4,0.4,1.8,1.5,2.1c0.2,0.5,0.2,1.1,0.1,1.6c-0.1,0.6-0.4,1.1-0.2,1.7c0.8,3.3,0,4.5-3.3,5.1c-0.2,0-0.3,0-0.5,0
			C54.9,125.3,54.3,125.2,53.7,124.9z"/>
		<path class="st18" d="M56,125.3c1-0.6,2.1-0.8,2.8-2c0.6-1,1.1-1.7,0.1-2.7c-0.7-0.7-0.2-1.5,0.3-2.2c0.2,0.1,0.3,0.3,0.4,0.5
			c0.2,0.8,0.6,1.4,1.3,1.9c0.1,0.1,0.2,0.3,0.3,0.5c-0.1,0.3-0.3,0.6,0.2,0.7c0.2,0.2,0.4,0.4,0.6,0.6c0.4,0.6,0.6,1.3,0.2,2
			c-0.1,0.1-0.2,0.1-0.2,0.2l-0.2,0c0,0-0.2,0-0.2,0c0-0.3,0-0.6-0.1-0.9c-0.2-0.8-1-1.1-1.2-0.3c-0.6,2.3-2.2,1.8-3.8,1.6
			C56.3,125.3,56.2,125.3,56,125.3z"/>
		<path class="st18" d="M53.7,124.9c0.6,0.1,1.3-0.2,1.8,0.5C54.7,126.1,54.3,125.4,53.7,124.9z"/>
		<path class="st43" d="M87.8,119.9c0-0.7-0.4-0.9-1-0.6c-0.6,0.2-1.2,0.3-1.7-0.2c-0.3-0.3-0.1-0.5,0.1-0.8c0.5-0.7,1.1-1,1.9-0.8
			c0.4,0.1,1.5,1.7,1.3,2.2C88.4,119.8,88,119.8,87.8,119.9L87.8,119.9z"/>
		<path class="st10" d="M44.2,102.6c-0.3,0-0.6,0-0.9,0c-1.3-1.1-1.3-2.6-0.9-4.1c0.1,0,0.2-0.1,0.3-0.1c2.2,0.3,1.5,1.9,1.5,3.2
			c0.1,0.2,0.2,0.3,0.2,0.5C44.4,102.3,44.3,102.5,44.2,102.6z"/>
		<path class="st10" d="M42.4,98.5c-1.2-0.1-1.8-1.2-2.7-1.8l0,0c0.3-0.4,0.7-0.6,1.1-0.6c0.8-0.1,1.9-0.6,2.4,0.3
			C43.6,97.1,43,97.9,42.4,98.5L42.4,98.5z"/>
		<path class="st44" d="M42.4,98.5c-0.2-0.8,0.3-1.4,0.7-2.1c-1.2,0.1-2.3,0.2-3.4,0.3c-0.2-0.4-0.5-0.8-1-0.6
			c-1.2,0.4-1.2-0.4-1.2-1.2c0.9-0.7,1.3-1.6,1.9-2.5c0.7-1.2,1.8-1.7,2.9-0.4c1,1.1,3.3,0.8,3.1,3.1c1.5-0.2,3.1,0,4.4-0.9
			c0.9-0.6,1.9-1.3,2.4,0.6c0.2-1.3-1.5-1.6-1.3-2.8c0.2-1.2,1.2-1.4,2.2-1.7c-2.5-0.6-3.1-3-1.8-6.8c0.6-0.3,1.1-0.1,1.4,0.3
			c0.7,1.3,1.8,2.2,2.2,3.7c0.2,2.3,2.3,2.7,3.8,3.5c1.3,0.7,2.2,1.6,2.4,3c1.1,2.1,2.1,4.2,1.8,6.7c0,0.3,0,0.6-0.1,1
			c-0.2,0.7-0.2,1.3-0.3,2c-0.1,0.8-0.4,1.4-1.3,1.6c-0.5,0.1-1.4-0.2-1.2,0.8c0.2,0.8,1,0.4,1.5,0.5c0.5,0.6,1.3,1.2,0.8,2.1
			c-0.5,0.9-1.3,0.3-2,0.2c-0.3,0-0.6,0.2-0.9,0.2c-0.2,0-0.4-0.1-0.5-0.3c-0.5-1.4-1.6-1.6-2.9-1.4c-3.1,0.4-4.9,2.6-4.9,5.7
			c0,1,0.6,2.3-1,2.7c0.2-0.8-0.4-1.3-0.9-1.8c0.7-1.6,0.9-3.1-0.9-4.1c-0.1-0.1-0.3-0.2-0.3-0.3c-0.2-1.9-1.5-1-2.4-1
			c0.4-2.2-0.5-4-1.4-5.9c0-0.2,0-0.3,0-0.5c1.1-0.6,1.2,0.4,1.6,1c0.3,0.5,0.9,1.4,1.2,1.1c0.8-0.6,1.9-1,2.1-2.2
			c0.1-0.7-0.2-1.2-0.9-1.3c-0.8-0.2-1-0.8-1.3-1.4c-0.1-0.2,0.2-0.9-0.5-0.7c-0.4,0.1-1.2-0.2-0.9,0.8c0.3,1.2-0.8,1.9-1.3,2.7
			c-0.8-0.1-1.2-0.7-0.8-1.2C44.3,99.5,43.5,99,42.4,98.5z"/>
		<path class="st45" d="M30.5,84.4c0.1,0.3,0.3,0.5,0.3,0.8c0.3,1.7,0.5,1.9,2.2,1.2c0.9-0.3,1.2,0.2,1.7,0.6
			c0.5,0.4,1.1,1.3,1.3,1.1c1.2-1.2,3.1,0.7,4.1-1.1c-0.9-1-2-1.4-3.6-0.7c0.3-1.4,0.5-2.5,0.7-3.6c0.1-0.3,0.1-0.7,0.3-0.8
			c0.5-0.5,0.9-1.4,1.8-1.3c1.1,0.1,0.4,1.2,0.8,2c0.8-1.5,1.2-2.9,2.3-4c0.8-0.8-0.2-1.9,0.4-2.8c-0.1-0.2-0.3-0.3-0.5-0.5v0
			c-0.4-0.4-1.4-0.5-0.8-1.5c0.9-0.3,1.5,0.2,1.9,0.8c0.9,1.5,2.3,2.5,3.3,3.8c0.6,1.7,2.3,2.7,2.8,4.5c0.5,1.4,0.5,2.3-0.8,3.3
			c-1.2,0.9-2.6,1.7-2.9,3.7c-0.2,1.2-2.1,1.8-3.6,1.5c-0.6-0.1-1.2-0.4-1.7-0.2c-4.1,1.4-7.1,0.3-9-3.6c-2-0.9-4.3-1.4-5.4-3.6
			c0-0.1,0-0.3,0-0.4c0.5-0.4,0.4-0.9,0.4-1.4c0-0.6,0.3-1.1,0.8-1.4c0.1,2.9,0.3,3.1,2.8,3.2c0,0,0.2,0,0.2,0
			c0.1,0.1,0.2,0.1,0.2,0.2C30.5,84.3,30.5,84.4,30.5,84.4z"/>
		<path class="st46" d="M31.5,87.6c1.1,0,0.8,1.3,1.5,1.8c0.3,0.2,0.5,0.9,0.6,0.9c1.3-0.6,1.7,1.2,2.9,0.9c0.7-0.1,1.4,0.5,2,0
			c0.9-0.7,1.9-0.3,2.8-0.8c0.3-0.2,0.7-0.2,0.8,0.1c0.4,1.1,1,0.6,1.5,0.2c0.3-0.2,0.7-0.3,1-0.4c0.7-0.1,2-0.2,0.4-1.1
			c-0.2-0.1-0.1-0.4,0.1-0.6c1.2-1.1,2.2-2.4,3.7-3.1c0.9-0.4,1-1,0.6-1.8c-0.4-0.8-1.1-1.4-1.1-2.4c0-0.5-0.4-0.9-0.9-0.9
			c-1.7-0.1-0.9-1.1-0.8-1.9c1.4,0.4,2.4,1.4,3,2.7c0.3,0.8,0.8,1.4,1.4,2c0,0.1,0.1,0.2,0.1,0.3c0.2,0.4,0.6,0.9,0.4,1.2
			c-1,1-0.2,2-0.1,3c0.1,1.1,0.2,2.2,1.8,1.8c0.3-0.1,1.1,0.1,1.4,0.8c-0.6,0.6-1.4,0.3-2.1,0.5c-0.5,0.2-1,0.2-1.2,0.8
			c-0.2,0.6,0.1,1.1,0.6,1.3c1,0.6,1.3,1.4,0.9,2.5c-0.1,0.3-0.4,0.5-0.9,0.5c-0.1-0.7-0.2-1.3-0.4-2.2c-0.8,0.5-1.8,0.6-2.3,1.6
			c-0.1,0.2-0.5,0.3-0.6,0.3c-1.4-1-2.6,0.6-4,0.3c-0.1-0.1-0.2-0.3-0.2-0.4c0.5-1.9,0.5-1.9-1.4-2.3c-0.5-0.1-1-0.3-1.3-0.8
			c-0.6-1.1-1.2-1.1-1.8-0.3c-0.3,0.4-0.5,0.8-0.5,1.2c0,1.4-0.9,1.3-1.9,1.3c-1.3-0.4-0.7-1.8-1.5-2.6c-0.8-0.9-2-0.5-2.8-1.3
			C32.3,89.9,31.7,88.9,31.5,87.6z"/>
		<path class="st47" d="M63.3,127.7c-1.1-0.6-1.5-1.6-1.4-2.8c0,0,0.1-0.1,0.1-0.1c0.4-0.8,1-1.1,1.8-1.1c0.2,0,0.4,0.1,0.6,0.3
			c0.2,0.3,0.2,0.6,0.2,0.9c-0.4,0.8-0.6,1.7-0.7,2.6C63.7,127.7,63.5,127.8,63.3,127.7z"/>
		<path class="st38" d="M64.2,129c-0.3-0.2-0.4-0.5-0.5-0.9c0.1-0.1,0.1-0.1,0.2-0.2c0.1,0,0.2,0,0.3,0.1c0.1,0.1,0.1,0.1,0.2,0.2
			C64.5,128.5,64.4,128.8,64.2,129L64.2,129z"/>
		<path class="st38" d="M63.3,127.7c0.1,0,0.3-0.1,0.4-0.1c0.1,0.1,0.1,0.1,0.2,0.2c-0.1,0.1-0.1,0.1-0.2,0.2c0,0,0,0,0,0
			C63.6,128,63.4,127.9,63.3,127.7z"/>
		<path class="st48" d="M63.7,127.6c-0.6-1-0.6-2,0.5-2.7c0.5-1.7,1.7-2,4.2-1.3c2.2,0.6,4.2,1.5,6,2.8c1.3,1,2.7,2,4.4,2.1
			c0.8,0,1,0.7,1.3,1.4c-0.7,1.5-1.9,2.6-2.9,3.9c-1.3,1.8-3.3,2.9-5.7,2.4l0,0c-1.1-0.3-1.9-0.1-2.6-1.8c-1-2.4-2.7-4.6-4.6-6.5
			C64.1,127.9,63.9,127.8,63.7,127.6L63.7,127.6z"/>
		<path class="st49" d="M80.1,129.9c-0.4-0.3-0.6-0.9-1.2-0.9c-2.8,0.1-4.5-2.1-6.7-3.4c-0.6-0.3-1.1-0.7-1.7-0.8
			c-0.8-0.2-1.8,0.2-2.4-0.8c-0.2-0.3-0.5-0.2-0.8,0.1c-0.4,0.4-0.9,0.4-1.2,0.1c-1.2-1.2-1.4,0.2-1.9,0.7c0-0.3,0-0.6,0-0.9
			c0-2.2,1.7-1,2.7-1.3c0.4,0,0.9,0,1.3,0.1c1.7,0.6,3.6,0.4,4.9,2c0.2,0.1,0.3,0.2,0.5,0.4c0.3,0.2,0.7,0.4,1,0.6
			c1.5,1.1,3.2,1.8,5,2.4c0.2,0.1,0.3,0.3,0.4,0.5c0,0.3,0.1,0.5,0.1,0.8C80.1,129.5,80.1,129.7,80.1,129.9z"/>
		<path class="st50" d="M76.9,138.1c-1.7,1.5-2.4,1.4-3.3-0.8c-0.1-0.2-0.2-0.4-0.3-0.6c1-0.1,1.1,1.7,2.1,1.2
			c0.6-0.3,0.7-1.4,1.4-1.8c0.2-0.1,0.4-0.2,0.6-0.3C77.2,136.6,77.1,137.3,76.9,138.1z"/>
		<path class="st39" d="M74.2,159.4c0.2-0.1,0.3-0.3,0.5-0.4C74.5,159.1,74.3,159.3,74.2,159.4z"/>
		<path class="st51" d="M84.6,109.5c0.4,1.1-0.2,2.1-0.4,3.1c-1.3,0.6-2.1,1.4-2.1,3c-0.1,3.4,0,6.8-0.2,10.1c-0.1,0-0.3,0-0.4,0
			c-0.2-0.1-0.3-0.3-0.4-0.5c-0.3-1.3-0.2-2.7-0.8-4c-0.5-1-0.8-2-2.3-1.6c-0.7,0.2-1.3-0.3-1.5-1c-0.2-0.7-0.6-1.2-1.1-1.6
			c-0.8-0.6-0.2-1.9-1.6-2.4c-0.6-0.2,1.4-3.5,2.5-3.6c1.1-0.1,2-0.4,3-1c1.1-0.6,1.7-1.3,2.2-2.6c0.5-1.4,0.8-3.6,3.2-3.6
			c-0.3,0.7-0.6,1.4-0.9,2C82.5,108.2,82.5,108.2,84.6,109.5z"/>
		<path class="st5" d="M75.6,142.2c0.1-0.2,0.3-0.3,0.4-0.5C75.9,141.9,75.7,142,75.6,142.2z"/>
		<path class="st52" d="M56,117.2c1,0.4,1.6,1,1.2,2.2c-0.2,0.7-0.1,1.5-0.1,2.2c0,2.2-0.5,2.8-2.7,2.8c-0.2,0-0.5,0-0.7,0
			c0.1-1.5-1.1-2.4-2.1-3.2c-0.7-0.6-0.6-1.1-0.2-1.7c-1.4-1.7-1.2-4.2,0.5-6c1-1,2.7-0.7,3.2,0.7C55.5,115.1,55.3,116.3,56,117.2z"
			/>
		<path class="st53" d="M56,117.2c-1.3-0.6-0.8-2.1-1.6-3.1c-0.1-0.1,0-0.8-0.1-0.7c-0.6,0.7-1.6-0.4-2,0.2
			c-0.8,1.3-1.7,2.6-1.5,4.2c0,0.5,0.2,0.6,0.6,0.8c0.5,0.2,0.4,0.5,0,0.8c-1.9-1.4-1.8-0.6-1.4-3.6c0.5-0.3,0.8-0.8,0.6-1.4
			c-0.4-1.6,0-3.1-0.1-4.7c-0.1-1,0.3-1.4,1.1-1.1c0.8,0.2,1.3,0,1.8-0.6c0.7-1,1.7-1.2,2.9-1.3c2.2-0.1,2.3,0,2.7,2.2
			c-0.9,0.5-1.9,2.3-2.8-0.1c-0.2-0.6-0.9-0.6-1,0.2c-0.3,1.4-0.4,2.8,1.4,3.1c1.9,0.4,1.9,1.3,1,2.7c-0.6-0.1-0.9,0.5-1.6,0.6
			C55.2,115.7,56.4,116.6,56,117.2z"/>
		<path class="st54" d="M84.7,104c-1.5,1-2.3,2.5-2.6,4.8c0,0.3-0.3,0.5-0.5,0.7c-1.5,1-3,2.4-4.8,2.4c-1.2,0-1.5,0.3-1.7,1.2
			c-0.1,0.6-0.6,0.8-0.9,1.3c-0.3,0.5-0.1,1,0.5,0.7c0.7-0.3,1-0.3,0.8,0.5c-0.1,0.4-0.4,0.8,0.1,1.2c0.5,0.7,0.6,1.4,0.4,2.3
			c-0.2,1.2,0,2,1.8,2.3c1.7,0.3,3.2,2,3.7,4c0,0.2,0,0.3,0,0.5c0,0,0,0,0,0c-0.3,0.5-0.8,0.8-1.4,0.8c-0.6-0.1-1-0.4-1.4-0.7
			c-0.9-1-1.8-1.3-3-0.5c-0.7,0.5-1.6,0.3-1.7-0.4c-0.2-2.1-2.4-3.3-2.4-5.5c0-0.6-0.2-1.4-1.1-1.5c-0.2-0.1-0.5-0.1-0.6-0.2
			c-1.6-1.4-3.1-1.1-4.4,0.5c-1.3-0.3-1.4-1.2-1.2-2.2c0.1-0.6,0.5-1.1,0.4-1.7c0-0.2,0.1-0.4,0.1-0.6c1.5-1.1,2.2-2.5,2.4-4.3
			c0.6-1.1,0.3-2.4,1-3.4c0.9-1,0.6-2.8,2-3.5c0.2,0,0.4,0,0.6,0.1c0.6,0.9,0.3,1.7-0.1,2.5c-0.2,0.4-0.4,0.7-0.5,1.1
			c-0.1,0.2-0.1,0.4-0.2,0.6c-0.7,1.5,0.2,2.8,0.3,4.6c2.4-2.3,5.7-2.9,7.4-5.1c0.9-1.2,1.6-1.4,2.8-1.7c2.5-0.6,4.9-3.7,4.5-5.7
			c0-0.4,0.2-0.6,0.6-0.6c0.2,0,0.4,0,0.6,0.2c0.1,0.2,0.2,0.3,0.3,0.5c0.1,0.2,0.3,0.3,0.4,0.5c0,1.6-0.3,3.1-2.1,3.8
			C85,103.4,84.8,103.7,84.7,104z"/>
		<path class="st20" d="M86.5,98.1c0.2,0.1,0.3,0.3,0.5,0.4l-0.1,0.1c-0.1,0.1-0.3,0.1-0.4,0l0,0c-0.1-0.1-0.2-0.2-0.1-0.3
			C86.3,98.2,86.4,98.1,86.5,98.1L86.5,98.1z"/>
		<path class="st24" d="M55.1,148.5c0.4-0.1,0.8-0.4,1.1,0.1c0.3,0.5,0.3,0.9-0.2,1.3C56.1,149.2,55.3,149,55.1,148.5z"/>
		<path class="st22" d="M56,150.3c0,0.3-0.2,0.4-0.4,0.5C55.7,150.6,55.8,150.5,56,150.3z"/>
		<path class="st55" d="M80.1,126.3c0.5-0.2,0.9-0.3,1.4-0.4c-0.5,0.9-1,1.8-1.5,2.8c-0.1,0-0.2-0.1-0.4-0.1
			C79.1,127.6,79.5,126.9,80.1,126.3z"/>
		<path class="st56" d="M86.5,98.6c0.1,0,0.3,0,0.4,0c0,0.1,0,0.3,0,0.4C86.8,98.8,86.6,98.7,86.5,98.6z"/>
		<path class="st57" d="M30.1,84c0-0.5-0.3-0.9-0.5-1.4c1.5,0,2.7-0.4,3.1-2c0.1-0.5,0.4-0.9,0-1.2c-1-1-1-2.1-0.8-3.5
			c-1.5,0.5-2.3,2.5-4.2,1.7c0.5-1.3,0.9-2.7,2.5-3.2c0.3-0.1,0.4-0.3,0.6-0.6c1.4-2.5,2.3-2.8,4.8-1.8c0.2,0.1,0.4,0.1,0.9,0.3
			c-0.8,0.4-1.3,0.8-0.9,1.6c0.5,1.1,1.1,2.1,1.8,3.1c0.6,1,0.1,2.2-1,2.3c-0.6,0-1.2-0.3-1.6,0.3c-0.4,0.7,0.4,1,0.6,1.6
			c0.5,1.9-1.2,4.2-3.1,4.2c-0.4,0-0.5-0.2-0.7-0.5c-0.3-0.4-0.7-0.6-1.2-0.6l0,0C30.4,84.3,30.3,84.1,30.1,84L30.1,84z"/>
		<path class="st58" d="M41.5,74c0.3,0.5,0.6,0.9,0.9,1.4c-0.9-0.1-1.6-0.6-2.3-1.3c-0.6-0.6-0.8-0.7-0.3-1.5c0.6-1,0.1-1.7-1.1-1.8
			c-0.6-0.1-1.2,0.2-1.8,0.4c-0.5,0.1-1,0-1.1-0.5c-0.1-0.5,0.2-1.2,0.8-1.1c1.9,0.4,1.4-0.7,1.4-1.8c0-0.8-0.4-1.7,0.5-2.3
			c0.4-0.3,0.3-0.7,0.1-1c-0.3-0.6-0.6-1.1,0.5-1.1c0.3,0,0.4-0.4,0.4-0.7c0-1.7,1-2.6,2.5-3.1c0.5-0.2,0.9-0.5,1.2-1
			c0.2-0.1,0.3-0.3,0.5-0.5l0,0c0.2-0.2,0.3-0.3,0.5-0.5c0.2,0,0.3,0,0.5,0c0.1-0.2,0.3-0.3,0.5-0.5l0,0c0.2-0.2,0.3-0.3,0.5-0.5
			c0.5,0,0.9,0,1.4,0c0.8-0.3,1.6-0.4,2.4-0.3c0.4,0.2,0.7,0.5,0.4,0.9c-0.9,1-2.5,2.2-3.4,2.1c-2.7-0.4-2.7,1.4-3.1,3
			c-0.1,0.4,0,0.9,0,1.3c0,0.2-0.1,0.4-0.2,0.6c-1.4,1.6-1.7,3.4-1.4,5.4C41.5,71.1,41.4,72.5,41.5,74z"/>
		<path class="st59" d="M49.6,56.7c-0.9,0-1.8,0-2.7,0c0.3-0.4,0.7-0.5,1.2-0.6c3-0.3,4-2.5,4.7-4.9c-0.1-0.6,0.3-0.7,0.8-0.9
			c0.5-0.1,1.1-0.1,1.5,0.2c1.1,0.6,1.9,0.4,2.8-0.5c1.5-1.5,2.8-1.6,4.2,0c1.7,2,3.8,2.5,6.2,2.6c1.9,0.1,3.1,1.1,3.6,2.9
			c-0.2,0.2-0.5,0.6-0.7,0.5c-2.3-1.3-5.2-0.2-7.5-1.8c-2.1-1.5-4.4-2-6.9-0.9c-0.6,0.3-1.3,0.3-2,0.3c-1.2-0.1-1.8,0.6-2.2,1.6
			C51.9,56.2,51,56.8,49.6,56.7z"/>
		<path class="st60" d="M27.8,77.6c1.5-0.3,2.6-1.1,3.5-2.3c0.3-0.3,0.6-0.8,1.1-0.5c0.4,0.3,0.4,0.8,0.3,1.2
			c-0.5,1.3-0.6,2.3,0.9,3.1c0.7,0.4,0.7,1,0.1,1.5c-0.6,0.5-1.2,0.9-1,2c0.1,0.9-0.9,1.2-1.7,0.4c-0.4-0.4-0.8-0.3-1.2-0.4
			c-1.8-0.9-1.8-0.9-1.8-3C27.8,79,27.8,78.3,27.8,77.6z"/>
		<path class="st61" d="M53.7,50.8c-0.4,0-0.7,0.1-0.9,0.5c-0.7,0.4-1.5,0.9-1.7,1.7c-0.4,1.8-1.6,2.4-3.2,2.6
			c-0.4,0-0.7,0.2-1.1,0.3c0.2-0.5,0.6-0.8,1.2-0.9c1.4-0.1,2.1-1,2.5-2.3c0.3-1.2,1.4-2,1.9-3c0.1-0.2,0.4-0.5,0.5-0.4
			c1.9,0.5,3.3-1.3,5.2-1.2c1.9,0.1,3.8-0.2,5.6,0.5c0.4,0.1,0.9,0.4,1.3,0.3c1.8-0.4,2.7,0.8,3.7,1.9c0,0.1-0.1,0.2-0.1,0.3
			c-1.4,0.9-3,0.6-4.6,0.6c-0.6,0-0.8-0.5-1.1-1c-0.8-1.5-2.7-2.4-4.1-1.5C57.2,50.3,55.6,50.6,53.7,50.8z"/>
		<path class="st32" d="M31,63.1c0.1,0.1,0.1,0.3,0.2,0.4c0.3,0.6,0.5,1.1-0.2,1.5c-0.2,0.1-0.4-0.1-0.5-0.3
			C30.1,63.9,29.8,63.2,31,63.1L31,63.1z"/>
		<path class="st59" d="M43.7,58.1c-0.2,0.2-0.3,0.3-0.5,0.5C43.4,58.4,43.6,58.2,43.7,58.1z"/>
		<path class="st59" d="M44.2,57.6c-0.2,0.2-0.3,0.3-0.5,0.5C43.9,57.9,44,57.7,44.2,57.6z"/>
		<path class="st59" d="M45.1,57.1c-0.2,0.2-0.3,0.3-0.5,0.5C44.8,57.4,44.9,57.3,45.1,57.1z"/>
		<path class="st59" d="M45.6,56.7c-0.2,0.2-0.3,0.3-0.5,0.5C45.2,57,45.4,56.8,45.6,56.7z"/>
		<path class="st58" d="M42.4,75.3c0.2,0.2,0.3,0.3,0.5,0.5C42.7,75.6,42.5,75.5,42.4,75.3z"/>
		<path class="st62" d="M31.9,53.5c1.4-0.8,2.3-2.2,3.6-3.2c1.3-0.7,2.5-1.8,3.9-2.3c1.2-0.4,2.5-1.8,4.1-0.6
			c0.5,0.4,1.4,0.7,1.9-0.3c0.2-0.4,0.6-0.4,1-0.1c0.4,0.3,0.1,0.7-0.1,1c-0.6,0.8-0.2,1.4,0.5,1.9c0.7,0.5,1.3,1.1,1.9,1.6
			c0.5,0.4,0.4,0.9,0.1,1.4c-0.3,0.5-0.7,0.6-1.1,0.2c-0.4-0.4-0.8-0.3-1.3,0c-1.7,0.8-3.4,0.9-5.2,0.5c-1.2-0.3-2.3,0.3-3.4,0.7
			c-1.2,0.4-2,0.8-2.4,2.1c-0.1,0.4-0.5,0.9-0.9,1c-1.2,0.4-1.8,1.4-2.6,2.1c0-0.7,0-1.3,0.1-2c0.2-1.4,0.2-1.4-1.2-1
			c-0.2,0.1-0.4,0.2-0.6,0.1c-0.6-0.2-0.2-0.5-0.2-0.9l0,0c0.2-0.1,0.3-0.3,0.5-0.5C30.7,54.5,32,54.5,31.9,53.5z"/>
		<path class="st63" d="M51.5,45.3c1.8,0.1,3.5-0.7,5.3,0c1.6,0.6,3.3,1.2,5.1,0.5c0.2-0.1,0.7,0,0.8,0.2c0.7,0.9,1.6,0.7,2.5,0.4
			c0.1,0,0.2,0.2,0.3,0.3c-0.1,0.8-0.6,0.9-1.3,0.9c-2.2-0.1-4.4-0.6-6.7-0.5c-0.3,0-0.6-0.1-0.8-0.3c-0.8-0.9-1.4-0.9-2.5-0.2
			C53,47.4,52.2,46.2,51.5,45.3z"/>
		<path class="st63" d="M46.9,41.7c0.1,0.8,0.7,0.8,1.3,0.9c1.4,0.4,2.9,1,3.3,2.7c-1.5-0.9-3.4-0.6-4.7-2c-0.3-0.4-0.9-0.3-1.2,0.1
			c-0.8,0.7-1.7,0-2.5,0.6c-0.2-2.2,1-2.8,2.5-3.4C46.7,40.2,46.3,41.6,46.9,41.7z"/>
		<path class="st61" d="M68.7,50.8c0.2,0,0.3,0,0.5,0c0.1,0.1,0.2,0.1,0.3,0.2c0.3,0.6,1.3,1.2,0.1,1.9C68,52.7,68.2,51.8,68.7,50.8
			L68.7,50.8z"/>
		<path class="st63" d="M68.7,49.4c0.6,0,0.9,0.3,0.9,0.9c-0.2,0.2-0.3,0.2-0.5,0C69,50,68.9,49.7,68.7,49.4z"/>
		<path class="st63" d="M66.5,47.6c0.5,0,1-0.1,1.4,0.5C67.3,48,66.8,48.1,66.5,47.6z"/>
		<path class="st37" d="M48.7,40.8c-0.2,0.2-0.3,0.3-0.5,0.5c-0.2,0.1-0.3,0.1-0.5,0l0,0C48,40.9,48.4,40.8,48.7,40.8z"/>
		<path class="st63" d="M68.3,49c0.2,0.2,0.3,0.3,0.5,0.5C68.6,49.3,68.4,49.1,68.3,49z"/>
		<path class="st63" d="M67.8,48.5c0.2,0.2,0.3,0.3,0.5,0.5C68.1,48.8,68,48.7,67.8,48.5z"/>
		<path class="st63" d="M66,46.7c0.2,0.2,0.3,0.3,0.5,0.5C66.3,47,66.2,46.8,66,46.7z"/>
		<polygon class="st62" points="31.9,59.4 31.8,59.6 31.7,59.5 		"/>
		<path class="st37" d="M49.2,40.3c-0.2,0.2-0.3,0.3-0.5,0.5C48.9,40.6,49,40.5,49.2,40.3z"/>
		<path class="st64" d="M69.2,50.3c0.2,0,0.3,0,0.5,0c0.1,0.2,0.1,0.3,0,0.5c-0.2,0.1-0.3,0.1-0.5,0C69.2,50.6,69.2,50.5,69.2,50.3z
			"/>
		<path class="st32" d="M30.5,55.3c-0.2,0.2-0.3,0.3-0.5,0.5C30.2,55.6,30.4,55.5,30.5,55.3z"/>
		<path class="st65" d="M81.5,81.2c-0.1,1.2-1.4,1.2-2.1,2.2c1.7,0.3,1.3,1.9,2,2.9c-0.9,0.2-1.1-0.4-1.4-0.7
			c-0.4-0.3-0.8-0.7-1.2-0.5c-2,1-0.9-0.8-1.2-1.3c-1.4,0.5-0.6,1.4-0.5,2.2c-0.8,0.6-1.2-0.2-1.7-0.3c-0.3,0.2-0.2,0.4-0.1,0.6
			c0.2,0.4,0.4,0.8,0.6,1.2c0.8,1.3-1.1,1.3-1.1,2.3c-0.1,0.6-0.6-0.2-1-0.2c-0.5-0.1-0.9-0.6-1.5-0.3c-0.1,0.5,0.3,0.7,0.5,0.9
			c0.4,0.4,0.9,0.8,0.2,1.5c-0.6,0.6,0.4,1.6-0.3,2.4c-0.3,0.3,0.2,0.5,0.5,0.5c0.5,0.1,0.8,0.4,1,0.9c-0.4,2-1.8,3.2-3.2,4.5
			c-0.6,0.3-0.9,0.8-1.3,1.3c-1,0.8-1.5,2-2.8,2.5c-1.2,0.5-1.8,0.4-2.5-0.6c-0.3-0.5-0.8-0.9-1.3-1.3c-0.1-0.2-0.2-0.4-0.3-0.6
			c-0.2-1.5,0.1-2.9,0.6-4.3c1.4-0.8,1.3,0.9,2.1,1.3c1.4-1,1.9-2.3,1.4-4c-0.4-1.3,0.3-2.5,0.9-3.6c0.1-0.2,0.3-0.3,0.5-0.4
			c1,0.1,0.8-0.5,0.6-1.1c-0.4-1.6-0.2-2.9,1.9-2.9c0.7,0,1.2-0.6,1.7-1c2.5-1.9,5.2-3.5,8.3-4.4C81.3,80.7,81.6,80.8,81.5,81.2z"/>
		<path class="st66" d="M88.3,81.7c0.3,0.4,0.6,0.3,0.9,0c0.6-0.6,1.3-0.7,1.7,0c0.6,0.8,1.6,0,2.2,0.7c0.4,0.4,1-0.3,1.2-0.7
			c0.2-0.4,0.1-0.9,0.8-0.8c0.5,0.6,0.3,1.2,0,1.8c-1.8,1.9-4.1,2.8-6.7,2.9c-0.3,0-0.7,0.1-0.8-0.2c-0.9-2.1-3.4-2.1-4.8-3.6
			c-1-0.6-1.2-1.6-1-2.7c0.2-1,0.3-2.1-0.3-3c-0.4-0.7-0.8-1.3-0.9-2.1c0.3-1.9,0.9-3.7,1.6-5.5c1.4,0,1.8,0.8,1.6,2.1
			c-0.4,1.5-0.1,3,0.4,4.4c0.4,1.2,0.6,2.3,0,3.5c-0.3,0.7-0.3,1.5,0.3,2.1C85.6,81.4,87.2,80.9,88.3,81.7z"/>
		<path class="st67" d="M76,94c0.2-1,0.3-2.1,0.5-3.1c0.1-0.5,0.4-0.9,0.9-0.8c1,0.2,2,0.6,3.1,0.4c0.4-0.1,0.6,0.5,0.4,0.9
			c-0.6,1.1-0.2,2,0.2,3c-0.1,0.2-0.3,0.2-0.6,0.2c-1.3-0.6-2.6-0.5-3.9-0.3C76.4,94.2,76.2,94.1,76,94z"/>
		<path class="st68" d="M81.9,75.8c0.9,0.8,0.6,1.7,0.5,2.7c-0.2,1.1-0.3,2.2,0.4,3.2c-0.5,0-0.9-0.3-1.4-0.5
			c-0.2-0.2-0.3-0.3-0.5-0.4c-0.1,0-0.2,0-0.3-0.1c-0.2-0.1-0.3-0.2-0.5-0.3c-0.1-0.1-0.1-0.1-0.2-0.2c-0.1-0.2-0.2-0.3-0.3-0.5
			c-0.1-0.2-0.1-0.4-0.1-0.6C80,77.7,79.6,75.8,81.9,75.8z"/>
		<path class="st69" d="M70.6,99.4c0.3-0.2,0.9-0.3,1-0.5c0.5-1.5,1.9-2.3,2.7-3.6c0.4-0.2,0.8-0.4,1.3-0.5c0.1,0.1,0.2,0.1,0.3,0.2
			c0.3,2.3-2,3.2-2.8,4.9c-0.5,0.9-1.2,1.9-1.9,2.7c-0.1,0-0.3,0-0.4,0C69.7,101.6,70.1,100.5,70.6,99.4z"/>
		<path class="st56" d="M85.6,97.7c0,0.1,0,0.3,0,0.4c-0.1,0.1-0.2,0.2-0.2,0.2c-0.5,0.5-1.2,0.7-1.9,0.6c-2.6-1-2.8-1.5-1.5-3.9
			c0.1,0,0.2,0,0.2,0.1C83.7,96.9,83.7,96.9,85.6,97.7z"/>
		<path class="st70" d="M81.9,94.9c0,0.2,0,0.3,0,0.5c-0.2,2.3-0.2,2.3,1.8,3.1c-1.5,1.5-2.8,1-3.6-1.4c0.2-0.9,0-1.9,0.5-2.7
			c0.2,0,0.3,0,0.5,0C81.3,94.5,81.6,94.7,81.9,94.9z"/>
		<path class="st71" d="M95.1,82.6c0-0.6,0-1.2,0-1.8c0.8-1.1,1.8-1.9,3.2-2.3c-0.2,0.3-0.5,0.6-0.6,0.9
			C97.5,81,96.3,81.8,95.1,82.6z"/>
		<path class="st65" d="M82.7,86c0.1,0.1,0.3,0.3,0.3,0.5c0,0.1-0.2,0.2-0.3,0.1c-0.2-0.1-0.4-0.3-0.4-0.5
			C82.2,85.9,82.4,85.9,82.7,86z"/>
		<path class="st69" d="M76,94c0.2,0,0.3,0,0.5,0c0.3,0.9,0,1.2-0.9,0.9c0,0-0.2-0.2-0.2-0.2c0-0.1,0.1-0.2,0.1-0.3
			C75.7,94.3,75.9,94.1,76,94L76,94z"/>
		<path class="st67" d="M76,94c-0.1,0.2-0.3,0.3-0.4,0.5C75.7,94.3,75.9,94.1,76,94z"/>
		<path class="st56" d="M86.4,98.1c0,0.1,0,0.3,0,0.4c-0.3,0-0.6,0-0.9,0c-0.1-0.1-0.2-0.2-0.1-0.3c0-0.1,0.1-0.1,0.1-0.1l0.1-0.1
			C85.9,98.1,86.1,98.1,86.4,98.1z"/>
		<path class="st72" d="M68.7,50.8c0,1-0.1,2,1.4,1.8c0.1,0,0.2,0,0.3,0c0.5,0.2,0.9,0.7,1.4,0.6c1.5-0.4,2.5,0.3,3.5,1.1
			c0.7,0.1,1.2,0.6,1.8,0.9c0.8,0.3,1.5,0.7,2.2-0.3c0.8-1.1,1.6-0.8,2.3,0.5C82.5,57,84,58,86,57.8c1.3-0.8,2.3-2.1,3.6-3
			c0.7-0.5,1.4-1,2.2-0.5c0.2,0-0.1,0.5,0.3,0.4c0.2,0,0.3,0,0.3,0.2c0.4,0.5,0.7,0.9,1.1,1.4c0.3,0.4,0.4,0.9-0.1,1.2
			c-0.7,0.5-0.9,0.8-0.1,1.4c0.9,0.6-0.4,2.1,0.9,2.6c-0.4,0.6-1,1.1-1.7,1.4c-0.3,0.1-0.5,0.4-0.7,0.5c-0.7,0-1.2,0.3-1.4,1
			c-0.3,1-1,0.8-1.6,0.7c-1-0.2-0.4-0.9-0.4-1.4c0-0.1-0.1-0.3-0.1-0.5c-1,0.3-2,1.2-2.7-0.4c-0.1-0.3-0.5-0.3-0.8-0.2
			c-0.8,0.2,0,0.5,0,0.8c-0.1,0.7-0.2,1.5-0.8,2.1c-0.5-0.5-0.3-1.1-0.4-1.6c-0.2-1.1-0.8-0.5-1.3-0.4c-0.1-0.1-0.1-0.1-0.2-0.2
			c-0.1-0.3,0-0.5,0.2-0.7c0.2-0.3,0.4-0.6,0.7-0.7c0-0.1,0.3,0,0.1-0.2c0.1,0.1,0,0.2-0.2,0.3c-0.3,0.2-0.5,0.5-0.7,0.8
			c-0.3,0.3-0.6,0.3-1,0.2c-0.2-0.1-0.3-0.2-0.4-0.4c-0.2-0.8-0.8-1.3-1.6-1.4c-0.7-0.1-1.3-0.5-1.7-1c-1.7-1.8-3.5-3.5-5.6-4.8
			c-0.2-0.1-0.4-0.3-0.5-0.4c-1.3-1.5-3-1.8-4.9-1.8c-1,0-1.7-0.9-2.8-0.7c-0.5,0.1-0.7-0.5-0.9-0.8c-0.4-0.7-1-1.3-1.7-1.8
			c-0.9-0.6-2-0.5-2.6,0.3c-1.5,1.8-1.5,1.8-3.6,0.9c-0.3-0.1-0.7-0.1-1.1-0.2c0.2-0.4,0.5-0.9,1-0.7c1.1,0.5,1.8,0,2.6-0.7
			c1.8-1.5,3.8-0.8,5.8-0.3c0.6,0.2,0.4,0.7,0.3,1.1c-0.2,0.8,0.2,1.1,1,1.1C65.8,51.1,67.3,50.9,68.7,50.8z"/>
		<path class="st73" d="M71.9,55.3c2.2,0.2,3.4,1.8,4.8,3.2c0.9,0.9,1.5,2.1,2.9,2.3c0.7,0.4,0.9,1.2,1.4,1.8h0
			c0.6,0.1,0.5,1.2,1.4,0.9h0c0.4,1.3,0.4,2.9,2.5,2.8c0.6,0,1,0.6,1,1.1c0,1.5,1,2,2.2,2.4c-0.4,0.8-1.7,0.3-1.6,1.4
			c-0.3,0.3-0.2,0.7-0.2,1c0,0.5-0.2,0.9-0.7,0.9c-0.7,0-0.7-0.6-0.8-1.1c0-0.2,0-0.4,0-0.5c0-0.2,0.1-0.5,0.3-0.6
			c0-0.2-0.1-0.3-0.2-0.4c-0.2-0.3-0.4-0.7-0.6-1c-0.6-0.9-1.5-1.5-2.2-2.3c-0.7-1-1-2.2-1.9-3.1c-0.1-0.2-0.2-0.3-0.3-0.5
			c-0.1-0.2-0.2-0.3-0.4-0.5c-0.1-0.2-0.2-0.3-0.3-0.5c-0.6-0.9-1.3-1.6-2.2-2.1c-0.3-0.2-0.5-0.4-0.7-0.6c-0.2-0.1-0.3-0.2-0.5-0.3
			c-0.1,0-0.2-0.1-0.3-0.1c-0.4-0.2-0.9-0.5-1.3-0.4c-2.2,0.5-3.8-0.1-5-2c-0.4-0.7-1.2-0.9-2-0.7c-0.8,0.1-1.5-0.1-2.1-0.6
			c-2.1-1.6-4.5-2-7-1.5c-1.8,0.3-3.5,1-5.3,1.1c-0.1-0.1-0.2-0.1-0.3-0.2c0.4-2.2,0.4-2.2,2.5-2.3c0.8,0,1.5,0.1,2.2-0.3
			c2.3-1.3,4.5-0.4,6.4,0.7c1.5,0.9,2.9,1.8,4.8,1.1c0.5-0.2,1.4-0.3,1.8,0.6C70.5,56.2,71.3,55.6,71.9,55.3z"/>
		<path class="st74" d="M92.4,54.9c-0.2,0-0.3,0-0.5,0c-0.2-0.3-0.6-0.6-1-0.3c-1.1,0.8-2.7,1.4-3.1,2.5c-0.5,1.2-1.1,1-1.8,1
			c-1.7-1.1-1.7-2.6-1-4.3c-0.1-0.2-0.1-0.4,0-0.6c0.6-1.2,0.7-2.6,1.8-3.5c0.4-0.3,0.1-0.8,0-1.3c0-0.1,0-0.2-0.1-0.3
			c0-0.2,0-0.4,0.1-0.6c0.4-1.1-0.1-1.8-0.8-2.5c-0.1-0.1-0.3-0.3-0.4-0.4c-0.2-0.1-0.3-0.2-0.5-0.4c-0.8-0.5-1.9-1-0.4-2.1
			c0.7,0,1.3,0.3,2,0.6c1.7,0.8,2.6,1.7,2.2,3.7c-0.1,0.6,0.2,1.5,0.8,2c0,0.6,0.4,0.9,0.6,1.4c0.5,0.9,1.7,1.8-0.2,2.6
			c-0.3,0.1-0.4,0.5-0.2,0.8c0.3,0.3,0.7,0.2,1.1,0.2C92.7,53,92.8,53.1,92.4,54.9z"/>
		<path class="st75" d="M85.1,71.7c0.1,0.2,0.3,0.3,0.3,0.5c0.1,0.2-0.1,0.4,0.1,0.6c0.8-0.3,0.1-1.3,0.9-1.6c0.1,0.5,0.3,1,0.4,1.5
			c0.5,1.8,0.7,1.9,2.8,1.6c-0.8,1.4-1.1,2.9-1.1,4.6c-0.9-0.6-0.6-1.2-0.7-1.8c-0.4-0.1-0.9-0.4-0.9,0.4c0,1.4,0.7,2.5,1.4,3.7
			c0,0.2,0,0.3,0,0.5c-1.4,0.1-2.9,0.3-4.1-0.9c-0.4,0.1-0.6,0-0.5-0.4c1-2.1,0.8-4.4,0.5-6.6C84.2,73,84.1,72.1,85.1,71.7z"/>
		<path class="st72" d="M91.7,65.7c-0.3,0-0.4-0.2-0.3-0.4c0.1-0.3,0.3-0.5,0.7-0.5c0.3,0,0.3,0.3,0.3,0.5
			C92.2,65.6,92,65.7,91.7,65.7z"/>
		<path class="st75" d="M88.7,80.8c-0.2,0.2-0.3,0.3-0.5,0.5C88.4,81.1,88.6,80.9,88.7,80.8z"/>
		<polygon class="st72" points="91.9,63.5 92.1,63.6 92,63.7 		"/>
		<path class="st41" d="M84.7,42.1c-1,1.2,0.5,1.3,0.9,1.8c0.1,0.2,0.3,0.3,0.5,0.5h0c0.4,0.5,0.2,0.8-0.3,1c-2.3-1.1-4.8-1.6-7-2.8
			c-0.9,0.2-1-0.5-1.5-1.1c-0.3-0.4-1.4,0.8-1.7,0.4c-0.5-0.8-1.9-1.2-1.6-2.4c0.1-0.6,0-1-0.2-1.5c0.4-0.1,0.8-0.6,1.3-0.2
			c0.7,0.6,1.5,0.7,2.3,0.7c0.3,0,0.6,0.1,0.8,0.4c0.9,1.8,2.5,1.9,4.2,1.9c0.3,0.5,0.9,0.7,1.4,0.9C84,41.8,84.3,42,84.7,42.1z"/>
		<path class="st59" d="M83.7,41.7c-0.4,0.1-0.5,0.9-1,0.6c-0.6-0.3-0.3-1-0.4-1.5C83,40.8,83.7,40.8,83.7,41.7z"/>
		<path class="st76" d="M51,40.3c0-0.2,0-0.3,0-0.4c0.3-0.5,0.8-0.5,1.4-0.5c0.4-0.2,0.7-0.5,0.9-0.9c0.2-0.3,0.7-0.2,0.9-0.5
			c0-0.5,0-0.5-0.9-0.5c0-0.6,0.3-1.1,0.7-1.6c0.2-0.3,0.5-0.5,0.4-0.9c-0.2-1.5-0.1-1.7,1.2-1.4c0.7,0.2,1.3,0.1,1.9,0
			c0.6-0.1,0.7,0.3,0.8,0.8c-0.1,0.1-0.2,0.2-0.1,0.3c0,0.1,0.1,0.1,0.1,0.1c0.1,0,0.3,0,0.4,0c0.2,0.3,0.7,0.2,0.9,0.5l0,0
			c0.6,0.2,0.6,0.9,0.9,1.4l0,0c0.1,0.1,0.3,0.2,0.4,0.3c0.4,0.1,0.7-0.1,1-0.3l0,0c0.1-0.1,0.3-0.2,0.5-0.2c0.2,0,0.3,0.1,0.4,0.2
			c0.2,0,0.3,0,0.5,0c0.2,0.8-0.1,1.6,0,2.5c0,0.8-0.1,1.8-0.8,2c-2.3,0.9-4.3,2.9-7,2.3c-1.3-0.3-2.6-0.3-3.8-0.7
			C49.8,42.3,49.7,41.8,51,40.3z"/>
		<path class="st40" d="M60.6,36.7c-0.5-0.3-0.6-0.9-0.9-1.4C60.6,35.4,60.6,36,60.6,36.7z"/>
		<path class="st77" d="M61.9,36.7c-0.2,1-0.6,1.2-1.4,0.4c0.2-0.3,0.7-0.2,0.9-0.4C61.6,36.7,61.8,36.7,61.9,36.7z"/>
		<path class="st40" d="M59.6,35.3c-0.4,0-0.7-0.1-0.9-0.5C59.1,34.9,59.5,35,59.6,35.3z"/>
		<path class="st40" d="M61.5,36.7c-0.2,0.4-0.5,0.4-0.9,0.4c0-0.2,0-0.3,0-0.5C60.9,36.7,61.2,36.7,61.5,36.7z"/>
		<path class="st77" d="M62.8,36.7c-0.2,0-0.3,0-0.5,0c-0.1-0.1-0.1-0.2-0.1-0.3c0-0.1,0.1-0.1,0.1-0.1c0.1,0,0.3,0,0.4,0
			C62.8,36.4,62.8,36.5,62.8,36.7z"/>
		<path class="st40" d="M62.4,36.2c0,0.1,0,0.3,0,0.4c-0.2,0-0.3,0-0.5,0C62.1,36.5,62.2,36.4,62.4,36.2z"/>
		<path class="st40" d="M58.3,34.9c-0.2-0.1-0.3-0.2-0.2-0.3c0-0.1,0.1-0.1,0.2-0.1C58.3,34.6,58.3,34.7,58.3,34.9z"/>
		<path class="st78" d="M64.2,127.6c0.9,0,1.1,0.8,1.5,1.3c1.3,1.7,2.6,3.5,3.9,5.2c0.1,0.2,0.3,0.5,0.2,0.6c-0.8,1.1,0,1.1,0.7,1.1
			c0.4,0,0.7,0.1,1,0.4c-4,0.7-6.7-2.3-5.9-6.3c-0.1-0.2-0.3-0.3-0.4-0.5l0,0c-0.2-0.1-0.3-0.3-0.5-0.4l0,0
			c-0.3-0.2-0.2-0.7-0.5-0.9l0,0c-0.1-0.1-0.2-0.2-0.1-0.3C64.1,127.7,64.2,127.6,64.2,127.6z"/>
		<path class="st47" d="M64.2,128.1c0.4,0.2,0.5,0.5,0.5,0.9c-0.2,0-0.3,0-0.5,0C64.2,128.7,64.2,128.4,64.2,128.1z"/>
		<path class="st47" d="M64.7,129c0.2,0.1,0.3,0.3,0.5,0.4C65,129.3,64.8,129.1,64.7,129z"/>
		<path class="st47" d="M65.1,129.4c0.1,0.2,0.3,0.3,0.4,0.5C65.4,129.8,65.3,129.6,65.1,129.4z"/>
		<path class="st64" d="M78.7,42.6c0.5-0.2,0.8-1.3,1.5-0.2c0.8,1.2,1.9,1.7,3.3,1.5c1.1-0.1,1.7,0.5,2,1.4c0.2,0,0.2,0.2,0.2,0.3
			c0,0.2-0.1,0.3-0.2,0.3c0,0-0.2,0-0.2,0s0.2,0.1,0.2,0.1c0,0,0.2,0.1,0.2,0.1c0.1,0.1,0.2,0.3,0.2,0.4c0,0.2,0.1,0.3,0.1,0.5
			c0.1,0.1,0.1,0.3,0.2,0.4c0.1,0.1,0.2,0.2,0.4,0.3c0.1,0.1,0.2,0.2,0.3,0.3h0c-0.2,1.2-1,2.1-1.6,3.1c-0.6,1.1-2.2,1.7-2.9,1.1
			c-1.3-1-2.3-0.6-3.5-0.4c-2,0.3-4.2-0.1-6.2,0.4c-0.6,0.2-1.3,0.4-1.8-0.4c0.1-0.8,1-0.7,1.4-1.2c0.4-0.9,1.3-1.4,2.1-1.5
			c0.9-0.1,1.1-0.1,0.5-1c-0.3-0.4,0.1-0.7,0.5-0.7c0.7,0,1,0.3,1.4,0.9c0.5,0.9,1.8,1,2.8,0.5c1-0.5,2.1-0.5,3.2-0.5
			c-0.1-0.2-0.3,0.1-0.1-0.1c0,0,0.1,0.1,0.1,0.1c0-1.4,1.3-0.7,1.8-1.2c-0.8-0.8-0.6-2.1-1.9-2.6c-1.3-0.6-2.6-0.2-3.3,0.5
			c-1.1,1.1-1,0.2-1.1-0.4c0-0.2,0.2-0.5,0.3-0.8c0.5-0.2,0.2-0.3,0-0.5C78.7,43.2,78.7,42.9,78.7,42.6z"/>
		<path class="st77" d="M51,40.3c-0.7,1.8-0.5,2.2,1.4,2.3c1.4,0.1,2.8-0.1,4.2,0.7c0.6,0.4,1-0.1,1.3-0.5c0.6-0.7,1.3-1.1,2.3-1.1
			c1.9-0.1,2.7-0.9,2.5-2.9c-0.1-0.9,0.2-1.4,0.5-2c1.1-0.7,2,0.3,2.9,0.4c0.3,0,0.3,0.6,0.2,1c-0.1,0.5-0.6,0.9-0.9,1.2
			c-0.9,0.9-1.4,1.8-0.9,3c0.2,0.5,0.1,1.1,0,1.6c-0.1,0.5-0.4,1-0.9,0.9c-2-0.4-3.8,0.7-5.8,0.2c-1.9-0.5-3.9-0.6-5.7-1.5
			c-0.3-0.2-0.7-0.3-1.1-0.3c-0.8-0.1-1.6-0.5-1.7-1.2C49.3,40.9,50.1,40.4,51,40.3z"/>
		<path class="st79" d="M70.8,41.1c-0.4,1.3,0.5,1.6,1,2c0.4,0.3,1.3-0.1,1.2,0.7c-0.1,0.8,0.2,1.7-0.6,2.3
			c-0.2,0.1-0.5,0.2-0.6,0.3c-0.3,1-0.8,1.9-1.9,1.9c-0.9,0-2.9-2.7-3-3.7c0-0.4,0-0.9,0.4-1c0.7-0.2,1-0.9,1.5-1.3
			C69.4,42,69.9,41.7,70.8,41.1z"/>
		<path class="st37" d="M52.4,39.4c-0.3,0.5-0.9,0.4-1.4,0.5c-0.5-0.4-0.4-0.8,0-1.1C51.7,38.3,52.1,38.9,52.4,39.4z"/>
		<path class="st63" d="M72.4,50.8c-0.3,0.6-0.7,0.9-1.4,0.9c-0.1,0-0.2-0.1-0.3-0.1c-0.3-0.2-0.6-0.4-0.9-0.6
			c-0.1-0.1-0.1-0.2-0.2-0.2c0-0.2,0-0.3,0-0.5C70.6,50.2,71.5,50.6,72.4,50.8z"/>
		<path class="st41" d="M78.7,43.5c0.1,0,0.1,0,0.2,0c0.4,0,0.9-0.1,1.2,0.2c0,0,0,0.3-0.1,0.4c-0.5,0.5-0.9,0-1.4-0.1
			C78.7,43.8,78.7,43.7,78.7,43.5z"/>
		<path class="st64" d="M78.5,47.6c0.1,0.1,0.4,0.2,0.4,0.2c-0.1,0.5-0.4,0.6-0.8,0.6c-0.1,0-0.4-0.2-0.3-0.2
			C77.8,47.8,78.1,47.7,78.5,47.6z"/>
		<path class="st37" d="M54.2,38c-0.2,0.4-0.5,0.4-0.9,0.5C53.5,38.1,53.8,38.1,54.2,38z"/>
		<path class="st63" d="M47.8,41.2c0.2,0,0.3,0,0.5,0C48.1,41.5,48,41.5,47.8,41.2z"/>
		<path class="st80" d="M65.1,114c0.2,0.5,0.7,1.1,0.1,1.6c-1.1,1-0.3,1.7,0.3,2.4c0.3,0.2,0.3,0.5,0.3,0.9
			c-0.1,0.3-0.3,0.8-0.5,0.7c-2.3-0.3-2.8,1.7-3.9,2.9c-0.2-0.2-0.3-0.3-0.5-0.5c-0.1-0.1-0.1-0.2-0.1-0.3c0-0.1,0.1-0.2,0.1-0.2
			c0-0.1,0-0.3,0-0.5c-0.7-0.6-1-1.7-1.8-2.3c0-0.1,0-0.3,0-0.4c0-0.6,0-1.2,0-1.8c-0.3-0.7-0.5-1.5-1.4-1.8l0,0
			c-0.2-0.4-0.3-0.8,0.1-1.3c0.4-0.6,0-0.9-0.5-0.9c-0.6,0-1-0.1-1.5-0.4c-1.5-0.8-1.5-0.7-1.1-2.3c0.1-0.2,0.3-0.5,0.2-0.6
			c-0.9-1.2,0-1.6,0.9-1.7c1.4-0.2,1.1,1,1.2,1.9c0.9,0.1,1.1-1.9,2.2-0.7h0c2,0.1,2.7,1.9,3.8,3.1c0.8,0.8-0.1,1.5-1,1.9
			c-0.2,0.1-0.2,0.5-0.3,0.8c0.2-0.2,0.4-0.5,0.7-0.5c0.2,0,0.4,0.1,0.6,0.2c0.4-0.1-0.3,1.2,0.6,0.4C64,114.4,64.3,113.7,65.1,114z
			"/>
		<path class="st53" d="M57.8,114.9c1.5-0.1,1.4,0.8,1.4,1.8c-0.4-0.1-1.3,0.4-0.8-0.7C58.5,115.8,58,115.3,57.8,114.9z"/>
		<path class="st81" d="M61.5,122.6c-0.1-1.7,1.3-2.6,2.2-3.7c0.4-0.4,0.7-0.3,1,0.3c0.4,0.8,0.6-0.3,0.9-0.2c0.7,2,0.3,2.8-1.5,3.4
			c-0.1,0,0.1,1.1-0.3,1.6c-0.6,0.3-1.1,0.6-1.7,0.9C61.9,124.1,61.9,123.3,61.5,122.6z"/>
		<path class="st42" d="M59.2,119c1.7-0.1,1.5,1.3,1.8,2.3C59.7,121.1,59.1,120.3,59.2,119z"/>
		<path class="st42" d="M61,121.7c0,0.2,0,0.3,0,0.5c-0.2-0.1-0.2-0.2-0.2-0.3C60.9,121.8,60.9,121.8,61,121.7z"/>
		<path class="st82" d="M60.6,94c-0.5-2.3-2.7-2.6-4.3-3.6c-1.1-0.7-1.9-1.5-2-2.8c0.6-0.3,0.8-0.9,0.6-1.5
			c-0.5-1.9-0.4-3.8-0.7-5.7c-0.1-0.9-0.7-1.3-1.1-1.9c-0.7-1-1.6-2.1-0.1-3.3c0.7-0.6-1.3-0.7-0.4-1.5c2.1-0.9,3.5,0.1,4.5,1.8
			c0.7,1,1.5,1.9,2.5,2.6c1.8,1.9,3.4,3.9,3.2,6.7c-1,1.7-1.5,3.5-1.2,5.5C61.7,91.6,61.8,93,60.6,94z"/>
		<path class="st66" d="M52.4,74c0.5,0.7,1.3,0.3,1.9,0.6c0.2,0.1,0.3,0.3,0.3,0.5c0,0.2-0.1,0.4-0.4,0.4c-0.7-0.1-1.4,0.1-1.5,0.7
			c-0.2,0.7,0.2,1.5,0.8,2c0.9,0.8,1.9,1.5,1.1,3c-0.1,0.2,0.2,0.7,0.4,1c0.4,0.5,0.5,0.9,0.2,1.4c-0.3,0.6-0.3,1,0,1.7
			c0.7,1.2,0.5,1.4-0.9,2.4c0.1-0.3,0.3-0.7,0-0.8c-1-0.2-1.4-0.5-1.4-1.6c0-1-0.7-1.6-1.8-1.7c-2.4-1.1-0.7-3-0.7-4.5
			c0-0.8,0.7-1.5-0.4-2.2c-0.9-0.5-0.6-1.5,0.2-2c0.5-0.3,1-0.7,1.4-1.1C51.8,73.7,52.1,73.7,52.4,74z"/>
		<path class="st83" d="M44.2,102.2c-0.1-0.4-0.6-0.9-0.1-1.2c1.4-0.6,1.1-1.4,0.4-2.3c-0.2-0.2-0.4-0.5-0.1-0.8
			c0.2-0.2,0.6-0.2,0.8,0c0.3,0.3,0.7,1.2,0.9-0.1c0.1-0.5,0.5,0,0.6,0.2c0,0.7,0.9,1,0.9,1.8c0,0.3,0,0.7,0.4,0.6
			c1.8-0.8,1.3,1,1.7,1.6c0.6,0.8-0.4,1.4-0.9,1.7c-0.7,0.5-1.7,0.7-1.2,2.2c-1.3-1.1-2.7-1.7-2.9-3.3
			C44.8,102.3,44.4,102.2,44.2,102.2L44.2,102.2z"/>
		<path class="st66" d="M61.5,106.7c-0.6,0.2-1,1-1.8,0.4c-0.9-0.7-0.3-1.5-0.5-2.2c0.9-0.6,1.8,0.3,2.4-0.3
			c0.6-0.6,0.1-1.6,0.4-2.4c0.1-0.2,0.2-0.4,0.4-0.5c0.1,0,0.2,0.1,0.3,0.1c0.8,2.8,3.5,4.5,4.1,7.4c0.1,0.4,0.4,0.6,0.6,1
			c-0.1,1.5-0.7,2.5-2.3,2.8c-0.8-0.2-1.1-0.8-1.3-1.5c-0.1-0.4-0.1-0.9-0.1-1.3C63.6,108.5,63.7,106.9,61.5,106.7z"/>
		<path class="st53" d="M61.5,106.7c0.3-0.5,0.6-1.1,1.4-0.5c1.2,1,1.5,2.2,1.3,3.6c-0.3,0.3-0.9,0-0.9,0.3
			c-0.1,0.5,0.5,0.8,0.9,1.1c0,0.7,0.3,1.1,0.9,1.4c0.3,0.5,0.3,0.9,0,1.4l0,0c-1,0.5-1.4,1.6-2.1,2.3c-0.7-0.6-0.1-1.2-0.1-1.8
			c0.1-0.1,0.2-0.2,0.3-0.2c0,0,0.2,0,0.2,0s-0.2,0-0.2,0c-0.1,0.1-0.2,0.2-0.3,0.3c-1.3-0.1-0.5,1.7-1.8,1.8c0.2-1,0.7-1.9,0.5-2.9
			c0-0.3,0.2-0.3,0.4-0.2c1.2,0.3,1-0.9,0.7-1c-1.6-0.6-1.9-2.5-3.4-3.1c0.5-0.3,0.9-1.4,1.8-0.5c0.3,0.3,0.6,0.5,0.9,0.2
			c0.5-0.4-0.1-0.6-0.2-0.9C61.5,107.4,61.5,107.1,61.5,106.7z"/>
		<path class="st84" d="M60.6,94c0.4-1.5,0.4-3,0.3-4.6c-0.1-1.5-0.3-3.4,1.5-4.5c0.8,1.2,0.4,2.5,0.1,3.7c-0.4,1.9-0.6,3.7-0.2,5.6
			c0.1,1.1,1.7,1.3,1.5,2.6c0.2,1.7-0.7,3.3-0.5,5c-0.1,0.1-0.3,0.2-0.5,0.1c-0.2-0.3-0.1-0.7-0.4-1c-0.1-0.3-0.4-0.6-0.3-0.8
			c0.6-1.9-0.3-3.4-1.3-4.9C60.5,94.8,60.6,94.3,60.6,94z"/>
		<path class="st46" d="M53.6,96.9c0.6-0.8,1.2-0.6,1.9-0.5c0.3,0,0.5,0.3,0.5,0.7c-0.1,0.4-0.4,0.3-0.7,0.3
			C54.7,97.1,54.2,97.3,53.6,96.9z"/>
		<path class="st46" d="M55.5,94.7c-0.1,0.3-0.2,0.5-0.6,0.6c-0.3,0-0.6-0.2-0.5-0.5c0-0.3,0.3-0.5,0.6-0.6
			C55.3,94.1,55.5,94.4,55.5,94.7z"/>
		<path class="st66" d="M62.4,100.8c0.4,0.2,0.4,0.5,0.5,0.9c-0.1,0.2-0.3,0.2-0.4,0l0,0C62.4,101.4,62.4,101.1,62.4,100.8z"/>
		<path class="st85" d="M51.5,74c-0.1,0.5,0.2,1.3-0.9,1.2c-0.6-0.1-0.9,0.2-0.9,0.8c0,0.6,0.4,0.6,0.9,0.8c1.2,0.5,1.3,0.7,0.6,1.7
			c-0.6,0.8-1.2,1.2-0.3,2.3c0.8,1-0.4,0.9-0.9,1.2c0,0.8,0.9,1,1,1.7c-0.9,0-1.5-0.5-1.7-1.3c-0.4-1.2-0.8-2.2-2.1-2.7
			c-0.4-0.1-0.3-0.8-0.7-1.1c-1.4-0.7-2.4-1.8-3.1-3.1c-0.4-0.8-0.9-1.4-1.9-1.5c-0.9-1.3-0.3-2.7-0.5-4.1c0-2.2,0.9-4,1.8-5.9
			c1.7,0,3-1.6,4.8-1.1c0.4,0.9-0.1,1.6-0.6,2.3c-2,2.3-1.5,4.9-0.7,7.5c0.4,1.2,1.2,1.6,2.5,1.2C49.6,73.5,50.6,73.1,51.5,74z"/>
		<path class="st31" d="M30.1,84c0.2,0.2,0.3,0.3,0.5,0.5C30.4,84.3,30.2,84.1,30.1,84z"/>
		<path class="st86" d="M63.7,124c0-0.5,0-0.9,0-1.3c0-0.2,0-0.4,0.2-0.6c1.5-1.2,1.5-1.2,1.6-3.1c0-0.3,0-0.6,0-0.9
			c0.2-0.3,0.4-0.6,0.7-0.9c0.3-0.4,0.1-1.2,0.8-1.2c0.6,0,1.5-0.1,1.9,0.5c0.4,0.6,1.2,0.6,1.6,1.2c1.8,1,0.2,2.8,1,4.1
			c0.1,0.1,0.3,0.3,0.4,0.4c0.9,0.9,2.8,1.4,1.3,3.3c-1.4-0.9-2.7-2-4.6-1.8c-0.1,0-0.3-0.3-0.4-0.5c0.3-1.3-0.6-2.6-0.4-3.9
			c0-0.3,0.1-0.6-0.3-0.7c-0.5,0-0.7,0.3-0.7,0.7c0,0.7,0,1.5,0.1,2.2c0.1,0.6,0.5,1.1-0.1,1.7c-0.5,0.4-1-0.1-1.5,0
			c-0.6,0-1.2,0.1-1.3,0.9C64,124,63.9,124,63.7,124z"/>
		<path class="st47" d="M64.2,127.6c0,0.2,0,0.3,0,0.5c-0.2,0-0.3,0-0.5,0c0-0.2,0-0.3,0-0.5C63.9,127.6,64,127.6,64.2,127.6z"/>
		<path class="st87" d="M73.3,125.4c0.3-0.9,0.3-1.7-0.7-2.2c-0.5-0.2-0.9-0.5-1.1-1c-1.1-0.1-1.2-1.2-0.8-1.7
			c0.8-1.1,0.2-1.9-0.1-2.9c0.4,0,1.3,0,1.3,0.1c0.1,0.9,0.6,1.7,0.5,2.5c0,0.6-0.5,0.9,0.5,0.9c0.8,0,1.2,0.4,1.1,1.3
			c-0.1,0.5,0.2,1,0.3,1.5c0.3,1.2,0.3,1.2,1.5,0.4c0.5-0.3,2.3-0.1,2.8,0.4c0.5,0.6,1,1.2,1.7,1.5c0.1,0.8-0.4,1.5-0.5,2.2
			c-2.1-0.3-4-1.1-5.5-2.7C74,125.5,73.5,125.6,73.3,125.4L73.3,125.4z"/>
		<path class="st88" d="M66.9,123.1c-0.2-1.1-0.9-2.1-0.7-3.4c0.2-1.5,0-1.5,1.6-1.7c0.3,0,0.6-0.1,1.3-0.3
			c-0.9,1.4-1.2,2.6-0.2,3.8c0.6,0.8-0.4,1.1-0.7,1.7C67.8,123.1,67.4,123.1,66.9,123.1z"/>
		<path class="st86" d="M73.3,125.4c0.4,0,0.7,0.1,0.9,0.5C73.8,125.8,73.5,125.7,73.3,125.4z"/>
		<path class="st55" d="M81.5,125.3c-0.6-0.4-0.6-1.3-1.5-1.5c-0.9-0.3-1.4-1.3-1.9-2.2c-0.8-0.2-0.9,0.9-1.8,0.8
			c-0.6-0.3-0.2-1.1-0.6-1.6c-0.6-0.7-1-1.5-0.2-2.4c0.4-0.5-0.2-1.1,0-1.7c0.6,0.3,1.2,0.5,1.4,1.3c0.4,1.5,0.5,1.6,1.8,1
			c0.8-0.3,1-0.2,1.3,0.5C81.1,121.4,81.7,123.3,81.5,125.3z"/>
		<path class="st89" d="M75.6,94.9c0.5-0.1,0.8-0.4,0.9-0.9c1.4-0.6,2.8-1,4.1,0.4c0.4,0.8,0.5,1.6,0,2.3c-0.5,0.6,0.2,1.6-0.3,1.9
			c-2.7,1.6-2.1,4.5-3,6.9c-0.5,1.3-1.4,2.5-3,2.9c-0.4,0.1-0.7,0.3-1,0.4c-0.9,0.2-0.3,2-1.4,1.5c-1.1-0.4-1.2-1.8-1.8-2.7
			c-0.2-0.3-0.2-0.9,0.1-1.3c0.3-0.2,0.2-0.7,0.4-0.9c0.1-0.9,0.6-1.8,0.5-2.7c0.1-1,0.3-1.8,1-2.7C73.3,98.3,75.1,97.1,75.6,94.9z"
			/>
		<path class="st90" d="M70.1,106.2c0,0.3,0,0.7,0.1,0.9c0.9,0.7,1.3,1.8,1.5,2.8c0.8-0.1,0.6-0.6,0.6-1c0.1-0.7,0.5-1.1,1.2-1.1
			c2.3,0,2.9-1.7,3.5-3.4c0.3-0.8,0.6-1.7-0.3-2.4c-0.2-0.1-0.4-0.9,0.3-1.3c1.7-0.9,2.9-2.2,3.5-4.1c0.4,2.1,1.2,2.5,3.2,1.8
			c0.6-0.1,1.2-0.3,1.8-0.4c0,0.1,0,0.3,0,0.4c1.3,2.1,1.2,2.7-0.7,4c-0.8,0.5-1.5,1.2-2.2,1.8c-0.9,0.8-2.2,1.6-3.7,0.8
			c-0.4,0.4-0.1,0.8,0,1.3c0.2,0.9-0.1,1.5-1,0.9c-0.8-0.5-1-0.1-1,0.5c-0.1,0.8-0.5,1.1-1.3,1.3c-1.4,0.3-2.8,0.6-3.6,2.1
			c-0.3,0.6-1.2,1-2.3,0.8c0.4-1.1,0.2-2.1-0.2-3C69.1,107.9,69.5,107.1,70.1,106.2z"/>
		<path class="st91" d="M62.4,101.7c0.1,0,0.3,0,0.4,0c0.2,0,0.3,0,0.5,0c0.4,0.4,1,0.5,1.4,0.9c0.4,0.3,0.8,0.7,1.1,1
			c0.3-1.2,1.9-0.3,2.2-1.4c0.2-0.8,0.9-1.1,1.6-1.4c0.2,0.2,0.4,0.4,0.3,0.6c-0.9,1.5-0.8,3.3-1.2,4.9c-0.7,0.9,0.1,2.3-0.9,3.1
			c-0.3,0.3-0.5,0.7-0.9,0.9c-0.7-0.3-0.8-0.9-0.9-1.6c-0.2-1.2-0.5-2.4-2-2.8c-0.8-0.2-1-1.1-0.9-1.7
			C63.3,103.2,62.7,102.5,62.4,101.7z"/>
		<path class="st66" d="M68.8,106.3c-0.1-0.4-0.1-0.9-0.2-1.3c-0.2-1.2-0.6-2.4,0.9-3.1c0.2-0.1,0.2-0.7,0.2-1
			c0-0.6,0.3-1.1,0.9-1.3c0,1.1,0,2.1,0,3.2c-0.4,0.9-1.2,1.6-1,2.7C69.7,105.8,69.2,106.1,68.8,106.3z"/>
		<path class="st80" d="M66.9,110.3c0.2-0.4,0.4-0.8,0.9-0.9c-0.2,2.3-0.8,3.3-2.7,4.6c0-0.5,0-0.9,0-1.4
			C66.1,112.2,66.9,111.5,66.9,110.3z"/>
		<path class="st90" d="M70.6,105.3c0,0.4-0.1,0.7-0.4,0.9C70.1,105.9,70.2,105.5,70.6,105.3z"/>
		<path class="st92" d="M47.4,62.6c-1.3,1.1-2.7,2.1-4.5,1.4c-0.7-2-0.2-4.1,1.4-5.2c0.5-0.4,1.4-1.4,1.9,0.1c0.1,0.3,0.5,0.1,0.5,0
			c0-1.5,1.2-1.2,2.1-1.4c0.5-0.1,0.8-0.4,1-0.9c0.8-0.7,1.8-0.9,2.7-1.4l0,0c0.6,0.8,0.1,1.4-0.5,1.6c-1.8,0.8-2.5,2.4-3.1,4.1
			c-0.1,0.3-0.3,0.5-0.5,0.8c-0.2,0.2-0.4,0.5-0.6,0.7C47.5,62.5,47.5,62.6,47.4,62.6z"/>
		<path class="st92" d="M42.8,64c0,0.7-0.6,1.3-0.3,2c0.3,0.7,0,1.1-0.4,1.6c-0.6,0.7-1.2,1.4-1.1,2.4c-0.6-0.4-0.5-1-0.3-1.6
			c0.2-0.7,0.6-1.4,0.5-2.1C41.1,64.9,41.8,64.3,42.8,64z"/>
		<path class="st93" d="M71,51.7c0.3,0.4,0.7,0.5,1.2,0.3c1.3-0.4,2.6-1.1,4-0.1c0.4,0.3,0.7-0.1,0.9-0.4c0.3-0.4,0-1.1,0.6-1.3
			c1.2,1.6,1.4,1.6,3,0.3c0.3-0.2,0.5-0.6,0.9-0.4c0.3,0.2,0.2,0.5,0.2,0.8c-0.2,1,0.2,1.1,1.1,1c1.3-0.2,2.4-0.7,2.5-2.1
			c0.1-1.1,0.9-1.2,1.5-1.8c0.5,0.3,0.6,0.8,0.8,1.3c0.1,0.2,0,0.6-0.1,0.6c-2.2,0.2-1.1,2.8-2.6,3.6c0.8,0.9,0.8,0.9,0,1.5
			c-0.5,0.3-0.2,0.6-0.1,0.9c0.2,0.8,1.1,1.2,1.1,2.1c-0.1,0.6-0.5,1.2-1,0.8c-1.2-1.1-2.8-1.4-3.9-2.6C81,56,80.8,55.9,81,55.7
			c0.3-0.5,0.2-0.8-0.3-1c-0.4-0.1-0.7,0.1-0.9,0.4c-0.2,0.4-0.4,0.8-0.6,1.2c-0.2,0.4-0.5,0.4-0.9,0.1c-1-0.6-2-1.1-3-1.6
			c-0.3-1.2-0.5-2.5-2.4-1.6c-0.9,0.4-1.9,0-2.6-0.7c-0.3-0.6-1-1-0.9-1.8c0.2,0,0.3,0,0.5,0C70.1,51.1,70.8,51.1,71,51.7L71,51.7z"
			/>
		<path class="st9" d="M63.7,96.7c-0.3-1-1.9-1-1.8-2.3c-0.3-1.6-0.1-2.7,1.9-2.3c0.5,0.8-0.3,1.6,0.1,2.4c0.2,0.4,0.5,0.9,1,0.7
			c0.4-0.2,0.4-0.6,0.2-1c-1.6-4.3,1-6.8,3.9-9.1c3.1-2.4,6.8-3.8,10.4-5.4c0.2,0,0.4,0,0.6,0.2l0,0c0.1,0.2,0.3,0.3,0.5,0.5l0,0
			c0.2,0.1,0.3,0.3,0.5,0.5l0,0c-1,1.2-2.6,1.5-3.9,2.2c-1.7,0.9-3.4,1.8-4.7,3.2c-0.4,0.5-0.9,0.4-1.4,0.5
			c-1.7,0.2-1.7,0.2-1.5,1.8c0.1,0.8,0.6,1.6,0.2,2.5c-0.5-0.1-0.7-0.8-1.4-0.7c0,0.5,0,0.9-0.3,1.3c-0.8,0.9-0.7,1.9-0.4,3
			c0.3,1.2,0.5,2.4-0.9,3.1c-0.2,0.1-0.4,0.3-0.4,0.5c-0.2,0.3,0.3,1-0.4,1c-0.6,0-1.2-0.4-1.2-1.1C64.6,97.5,64.4,97,63.7,96.7z"/>
		<path class="st84" d="M64.6,102.6c-0.7,0-1.1-0.3-1.4-0.9C63.9,101.7,64.6,101.7,64.6,102.6z"/>
		<path class="st91" d="M67.8,100.8c0-0.1,0.1-0.2,0.1-0.2C68.1,100.6,68,100.7,67.8,100.8L67.8,100.8z"/>
		<path class="st91" d="M67.8,100.8c0,0.1-0.1,0.2-0.1,0.2C67.6,100.9,67.6,100.9,67.8,100.8L67.8,100.8z"/>
		<path class="st65" d="M80.1,79.9c-0.2,0-0.3,0-0.5,0c-0.2-0.1-0.3-0.3-0.4-0.5c-0.1-0.3-0.3-0.6-0.4-0.9c-0.1-0.2-0.1-0.4-0.2-0.6
			c0.5-3-0.6-6.1,1.2-9c0.3-0.5,0-1-0.3-1.4c-1.2-1.3-0.9-3.1-1.4-4.7c0-0.2,0.2-0.4,0.4-0.5c0.6-0.1,0.8,0.3,1.1,0.7l0,0
			c0.1,0.2,0.3,0.3,0.4,0.5c0.2,0.2,0.2,0.6,0.3,0.8c1.3,2.4,2.4,4.8,0.7,7.5c-0.3,0.5-0.6,1.4-0.1,2.1c0.3,0.6,0.6,1.2,0.9,1.8
			C80.2,76.7,80.2,78.3,80.1,79.9z"/>
		<path class="st94" d="M85.1,71.7c-0.2,0.5-0.6,1-0.4,1.5c0.7,1.7-0.3,3.3,0.1,5c0.3,0.9-0.9,1.6-0.6,2.6c-0.2,0.3-0.7,0.3-0.7,0.2
			c0.3-1-0.9-2.1,0.4-3.1c0.8-0.6,0.3-1.7,0-2.3c-0.8-1.8-1.2-3.5-0.5-5.5c0.3-0.7-0.7-1.1-1-1.6c-0.3-0.4-0.4-0.9,0-1.4
			c0.9,0.6,1.7,1.3,2.3,2.3c0.2,0.6-0.2,1.3,0.5,1.8C85.1,71.4,85.1,71.5,85.1,71.7z"/>
		<path class="st95" d="M82.4,67.1c0,0.5,0,0.9,0,1.4c0,1.9-1,3.6-1.4,5.5c-0.8-1.2-0.7-2.4,0.1-3.6c0.6-0.9,0.9-1.7,0.1-2.8
			c-0.8-1.1-1-2.7-1.1-4.1C81.3,64.4,81.8,65.8,82.4,67.1z"/>
		<path class="st65" d="M80.6,80.3c-0.2-0.2-0.3-0.3-0.5-0.5C80.3,80,80.4,80.2,80.6,80.3z"/>
		<path class="st65" d="M81,80.8c-0.2-0.2-0.3-0.3-0.5-0.5C80.7,80.5,80.9,80.6,81,80.8z"/>
		<path class="st61" d="M70.1,52.6c1.1,0.2,2.3,0.8,3.4,0c0.6-0.4,1.1-0.3,1.6,0c0.7,0.5,0.3,1,0.1,1.6c-0.1,0.2-0.1,0.4-0.1,0.7
			c-0.3,0-0.8,0-0.9-0.1c-0.4-1.4-1.2-1.1-2.2-0.9C71.1,54.1,70.5,53.3,70.1,52.6z"/>
		<path class="st35" d="M81,62.6c-0.8-0.3-1-1.2-1.4-1.8c1.1-0.3,1,1.2,1.9,1.2C81.4,62.2,81.2,62.4,81,62.6z"/>
		<path class="st35" d="M82.4,63.5c-1,0.6-1-0.4-1.4-0.9c0.5,0,0.9,0,1.4,0C82.4,62.9,82.4,63.2,82.4,63.5z"/>
		<path class="st35" d="M82.4,62.6c0-0.6,0.3-0.9,0.9-0.9C83.1,62.1,82.8,62.4,82.4,62.6z"/>
		<path class="st74" d="M91.9,55.2c0,0-0.1,0.2-0.3,0.3c0,0-0.2-0.1-0.3-0.2c0.1-0.2,0.3-0.3,0.4-0.5C91.9,54.8,92,54.8,91.9,55.2z"
			/>
		<polygon class="st35" points="83.3,61.7 83.4,61.5 83.5,61.6 		"/>
		<path class="st96" d="M48.3,61.2c0.4-2,1.1-3.9,3.3-4.6c0.5-0.2,0.7-0.7,0.8-1.3c3.8-1.3,7.5-2.4,11.5-0.9
			c0.7,0.3,1.2,0.6,1.2,1.4c-0.4,0.2-0.7,0-1.1-0.1c-0.3-0.1-0.5-0.2-0.8-0.3c-0.2,0-0.4-0.1-0.6-0.1c-3-0.6-5.6,0.7-8.1,2.1
			c-1.7,0.9-3.5,1.6-4.7,3.3C49.6,61.1,49,61.5,48.3,61.2z"/>
		<path class="st97" d="M64.2,55.3c0.3,0.1,0.6,0.3,0.9,0.5c0.6,0,1.1,0.5,1.7,0.3c1.6-0.7,2.5,0.3,3.1,1.4c0.8,1.4,1.8,1.8,3.4,1.3
			c1-0.4,1.9,0.1,2.7,0.7c-0.2,0.3-0.5,0.5-0.9,0.7c-3.8,1.5-5.3,1.2-8.1-2c-0.5-0.6-1.3-0.7-2-1c-0.7-0.3-1.7-0.5-1.5-1.6
			C63.8,55.2,64,55.1,64.2,55.3z"/>
		<path class="st95" d="M79.7,63c-0.3-0.1-0.6-0.3-0.9-0.4c-0.2-0.2-0.4-0.2-0.6-0.2c-0.2,0-0.3-0.1-0.4-0.2
			c-0.1-0.1-0.3-0.2-0.4-0.3c-0.1-0.1-0.1-0.1-0.2-0.2c-0.1-0.1-0.2-0.2-0.3-0.4c-0.1-0.1-0.1-0.3-0.2-0.5c0-0.3,0.1-0.5,0.3-0.6
			C78.3,60.7,79.3,61.6,79.7,63z"/>
		<path class="st98" d="M76.9,60.3c0,0.3,0,0.6,0,0.9c-1.6,0.4-1.8-0.6-1.8-1.8c0.3,0,0.6,0,0.9,0h0c0.1,0.2,0.3,0.3,0.5,0.5
			C76.6,60,76.8,60.2,76.9,60.3z"/>
		<path class="st75" d="M85.1,71.2c-1.5-0.3-0.7-1.1-0.5-1.8c0.6,0.3,0.3,1.1,0.9,1.4v0C85.4,70.9,85.3,71.1,85.1,71.2z"/>
		<path class="st95" d="M80.1,63.5c-0.1-0.2-0.3-0.3-0.4-0.5C79.8,63.2,80,63.4,80.1,63.5z"/>
		<path class="st97" d="M76.5,59.9c-0.2-0.2-0.3-0.3-0.5-0.5C76.2,59.6,76.3,59.7,76.5,59.9z"/>
		<path class="st35" d="M85.6,70.8c0-0.1,0.1-0.2,0.1-0.2C85.8,70.6,85.8,70.7,85.6,70.8L85.6,70.8z"/>
		<path class="st93" d="M85.6,45.8c0-0.2,0-0.3,0-0.5c0.4-0.2,0.4-0.5,0.5-0.9c1.1,0.5,1.4,1.5,1.6,2.5c0.1,0.5-0.4,0.6-0.7,0.6
			c-0.1,0-0.2-0.1-0.3-0.1c-0.5-0.3-0.8-0.8-1.1-1.3c-0.1-0.1-0.2-0.2-0.1-0.3C85.5,45.8,85.5,45.8,85.6,45.8z"/>
		<path class="st93" d="M86.9,48c-0.2,0-0.3,0-0.5,0c-0.1-0.4,0-0.6,0.5-0.5h0C86.9,47.7,86.9,47.9,86.9,48z"/>
		<path class="st93" d="M86,44.4c-0.2-0.2-0.3-0.3-0.5-0.5C85.7,44.1,85.9,44.3,86,44.4z"/>
		<polygon class="st35" points="87.8,77.2 87.9,77 88,77 		"/>
		<path class="st41" d="M86.9,47.6c-0.2,0.2-0.3,0.3-0.5,0.5c-0.4,0-0.7-0.1-0.9-0.5c0.1-0.1,0.2-0.2,0.1-0.3c0-0.1-0.1-0.2-0.1-0.2
			c0-0.3,0-0.6,0-0.9C86.1,46.6,86.9,46.7,86.9,47.6z"/>
		<path class="st40" d="M83.2,49.4c0,0.1-0.1,0.3-0.3,0.3c-0.3,0-0.2-0.3-0.1-0.5c0-0.2,0.1-0.4,0.1-0.6
			C83.1,48.7,83.3,48.9,83.2,49.4z"/>
		<path class="st93" d="M85.6,47.1c0.2,0.1,0.2,0.2,0.2,0.3c0,0.1-0.1,0.1-0.2,0.1C85.6,47.4,85.6,47.3,85.6,47.1z"/>
		<polygon class="st41" points="85.1,46.2 85,46.4 84.9,46.3 		"/>
		<path class="st41" d="M85.6,45.8c0,0.2,0,0.3,0,0.5c-0.2,0-0.3,0-0.5,0C85.3,46.1,85.4,45.9,85.6,45.8z"/>
		<path class="st64" d="M71,51.7c-0.5-0.3-1-0.4-1.4-0.9C70.3,50.8,71,50.8,71,51.7z"/>
		<path class="st99" d="M51.5,74c-1.1-0.1-2.2,0.2-3.2,0.7c-1.2,0.5-1.6,0.2-2.3-1c-1.1-2-1-4.2-0.8-6.3c0.1-0.9,0.3-1.9,1.3-2.5
			c0.7-0.5,0.9-1.3,0.9-2.2h0c0.2-0.2,0.4-0.2,0.6,0c1.1,1.4,0.6,2.7-0.3,3.9c-0.6,0.8-1.1,1.6-1,2.7c0.1,1.1,0.6,1.9,1.9,1.6
			c0.9-0.2,1.7-0.3,2.2,0.6c0.8,1.5,2.2,1.7,3.7,1.5c1.6-0.2,3,0.1,4.1,1.3c1,1.4,1.2,2.9,0.6,4.4c-1.1-0.7-2.1-1.2-2.7-2.7
			c-0.6-1.7-2.4-2.1-4.2-1.9C52.1,74,51.8,74,51.5,74z"/>
		<path class="st100" d="M59.2,78.5c-0.1-1.4-0.1-2.8-0.9-4.1c0.8-0.5,1.5,0,1.6,0.6c0.7,3.1,3.4,5.4,3.6,8.7
			c0.1,1.7,0.5,3.2,1.1,4.8c0.4,1.2,0.4,2.7-0.9,3.7c-1.2,0.2-1.8,1.1-1.8,2.3c-0.9-1.7-0.6-3.5-0.2-5.3c0.3-1.4,0.4-2.9,0.6-4.3
			C62.1,82.4,60.8,80.4,59.2,78.5z"/>
		<path class="st80" d="M64.2,111.3c-1.6,0-1.6,0-1.6-1.9c0.7-0.2,1.1,0.4,1.6,0.5C64.2,110.3,64.2,110.8,64.2,111.3z"/>
		<path class="st80" d="M63.7,113.5c0,0.6-0.3,0.9-0.9,0.9C63,114,63.3,113.7,63.7,113.5z"/>
		<path class="st80" d="M63.9,112.9c0.1,0,0.2,0.1,0.2,0.1c0,0.1-0.1,0.3-0.2,0.4c-0.2,0.2-0.2,0.1-0.2-0.1
			C63.8,113.2,63.9,113.1,63.9,112.9z"/>
		<polygon class="st86" points="71.5,122.2 71.6,122 71.7,122.1 		"/>
		<path class="st70" d="M81.1,99.3c-0.1,0-0.1,0-0.2,0.1c0-0.1-0.1-0.2,0-0.2C81.1,99,81.2,99.1,81.1,99.3z"/>
		<path class="st101" d="M48.3,61.2c0.9-0.7,2.1-1.2,2.4-2.5c0.1-0.3,0.3-0.5,0.6-0.6c2.4-0.2,3.9-2.3,6.2-2.8
			c2-0.4,3.8-1.2,5.8-0.4c0.1,0.5-0.2,0.7-0.6,0.8c-4.8,1.3-9.1,3.8-13.4,6.2c-0.5,0.3-0.9,0.5-1.5,0.3c-0.2-0.2-0.3-0.4-0.1-0.6
			C48,61.5,48.1,61.4,48.3,61.2z"/>
		<path class="st85" d="M47.8,61.7c0,0.2,0,0.3,0,0.5c0.1,0.1,0.1,0.2,0.1,0.3c0,0.1-0.1,0.1-0.1,0.1c-0.2,0-0.3,0-0.5,0
			C47.4,62.2,47.5,61.9,47.8,61.7z"/>
		<polygon class="st74" points="85.1,53.5 85,53.7 84.9,53.6 		"/>
		<path class="st102" d="M47.8,62.6c0-0.1,0-0.3,0-0.4c2.5-1.6,5-3,7.7-4.2c2.5-1.1,5-2.5,7.8-3c0.1,0,0.2,0,0.4,0
			c0.1,0.1,0.2,0.2,0.2,0.3c0,0.1-0.1,0.2-0.1,0.2c0.2,1.2,1.3,1.1,2.1,1.3c1.1,0.3,2,0.5,2.1,1.9c0.1,0.7,0.7,1.1,1.4,1.3
			c2,0.8,3.9,0.7,5.8-0.4c0.6,0.6,0.7,1.7,1.8,1.8l0,0c0.1,0.2,0.3,0.3,0.5,0.4l0,0c0.1,0.2,0.3,0.3,0.5,0.5l0,0
			c0.1,0.2,0.4,0.2,0.4,0.5c0.6,0.8,1.1,1.6,0.9,2.7c-0.1,0.8,0.1,1.5,0.9,1.9c0.5,0.8,0.3,1.4-0.7,1.7c-0.8,0.3-1.1,1-0.9,1.6
			c0.9,2.6,0.1,5.4,0.6,8l0,0c0.3,0.2,0.2,0.7,0.5,0.9c0,0.1,0,0.3,0,0.5c-0.3,0.6-0.8,0.8-1.4,1c-3.6,1.6-7.3,3.1-10.3,5.8
			c-1.3,1.2-2.2,2.7-2.7,4.3c-0.3,0.9,0,1.9,0.5,2.8c0.4,0.7,0.7,1.6-0.1,2.3c-0.3,0.3-0.9,0.2-1.3-0.1c-0.8-0.5-1.4-1.2-1.3-2.2
			c0.1-0.6,0.8-0.9,0.7-1.6c0.3-1.8,1-3.7-0.5-5.3c-0.3-0.3-0.5-0.8-0.3-1.2c0.6-1-0.1-1.9-0.3-2.8c-0.3-1.4-0.5-2.9-2-3.8
			c-0.6-0.4-0.4-1.4-0.7-2.1c-0.3-1-0.2-2.4-1.7-2.5c-1.1-0.9-2.2-1.4-3.7-1c-1.1,0.3-2.2-0.2-3.3-0.4c-0.6-0.1-0.6-0.6-0.7-1
			c-0.2-0.9-0.6-1.3-1.6-0.8c-1.6,0.8-2.5,0.3-2.9-1.5c-0.2-1.2-0.2-2.5,0.7-3.2C48.3,65.4,48.1,64.1,47.8,62.6z"/>
		<polygon class="st65" points="68.3,90.3 68.1,90.2 68.2,90.1 		"/>
		<path class="st103" d="M79.2,78.5c-0.8-1.1-0.5-2.3-0.3-3.5c0.2-0.7,0.1-1.2-0.3-1.9c-0.6-1-0.9-2.1-0.7-3.4
			c0.1-1.1,0.1-1.7,1.5-1.4c0.8,0.2,0.6-0.7,0.6-1.2c0.6,0.9,1.3,1.7,0,2.6c-0.7,0.6-0.9,1.9-0.7,2.5c0.6,1.8-0.3,3.4-0.2,5.1
			C79.2,77.8,79.2,78.1,79.2,78.5z"/>
		<path class="st98" d="M78.3,62.6c-0.1-0.2-0.3-0.3-0.4-0.5c0.4,0,0.7,0.1,0.9,0.5C78.6,62.6,78.4,62.6,78.3,62.6z"/>
		<path class="st103" d="M79.7,79.4c-0.4-0.2-0.4-0.5-0.5-0.9C79.6,78.7,79.6,79,79.7,79.4z"/>
		<path class="st101" d="M63.8,55.3c0-0.1-0.1-0.3-0.1-0.4c0.2,0.1,0.3,0.3,0.5,0.4C64,55.3,63.9,55.3,63.8,55.3z"/>
		<path class="st98" d="M77.8,62.1c-0.1-0.2-0.3-0.3-0.5-0.5C77.5,61.8,77.7,62,77.8,62.1z"/>
		<path class="st98" d="M77.4,61.7c-0.2-0.1-0.3-0.3-0.5-0.4C77.1,61.4,77.2,61.5,77.4,61.7z"/>
	</g>
	<g>
		<g>
			<path class="st104" d="M112.8,73.7c-0.4-12-7.7-24.5-16.3-32.5c-4.4-4.1-9.5-7.3-15.1-9.5c-5.7-2.3-11.6-2.7-17.6-2.6
				c-3.4,0-6.8,0.7-10.1,1.5c-3.2,0.8-6.1,2.4-9.2,3.5c-5.4,1.9-10.1,5-14.2,9c-4.3,4.1-7.6,8.5-9.7,14.1c-2,5.4-2.6,11.5-2.2,17.2
				c0.3,5.3,1.4,11.2,3.9,15.9c2.7,5.1,7.6,9.5,12.7,12.1c0.2,0.1,1.7,1.1,1,0.5c0.5,0.5,1.2,0.9,1.8,1.3c1.1,0.8,2.5,1.3,3.7,1.8
				c1.4,0.6,2.7,1.4,4.1,2c1,0.4,3.4,0.8,3.8,1.9c0.9,2.3,1,4.9,1.1,7.3c0.1,2.9,0.9,5.7,1.2,8.5c-0.7,0.5-1.1,1.4-0.4,2.3
				c2.8,3.7,7.7,4.1,12,4.1c2.7,0,5.4,0,8.1-0.6c1.4-0.3,2.7-0.4,4-0.8c0.5-0.2,1.2-0.3,1.6-0.6c0,0,0,0,0,0c2,0.7,4.7-0.3,4.7-3.1
				c0-3.2,0.8-15.2,1.3-18.1c0.4-2.4,2.6-4.2,4.4-5.6c2.1-1.6,4.5-3,6.9-4.3c4.5-2.5,9.1-4.9,12.7-8.8
				C111.3,85.7,113,79.7,112.8,73.7z M104.3,82.5c-1.8,3.7-5.5,6.1-8.9,8.1c-4,2.3-8.1,4.2-11.7,7c-2,1.5-4,3.2-5.4,5.3
				c-1.6,2.3-2.1,5-2.1,7.8c0,2.7-0.1,4.9-0.6,7.6c-0.5,2.7-0.5,5.4-0.5,8.2c-0.9,0.2-1.8,0.5-2.8,0.7c-2.3,0.5-4.6,0.6-7,0.7
				c-2.6,0-6,0.3-8.6-0.7c0.1-0.3,0.2-0.6,0.2-1c0-2.8-0.7-5.6-0.6-8.4c0.1-2.8-0.1-5.6-0.7-8.3c-0.6-2.8-2.2-4.8-4.8-6
				c-2.9-1.3-5.8-2.5-8.6-4c-1.3-0.7-2.3-1.8-3.7-2.4c-1.1-0.5-2.1-1.1-3.1-1.8c-2.5-1.6-4.8-3.9-6.5-6.4c-3.1-4.5-4-10.7-4.2-16
				c-0.2-5.6,0.7-11.4,3.1-16.4c2.3-4.7,6.6-9,10.8-12.1c2.1-1.6,4.4-2.8,6.9-3.8c3.3-1.3,6.5-2.8,9.9-3.7c6-1.7,12.8-1.8,18.8-0.5
				c9.7,2.2,18.4,8.8,23.9,17C103.4,61.4,108.9,72.9,104.3,82.5z"/>
			<path class="st104" d="M87.5,74.8c-0.4-1.8-1-3.9-2.2-5.3c-3.3-3.9-8.7-3.9-13-1.9c-1-1.1-2.3-2-3.8-2.6c-3.3-1.3-7-0.9-10.2,0.3
				c-1.4,0.5-2.7,1.4-3.8,2.4c-2.2-0.6-4.6-0.7-6.6-0.1c-2.5,0.8-4.5,3.3-5.6,5.7c-1.1,2.5-1.3,5.6-1.2,8.3
				c0.2,4.6,1.9,9.4,5.3,12.6c2.9,2.7,8.2,2.8,10.2,6.2c0.5,0.9,1.5,2.4,1.5,3.5c0,0.8,0.3,1.5,0.6,2.3c0.3,0.7,0.8,1.1,1.2,1.7
				c0.5,0.8,1.8,1.1,2.3,0.1c0.9-1.6,0.4-3.1-0.1-4.8c-0.5-1.8-1.2-3.5-2.2-5c-1.4-2.2-6.9-6-9.6-5.7c-0.2-0.1-0.4-0.3-0.5-0.4
				c-3-2.3-4.2-5.9-4.7-9.5c-0.4-3.4-0.1-7.3,2.3-10c1.1-1.2,2.7-1.5,4.3-1.3c-0.1,0.3-0.2,0.6-0.3,0.9c-1,3.5,0.2,7.3,2.5,10
				c2.2,2.6,6.2,2.4,8.3-0.2c2.2-2.7,1.6-7-0.3-9.7c-0.9-1.3-1.9-2.1-3.1-2.8c0.7-0.4,1.5-0.7,2.2-0.9c2.6-0.7,5.6-0.5,7.6,1.3
				c-2,1.8-3.3,4.2-3.8,6.8c-0.4,2.5,0.2,5,1.7,7.2c2.1,3.1,5.5,1.9,7.4-0.7c2.1-2.9,1.9-7,1-10.3c-0.2-0.6-0.4-1.2-0.6-1.8
				c1.3-0.5,2.7-0.8,4.1-0.7c1.1,0.1,2.1,0.6,3,1.3c1.2,0.9,1.6,3,1.9,4.4c0.4,1.6,0.5,3.3,0.3,5c-0.2,1.4-1.6,2.9-2.7,3.8
				c-1.2,1-2.7,1.4-4.1,1.9c-1.8,0.6-3.4,1.7-4.7,3c-1.8,1.8-3.1,4.1-3.6,6.6c-0.7,3.1-0.5,6.2-0.6,9.4c-0.1,2.7,4.1,2.9,4.2,0.2
				c0.2-4.2-0.5-8.5,2.1-12.2c2.1-3,5.7-3.1,8.5-5.1c2.9-2,5-5.1,5.2-8.6C88.2,78.3,87.9,76.5,87.5,74.8z M59.2,75.5
				c0.5,1.1,0.8,3.1-0.1,4.1c-0.8,0.8-1.6,0.3-2.2-0.4c-1.1-1.3-1.5-3-1.5-4.7c0-0.8,0.2-1.5,0.6-2.1c0.2,0.1,0.3,0.1,0.5,0.2
				C57.7,73.1,58.6,74.3,59.2,75.5z M71,80.2c-0.2,0.4-0.5,1-1,1.3c-0.5-0.9-0.8-1.9-1.1-2.8c0,0,0-0.1,0-0.1c0-0.3,0-0.7,0.1-1
				c0.1-0.6,0.3-1.1,0.5-1.7c0.3-0.9,0.9-1.7,1.6-2.4C71.8,75.7,72,78.4,71,80.2z"/>
			<path class="st104" d="M80.8,132.4c0.3-0.2-0.9,0.1-1,0.2c-0.4,0.2-0.9,0.4-1.3,0.6c-1,0.5-2,1-3,1.5c-2.5,1.3-5.5,1.8-8.3,2.3
				c-5.1,1-10.4,0.3-14.7-2.8c-1.2-0.9-2.2,0.9-1.5,1.9c3.9,4.8,10.9,5.7,16.6,4.8c3.3-0.5,6.9-1,9.9-2.7c2.1-1.1,5.1-1.9,5.2-4.8
				C82.7,132.5,81.7,132,80.8,132.4z"/>
			<path class="st104" d="M82.3,139.4c-2.3,0.4-4.1,2.2-6.2,3.1c-2.6,1-5.3,1.3-8.1,1.3c-3.1,0-6.2,0-9.3-0.3
				c-2-0.2-4.8-0.8-6.1-2.5c-1.3-1.7-4.2,0.5-2.9,2.3c1.7,2.4,4.4,3.1,7,4c1.5,0.5,3.5,0.5,5.1,0.6c1.9,0.1,3.8,0.1,5.7,0.2
				c3.3,0,6.6-0.3,9.7-1.5c2.7-1,6-2.6,6.7-5.6C84.1,139.9,83.3,139.2,82.3,139.4z"/>
			<path class="st104" d="M84.2,147.6c-2.3-0.6-5.1,1-7.2,1.7c-2.6,0.9-5.3,1.4-8.1,1.6c-2.6,0.2-5.2,0.1-7.8-0.1
				c-2.7-0.3-4.4-1.5-6.5-2.9c-2-1.3-3.8,1.8-1.9,3.2c2.2,1.5,4.1,2.9,6.8,3.4c0.8,0.2,1.6,0.3,2.5,0.4c-0.7,1.4-0.9,3-0.2,4.6
				c1,2.3,3.3,3.4,5.7,3.6c4.2,0.3,9.1-3.6,8.3-8c-0.1-0.4-0.3-0.7-0.6-0.9c0.6-0.2,1.3-0.3,1.9-0.5c1.5-0.4,3-0.9,4.4-1.6
				c1.3-0.6,2.8-1.2,3.5-2.5C85.3,148.8,85,147.9,84.2,147.6z M73.1,154.6c-1.2,1.9-2.4,3.7-4.7,4.2c-1,0.2-2.1-0.1-2.8-0.8
				c-0.8-0.8-0.4-2.2,0.1-3c0.9,0,1.8,0,2.7,0c1.6,0,3.2-0.2,4.8-0.5C73.1,154.6,73.1,154.6,73.1,154.6z"/>
		</g>
		<path class="st104" d="M36.3,25c-0.9-0.5-1.8-0.9-2.6-1.7c-0.8-0.8-1.2-2-2-2.8c-0.7-0.6-1.4-1.2-2.1-1.8
			c-0.4-0.3-0.7-0.6-1.1-0.9c-0.4-0.4-0.6-0.9-0.4-0.1c-1-3.8-6.2-2.1-5.7,1.6c0,0.2,0,0.7,0,0.9c0.1,1.7,1.3,2.6,2.6,2.8
			c0.7,0.6,1.5,1.2,2.1,1.8c1,0.9,1.6,2.4,2.5,3.3c1.2,1.2,2.7,2.1,4.4,2.4C37.1,31,39.5,26.6,36.3,25z"/>
		<path class="st104" d="M61,14.1c-1.2-1.8-2.1-3.5-2.7-5.6c-0.6-2.2-0.7-4.4-1-6.6c-0.4-2.6-4.9-2.6-5.2,0
			c-0.8,5.2,0.4,12,4.3,15.8C58.7,20,62.9,17,61,14.1z"/>
		<path class="st104" d="M86.1,10.3c-0.1,1-0.9,1.8-1.5,2.6c-0.4,0.6-0.8,1.1-1.2,1.7c0,0,0,0,0,0.1c-0.1,0-0.2,0.1-0.4,0.3
			c-2.3,1.6-4.3,5.8-1.7,8c0.8,0.7,2.2,1.1,3.1,0.4c1.4-1,1.5-1.9,1.9-3.4c-0.1,0.3,0.8-0.4,0.4-0.1c0.8-0.5,1.3-0.9,1.7-1.7
			c1.3-2.4,3.3-4.1,3.4-7C92,7.8,86.5,7,86.1,10.3z"/>
		<path class="st104" d="M116.1,22.7c-0.1,0.1-0.3,0.4-0.2,0.2c-0.1,0-0.1,0.1-0.1,0.1c0,0-0.1,0-0.1,0c-0.7,0.1-1.3,0.7-1.8,1.2
			l-2.5,2.5c-0.9,0.9-1.4,1.9-2.1,3c-1.3,2.2,1.2,4.7,3.5,3.5c1.1-0.6,2.1-1.1,3-2.1l2.3-2.3c2.1-0.8,3.7-3.2,3.9-5.3
			C122.4,20.2,116.7,19.5,116.1,22.7z"/>
		<path class="st104" d="M9.3,35.2c-1-0.5-2-0.6-3-1.1c-1.1-0.5-2.2-0.9-3.5-1C-0.2,33-1,37.7,1.6,38.7c0.7,0.8,1.8,1.1,2.8,0.9
			c0.2,0.1,0.3,0.2,0.5,0.3c0.7,0.3,1.3,0.5,2,0.6c1.8,1,3.6,2.2,5.7,1.7c1-0.2,1.4-1.1,1.5-2C14.3,37.5,11.4,36.3,9.3,35.2z"/>
	</g>
</g>
</svg>
