<?xml version="1.0" encoding="utf-8"?>
<!-- Generator: Adobe Illustrator 21.1.0, SVG Export Plug-In . SVG Version: 6.00 Build 0)  -->
<svg version="1.1" id="Isolation_Mode" xmlns="http://www.w3.org/2000/svg" xmlns:xlink="http://www.w3.org/1999/xlink" x="0px"
	 y="0px" viewBox="0 0 146 58.4" style="enable-background:new 0 0 146 58.4;" xml:space="preserve">
<style type="text/css">
	.st0{fill:#999999;}
	.st1{fill:#C1272D;}
	.st2{fill:#4D4D4D;}
	.st3{fill:#ED1C24;}
	.st4{fill:url(#SVGID_1_);}
	.st5{fill:#29ABE2;}
	.st6{fill:#3FA9F5;}
</style>
<g>
	<g>
		<rect x="32.2" y="29.4" class="st0" width="5.3" height="20.2"/>
	</g>
	<g>
		<path class="st1" d="M41.5,33.6L41.5,33.6c0-2.4,1.8-4.3,4.3-4.3c1.7,0,2.8,0.7,3.5,1.7l-1.7,1.3c-0.5-0.6-1-1-1.8-1
			c-1.2,0-2,1-2,2.2v0c0,1.2,0.8,2.2,2,2.2c0.9,0,1.4-0.4,1.9-1l1.7,1.2c-0.8,1.1-1.8,1.9-3.6,1.9C43.4,37.9,41.5,36.1,41.5,33.6z"
			/>
		<path class="st1" d="M49.6,35.9L49.6,35.9c0-1.3,1-2,2.5-2c0.6,0,1.2,0.1,1.5,0.2V34c0-0.7-0.4-1-1.3-1c-0.7,0-1.2,0.1-1.8,0.4
			l-0.5-1.6c0.7-0.3,1.5-0.5,2.6-0.5c1.1,0,1.9,0.3,2.4,0.8c0.5,0.5,0.7,1.1,0.7,2v3.7h-2.2v-0.7c-0.4,0.5-1,0.8-1.9,0.8
			C50.6,37.9,49.6,37.2,49.6,35.9z M53.7,35.4v-0.3C53.5,35,53.2,35,52.8,35c-0.6,0-1,0.3-1,0.8v0c0,0.4,0.3,0.7,0.8,0.7
			C53.2,36.5,53.7,36.1,53.7,35.4z"/>
		<path class="st1" d="M56.8,31.4H59v0.9c0.4-0.5,1-1,1.9-1c1.4,0,2.2,0.9,2.2,2.3v4.2h-2.2v-3.4c0-0.7-0.4-1.1-0.9-1.1
			c-0.5,0-0.9,0.4-0.9,1.1v3.4h-2.2V31.4z"/>
		<path class="st1" d="M63.7,34.6L63.7,34.6c0-1.8,1.4-3.3,3.4-3.3c1.3,0,2.2,0.6,2.7,1.4l-1.5,1.1c-0.3-0.4-0.6-0.7-1.2-0.7
			c-0.7,0-1.2,0.6-1.2,1.4v0c0,0.8,0.5,1.4,1.3,1.4c0.5,0,0.9-0.2,1.2-0.7l1.5,1.1c-0.6,0.9-1.4,1.5-2.8,1.5
			C65.1,37.9,63.7,36.4,63.7,34.6z"/>
		<path class="st1" d="M70,34.6L70,34.6c0-1.9,1.3-3.4,3.2-3.4c2.2,0,3.2,1.6,3.2,3.5c0,0.1,0,0.3,0,0.5h-4.3c0.2,0.7,0.7,1,1.4,1
			c0.5,0,1-0.2,1.4-0.6l1.2,1c-0.6,0.8-1.5,1.3-2.8,1.3C71.4,37.9,70,36.6,70,34.6z M74.3,34c-0.1-0.7-0.5-1.2-1.1-1.2
			c-0.6,0-1,0.5-1.1,1.2H74.3z"/>
		<path class="st1" d="M77.2,31.4h2.2v1.3c0.4-0.9,1-1.4,2-1.4v2.4h-0.2c-1.2,0-1.8,0.7-1.8,2.1v2h-2.2V31.4z"/>
		<path class="st2" d="M84.4,33.6L84.4,33.6c0-2.4,1.9-4.3,4.4-4.3c1.4,0,2.5,0.4,3.3,1.2l-1.3,1.6c-0.6-0.5-1.2-0.8-2-0.8
			c-1.2,0-2.1,1-2.1,2.3v0c0,1.3,0.9,2.3,2.2,2.3c0.6,0,1-0.1,1.3-0.3v-1h-1.6v-1.7h3.8v3.7c-0.9,0.7-2.1,1.3-3.6,1.3
			C86.3,37.9,84.4,36.1,84.4,33.6z"/>
		<path class="st2" d="M93.1,34.6L93.1,34.6c0-1.9,1.3-3.4,3.2-3.4c2.2,0,3.2,1.6,3.2,3.5c0,0.1,0,0.3,0,0.5h-4.3
			c0.2,0.7,0.7,1,1.4,1c0.5,0,1-0.2,1.4-0.6l1.2,1c-0.6,0.8-1.5,1.3-2.8,1.3C94.5,37.9,93.1,36.6,93.1,34.6z M97.4,34
			c-0.1-0.7-0.5-1.2-1.1-1.2c-0.6,0-1,0.5-1.1,1.2H97.4z"/>
		<path class="st2" d="M100.2,31.4h2.2v0.9c0.4-0.5,1-1,1.9-1c1.4,0,2.2,0.9,2.2,2.3v4.2h-2.2v-3.4c0-0.7-0.4-1.1-0.9-1.1
			c-0.5,0-0.9,0.4-0.9,1.1v3.4h-2.2V31.4z"/>
		<path class="st2" d="M107.2,34.6L107.2,34.6c0-1.8,1.5-3.4,3.5-3.4c2,0,3.5,1.5,3.5,3.3v0c0,1.8-1.5,3.3-3.5,3.3
			C108.6,37.9,107.2,36.4,107.2,34.6z M112,34.6L112,34.6c0-0.8-0.6-1.5-1.4-1.5c-0.8,0-1.3,0.6-1.3,1.4v0c0,0.8,0.6,1.4,1.4,1.4
			C111.5,36,112,35.3,112,34.6z"/>
		<path class="st2" d="M114.7,31.4h2.2v0.9c0.4-0.5,1-1,1.9-1c0.8,0,1.5,0.4,1.8,1c0.6-0.6,1.2-1,2.1-1c1.4,0,2.2,0.8,2.2,2.3v4.2
			h-2.2v-3.5c0-0.7-0.3-1.1-0.9-1.1c-0.5,0-0.9,0.4-0.9,1.1v3.5h-2.2v-3.5c0-0.7-0.3-1.1-0.9-1.1c-0.5,0-0.9,0.4-0.9,1.1v3.5h-2.2
			V31.4z"/>
		<path class="st2" d="M125.6,34.6L125.6,34.6c0-1.9,1.3-3.4,3.2-3.4c2.2,0,3.2,1.6,3.2,3.5c0,0.1,0,0.3,0,0.5h-4.3
			c0.2,0.7,0.7,1,1.4,1c0.5,0,1-0.2,1.4-0.6l1.2,1c-0.6,0.8-1.5,1.3-2.8,1.3C127,37.9,125.6,36.6,125.6,34.6z M129.9,34
			c-0.1-0.7-0.5-1.2-1.1-1.2c-0.6,0-1,0.5-1.1,1.2H129.9z"/>
		<path class="st2" d="M41.5,45.2L41.5,45.2c0-2.4,1.8-4.3,4.3-4.3c1.7,0,2.8,0.7,3.5,1.7l-1.7,1.3c-0.5-0.6-1-1-1.8-1
			c-1.2,0-2,1-2,2.2v0c0,1.2,0.8,2.2,2,2.2c0.9,0,1.4-0.4,1.9-1l1.7,1.2c-0.8,1.1-1.8,1.9-3.6,1.9C43.4,49.4,41.5,47.6,41.5,45.2z"
			/>
		<path class="st2" d="M49.3,45.2L49.3,45.2c0-2.4,1.9-4.3,4.4-4.3s4.4,1.9,4.4,4.3v0c0,2.4-1.9,4.3-4.4,4.3
			C51.2,49.4,49.3,47.6,49.3,45.2z M55.9,45.2L55.9,45.2c0-1.2-0.9-2.2-2.1-2.2c-1.2,0-2.1,1-2.1,2.2v0c0,1.2,0.9,2.2,2.1,2.2
			C55,47.4,55.9,46.4,55.9,45.2z"/>
		<path class="st2" d="M58.9,41h2.3v6.2h4v2h-6.3V41z"/>
		<path class="st2" d="M65.9,41h2.3v6.2h4v2h-6.3V41z"/>
		<path class="st2" d="M75.6,41h2.2l3.5,8.3h-2.4l-0.6-1.5H75l-0.6,1.5h-2.4L75.6,41z M77.6,46l-0.9-2.3L75.7,46H77.6z"/>
		<path class="st2" d="M81.8,41h4.2c1,0,1.8,0.3,2.2,0.7c0.3,0.3,0.5,0.8,0.5,1.3v0c0,1-0.5,1.5-1.3,1.8c1,0.3,1.6,0.9,1.6,2v0
			c0,1.4-1.2,2.3-3.1,2.3h-4.2V41z M85.5,44.3c0.7,0,1.1-0.2,1.1-0.7v0c0-0.4-0.4-0.7-1-0.7h-1.5v1.4H85.5z M85.8,47.4
			c0.7,0,1.1-0.3,1.1-0.8v0c0-0.4-0.4-0.7-1.1-0.7h-1.7v1.5H85.8z"/>
		<path class="st2" d="M89.5,45.2L89.5,45.2c0-2.4,1.9-4.3,4.4-4.3s4.4,1.9,4.4,4.3v0c0,2.4-1.9,4.3-4.4,4.3
			C91.4,49.4,89.5,47.6,89.5,45.2z M96,45.2L96,45.2c0-1.2-0.9-2.2-2.1-2.2c-1.2,0-2.1,1-2.1,2.2v0c0,1.2,0.9,2.2,2.1,2.2
			C95.2,47.4,96,46.4,96,45.2z"/>
		<path class="st2" d="M98.8,41h3.9c1.3,0,2.1,0.3,2.7,0.9c0.5,0.5,0.7,1.1,0.7,1.9v0c0,1.3-0.7,2.1-1.7,2.5l2,2.9h-2.6l-1.7-2.5h-1
			v2.5h-2.3V41z M102.6,45c0.8,0,1.2-0.4,1.2-1v0c0-0.6-0.5-1-1.2-1h-1.5v2H102.6z"/>
		<path class="st2" d="M109.5,41h2.2l3.5,8.3h-2.4l-0.6-1.5H109l-0.6,1.5H106L109.5,41z M111.5,46l-0.9-2.3l-0.9,2.3H111.5z"/>
		<path class="st2" d="M116.5,43H114v-2h7.2v2h-2.5v6.2h-2.3V43z"/>
		<path class="st2" d="M120.9,45.2L120.9,45.2c0-2.4,1.9-4.3,4.4-4.3c2.5,0,4.4,1.9,4.4,4.3v0c0,2.4-1.9,4.3-4.4,4.3
			C122.8,49.4,120.9,47.6,120.9,45.2z M127.5,45.2L127.5,45.2c0-1.2-0.9-2.2-2.1-2.2c-1.2,0-2.1,1-2.1,2.2v0c0,1.2,0.9,2.2,2.1,2.2
			C126.6,47.4,127.5,46.4,127.5,45.2z"/>
		<path class="st2" d="M130.5,41h3.9c1.3,0,2.1,0.3,2.7,0.9c0.5,0.5,0.7,1.1,0.7,1.9v0c0,1.3-0.7,2.1-1.7,2.5l2,2.9h-2.6l-1.7-2.5
			h-1v2.5h-2.3V41z M134.3,45c0.8,0,1.2-0.4,1.2-1v0c0-0.6-0.5-1-1.2-1h-1.5v2H134.3z"/>
		<path class="st2" d="M140.6,46.2l-3.1-5.2h2.6l1.7,3l1.7-3h2.6l-3.1,5.1v3.1h-2.3V46.2z"/>
	</g>
	<path class="st1" d="M8.5,8.6c-5.2,5.2-8.2,12-8.5,19.5h5.3c0.3-6.1,2.7-11.5,7-15.7c4.5-4.5,10.4-7,16.7-7V0
		C21.3,0.1,14,3.2,8.5,8.6z"/>
	<path class="st3" d="M12.3,46.1c-4.2-4.2-6.6-9.6-7-15.5H0c0.3,7.3,3.3,14.1,8.5,19.3c5.5,5.5,12.7,8.5,20.5,8.6v-5.3
		C22.7,53,16.8,50.6,12.3,46.1z"/>
	<linearGradient id="SVGID_1_" gradientUnits="userSpaceOnUse" x1="8.831" y1="29.2108" x2="29.5546" y2="29.2108">
		<stop  offset="0" style="stop-color:#666666"/>
		<stop  offset="1" style="stop-color:#B3B3B3"/>
	</linearGradient>
	<path class="st4" d="M14.1,29.2c0-8.2,6.7-14.9,14.9-15V8.9c-5.4,0.1-10.4,2.2-14.2,6c-3.8,3.8-6,9-6,14.4c0,5.4,2.1,10.6,6,14.4
		c3.8,3.8,8.9,5.9,14.2,6v-5.3C20.8,44.2,14.1,37.4,14.1,29.2z"/>
	<path class="st5" d="M23.2,30.6h-5.4c0.7,5.6,5.5,10.1,11.2,10.2v-5.4C26.2,35.3,23.8,33.4,23.2,30.6z"/>
	<path class="st6" d="M17.7,28.1h5.4c0.6-3,3-4.9,5.9-5v-5.3C23.2,17.9,18.4,22.3,17.7,28.1z"/>
</g>
<g>
	<path d="M38.3,2.8c0,0.8-0.3,1.4-0.8,1.8c-0.5,0.4-1.3,0.6-2.3,0.6h-0.9v3.1h-0.9V0.5h2C37.3,0.5,38.3,1.3,38.3,2.8z M34.2,4.5h0.8
		c0.8,0,1.4-0.1,1.8-0.4s0.5-0.7,0.5-1.3c0-0.5-0.2-0.9-0.5-1.2S36,1.3,35.3,1.3h-1V4.5z"/>
	<path d="M44.9,5.4c0,1-0.2,1.7-0.7,2.2s-1.2,0.8-2,0.8c-0.5,0-1-0.1-1.4-0.4C40.4,7.8,40,7.5,39.8,7c-0.2-0.5-0.3-1-0.3-1.6
		c0-1,0.2-1.7,0.7-2.2s1.1-0.8,2-0.8c0.8,0,1.5,0.3,2,0.8C44.7,3.7,44.9,4.5,44.9,5.4z M40.4,5.4c0,0.8,0.2,1.3,0.5,1.7
		c0.3,0.4,0.7,0.6,1.3,0.6s1-0.2,1.3-0.6c0.3-0.4,0.5-1,0.5-1.7c0-0.7-0.2-1.3-0.5-1.7c-0.3-0.4-0.7-0.6-1.3-0.6
		c-0.6,0-1,0.2-1.3,0.6S40.4,4.6,40.4,5.4z"/>
	<path d="M51.3,8.4l-1.1-3.5c-0.1-0.2-0.2-0.7-0.4-1.4h0c-0.1,0.6-0.3,1.1-0.4,1.4l-1.1,3.4h-1l-1.6-5.9h0.9
		c0.4,1.5,0.7,2.6,0.9,3.4c0.2,0.8,0.3,1.3,0.3,1.6h0c0-0.2,0.1-0.5,0.2-0.8c0.1-0.3,0.2-0.6,0.2-0.8l1.1-3.4h1l1.1,3.4
		c0.2,0.6,0.3,1.1,0.4,1.6h0c0-0.1,0.1-0.3,0.1-0.6C52,6.5,52.3,5.1,53,2.5H54l-1.6,5.9H51.3z"/>
	<path d="M57.5,8.5c-0.9,0-1.6-0.3-2.1-0.8c-0.5-0.5-0.8-1.3-0.8-2.2c0-0.9,0.2-1.7,0.7-2.3c0.5-0.6,1.1-0.8,1.9-0.8
		c0.7,0,1.3,0.2,1.8,0.7s0.6,1.1,0.6,1.9v0.6h-4.1c0,0.7,0.2,1.2,0.5,1.6c0.3,0.4,0.8,0.5,1.4,0.5c0.6,0,1.3-0.1,1.9-0.4v0.8
		c-0.3,0.1-0.6,0.2-0.9,0.3C58.2,8.4,57.9,8.5,57.5,8.5z M57.3,3.1c-0.5,0-0.8,0.2-1.1,0.5c-0.3,0.3-0.4,0.7-0.5,1.3h3.1
		c0-0.6-0.1-1-0.4-1.3S57.7,3.1,57.3,3.1z"/>
	<path d="M63.9,2.4c0.3,0,0.5,0,0.7,0.1l-0.1,0.8c-0.2-0.1-0.5-0.1-0.6-0.1c-0.5,0-0.9,0.2-1.2,0.6c-0.3,0.4-0.5,0.9-0.5,1.4v3.2
		h-0.9V2.5h0.7L62,3.6h0c0.2-0.4,0.5-0.7,0.8-0.9S63.5,2.4,63.9,2.4z"/>
	<path d="M68.2,8.5c-0.9,0-1.6-0.3-2.1-0.8c-0.5-0.5-0.8-1.3-0.8-2.2c0-0.9,0.2-1.7,0.7-2.3c0.5-0.6,1.1-0.8,1.9-0.8
		c0.7,0,1.3,0.2,1.8,0.7s0.6,1.1,0.6,1.9v0.6h-4.1c0,0.7,0.2,1.2,0.5,1.6c0.3,0.4,0.8,0.5,1.4,0.5c0.6,0,1.3-0.1,1.9-0.4v0.8
		c-0.3,0.1-0.6,0.2-0.9,0.3C68.9,8.4,68.6,8.5,68.2,8.5z M67.9,3.1c-0.5,0-0.8,0.2-1.1,0.5c-0.3,0.3-0.4,0.7-0.5,1.3h3.1
		c0-0.6-0.1-1-0.4-1.3S68.4,3.1,67.9,3.1z"/>
	<path d="M75.9,7.6L75.9,7.6c-0.5,0.6-1.1,0.9-1.9,0.9c-0.8,0-1.4-0.3-1.8-0.8c-0.4-0.5-0.6-1.3-0.6-2.2c0-1,0.2-1.7,0.6-2.3
		s1-0.8,1.8-0.8c0.8,0,1.4,0.3,1.8,0.9h0.1l0-0.4l0-0.4V0h0.9v8.4H76L75.9,7.6z M74.1,7.7c0.6,0,1-0.2,1.3-0.5
		c0.3-0.3,0.4-0.9,0.4-1.6V5.4c0-0.8-0.1-1.4-0.4-1.8c-0.3-0.4-0.7-0.5-1.3-0.5c-0.5,0-0.9,0.2-1.2,0.6c-0.3,0.4-0.4,1-0.4,1.7
		c0,0.8,0.1,1.3,0.4,1.7S73.5,7.7,74.1,7.7z"/>
	<path d="M84.2,2.4c0.8,0,1.4,0.3,1.8,0.8c0.4,0.5,0.6,1.3,0.6,2.2S86.4,7.1,86,7.7c-0.4,0.5-1,0.8-1.8,0.8c-0.4,0-0.7-0.1-1-0.2
		c-0.3-0.1-0.6-0.4-0.8-0.7h-0.1l-0.2,0.8h-0.6V0h0.9v2c0,0.5,0,0.9,0,1.2h0C82.8,2.7,83.4,2.4,84.2,2.4z M84.1,3.1
		c-0.6,0-1,0.2-1.3,0.5c-0.3,0.3-0.4,0.9-0.4,1.8c0,0.8,0.1,1.4,0.4,1.8s0.7,0.5,1.3,0.5c0.5,0,1-0.2,1.2-0.6s0.4-1,0.4-1.7
		c0-0.8-0.1-1.3-0.4-1.7S84.6,3.1,84.1,3.1z"/>
	<path d="M87.3,2.5h1l1.3,3.4C89.8,6.6,90,7.1,90,7.5h0c0-0.2,0.1-0.5,0.3-0.9c0.1-0.4,0.6-1.8,1.5-4.1h1l-2.5,6.7
		c-0.2,0.7-0.5,1.1-0.9,1.4S88.6,11,88.1,11c-0.3,0-0.5,0-0.8-0.1v-0.7c0.2,0,0.4,0.1,0.7,0.1c0.6,0,1-0.3,1.3-1l0.3-0.8L87.3,2.5z"
		/>
	<path d="M93.6,3c0-0.5,0.2-0.7,0.6-0.7c0.4,0,0.7,0.2,0.7,0.7c0,0.2-0.1,0.4-0.2,0.5c-0.1,0.1-0.3,0.2-0.5,0.2
		c-0.2,0-0.3-0.1-0.5-0.2C93.7,3.5,93.6,3.3,93.6,3z M93.6,7.8c0-0.2,0.1-0.4,0.2-0.5c0.1-0.1,0.3-0.2,0.5-0.2
		c0.2,0,0.4,0.1,0.5,0.2c0.1,0.1,0.2,0.3,0.2,0.5c0,0.2-0.1,0.4-0.2,0.5s-0.3,0.2-0.5,0.2c-0.2,0-0.3-0.1-0.5-0.2
		C93.7,8.2,93.6,8,93.6,7.8z"/>
</g>
</svg>
