<svg id="Layer_1" data-name="Layer 1" xmlns="http://www.w3.org/2000/svg" xmlns:xlink="http://www.w3.org/1999/xlink" viewBox="0 0 671.58 133.76"><defs><style>.cls-1{fill:#201c1d;}.cls-2{fill:#010101;}.cls-3{fill:#f6a81c;}.cls-4{fill:#989898;}.cls-5{fill:#c1282d;}.cls-6{fill:#4e4e4e;}.cls-7{fill:#ec2227;}.cls-8{fill:url(#linear-gradient);}.cls-9{fill:#2aaae2;}.cls-10{fill:#55a4db;}</style><linearGradient id="linear-gradient" x1="357.75" y1="16.88" x2="405.15" y2="16.88" gradientTransform="matrix(1, 0, 0, -1, 0, 83.69)" gradientUnits="userSpaceOnUse"><stop offset="0" stop-color="#676767"/><stop offset="1" stop-color="#b4b4b4"/></linearGradient></defs><title>logos-AWS-Cancer-Collaborator</title><path id="path243" class="cls-1" d="M97.44,62.05c-5.9,0-12.49,2.28-13.87,9.76a1,1,0,0,0,.88,1.29l6,.73c.56,0,.94-.64,1-1.21a4.74,4.74,0,0,1,5-3.79A4,4,0,0,1,100,70.44c.87,1.31.81,3.09.81,4.6v.88c-3.6.42-8.33.67-11.7,2.18a10.84,10.84,0,0,0-6.61,10.41c0,6.62,4,9.92,9.27,9.92,4.41,0,6.85-1,10.25-4.6a15.31,15.31,0,0,0,3.55,4.2,1.24,1.24,0,0,0,1.45-.17V98c1.24-1.13,3.49-3.19,4.76-4.28a1.23,1.23,0,0,0,0-1.69c-1.14-1.61-2.34-2.91-2.34-5.89V76.17c0-4.21.35-8.08-2.66-11C104.42,62.86,100.45,62.05,97.44,62.05Zm81.31,0c-5.91,0-12.49,2.28-13.88,9.76a1.05,1.05,0,0,0,.89,1.29l6.05.73c.56,0,.94-.64,1.05-1.21a4.74,4.74,0,0,1,5-3.79,4,4,0,0,1,3.47,1.61c.86,1.31.72,3.09.72,4.6v.88c-3.59.42-8.24.67-11.61,2.18a10.83,10.83,0,0,0-6.61,10.41c0,6.62,4,9.92,9.27,9.92,4.4,0,6.84-1,10.25-4.6a15.08,15.08,0,0,0,3.54,4.2,1.26,1.26,0,0,0,1.46-.17V98c1.24-1.13,3.49-3.19,4.76-4.28a1.23,1.23,0,0,0,0-1.69c-1.14-1.61-2.34-2.91-2.34-5.89V76.17c0-4.21.27-8.08-2.75-11C185.64,62.86,181.76,62.05,178.75,62.05ZM133,62.37c-3.81,0-6.64,1.93-8.14,6.05h-.09V64.15A1.2,1.2,0,0,0,123.66,63h-5.81a1.23,1.23,0,0,0-1.21,1.21V96.9A1.27,1.27,0,0,0,117.77,98H124a1.23,1.23,0,0,0,1.21-1.21V79.47c0-3.78-.18-9,4.27-9s3.79,5.31,3.79,9V96.82A1.25,1.25,0,0,0,134.38,98h6.21a1.22,1.22,0,0,0,1.21-1.21V79.47c0-1.85-.07-4.56.57-6.21a4.18,4.18,0,0,1,3.71-2.74c1.8,0,3.17.63,3.63,2.82a43.06,43.06,0,0,1,.16,6.13V96.82A1.25,1.25,0,0,0,151,98h6.21a1.23,1.23,0,0,0,1.21-1.21V76.17c0-3.51.35-7.49-1.61-10.25a9.05,9.05,0,0,0-15.73,2.5C139.34,64.3,136.89,62.37,133,62.37Zm105.59,0c-9,0-14,7.89-14,18.07s4.93,18.23,14,18.23c8.68,0,14.2-7.93,14.2-17.91C252.8,70.45,247.8,62.37,238.6,62.37Zm35.41,0c-4.29,0-6.74,2.15-8.47,6.62h-.08V64a1.19,1.19,0,0,0-1.13-.89H258.6a1.2,1.2,0,0,0-1.21,1.05V96.82A1.25,1.25,0,0,0,258.52,98h6.13a1.23,1.23,0,0,0,1.21-1.21V79.23A15.17,15.17,0,0,1,266.91,73a4,4,0,0,1,3.55-2.58c4.28,0,3.87,5.21,3.87,8.79V97a1.24,1.24,0,0,0,1.13,1h6.21a1.23,1.23,0,0,0,1.21-1V76.41c0-3.16,0-7.56-1.61-10.17A8.14,8.14,0,0,0,274,62.37Zm-74.53.57a1.14,1.14,0,0,0-1.13,1.21v4.68A1.14,1.14,0,0,0,199.48,70h10.65L198,88a5.91,5.91,0,0,0-.81,3.23V96c0,.68.74,1.43,1.45,1A22.94,22.94,0,0,1,220.13,97c.76.41,1.53-.37,1.53-1v-5a2.13,2.13,0,0,0-1.13-1.78,22.18,22.18,0,0,0-11.61-2.58l10.56-15.49c1-1.39,1.53-2.23,1.53-2.9v-4a1.13,1.13,0,0,0-1.12-1.21Zm39.12,6.13a3.94,3.94,0,0,1,4.11,3.14,30.79,30.79,0,0,1,.89,8.63c0,4.2-.19,11.14-5,11.14s-4.84-8.59-4.84-12.59S234,69.07,238.6,69.07ZM100.75,81v1.37c0,2.48.09,4.57-1.13,6.77a5,5,0,0,1-4.28,2.91c-2.37,0-3.79-1.93-3.79-4.68C91.55,82,96.26,81,100.75,81Zm81.3,0v1.37c0,2.48.09,4.57-1.12,6.77a5,5,0,0,1-4.28,2.91c-2.38,0-3.79-1.93-3.79-4.68C172.86,82,177.57,81,182.05,81Z"/><path id="path257" class="cls-2" d="M222.31,99.07v4.68h3.14V99.07Zm-91.23.81v33.31H134v-3a7.12,7.12,0,0,0,2.18,2.66,4.93,4.93,0,0,0,2.9.89c2.13,0,4-1.09,5.57-3.31s2.42-5.43,2.42-9.52a19.3,19.3,0,0,0-1.05-6.77,9.47,9.47,0,0,0-2.82-4.2,6.4,6.4,0,0,0-4-1.45,5.15,5.15,0,0,0-2.82.81,7.44,7.44,0,0,0-2.18,2.5V99.88Zm29.84,7.83a6.83,6.83,0,0,0-5.16,1.93,7.46,7.46,0,0,0-1.13,8.15,5.7,5.7,0,0,0,1.94,2.26,21.82,21.82,0,0,0,4.92,2.09,10.85,10.85,0,0,1,3.14,1.38,2.62,2.62,0,0,1,1,2.17,3.66,3.66,0,0,1-1.13,2.75,4.32,4.32,0,0,1-3.15,1,4.44,4.44,0,0,1-3.3-1.21,6,6,0,0,1-1.45-3.79l-3.15.65c.71,5.17,3.29,7.74,7.74,7.74a7.27,7.27,0,0,0,5.57-2.1,7.87,7.87,0,0,0,2.1-5.64,7.47,7.47,0,0,0-.65-3.23,5.14,5.14,0,0,0-1.77-2.1,25.93,25.93,0,0,0-5.09-2.09,16,16,0,0,1-3.38-1.45,2.53,2.53,0,0,1-1-2.1,2.84,2.84,0,0,1,1-2.26A4.6,4.6,0,0,1,161,111c2.41,0,3.75,1.32,4,3.95l3.06-.48a9.79,9.79,0,0,0-1.13-3.87,6,6,0,0,0-2.42-2.18A7.91,7.91,0,0,0,160.92,107.71Zm19.28,0a7.54,7.54,0,0,0-6.29,3.22c-1.65,2.19-2.42,5.36-2.42,9.52,0,4,.79,7.15,2.42,9.28a7.61,7.61,0,0,0,6.37,3.14,7.41,7.41,0,0,0,5.24-1.93,10.66,10.66,0,0,0,3-5.81l-3.23-.57c-.93,3.3-2.64,4.92-5,4.92a4.56,4.56,0,0,1-3.79-2,10.94,10.94,0,0,1-1.78-6.13h13.88v-1.13c0-4.07-.81-7.13-2.42-9.28A7.17,7.17,0,0,0,180.2,107.71Zm19.12,0a2.87,2.87,0,0,0-2,.8,10.54,10.54,0,0,0-2,3.39v-3.71h-2.82v24.12h3.15V119.72a20.22,20.22,0,0,1,.56-5,4.15,4.15,0,0,1,1.21-2.09,2.72,2.72,0,0,1,1.86-.73,3.73,3.73,0,0,1,2.25.89l1-3.79A5.12,5.12,0,0,0,199.32,107.71Zm38.55,0a7.39,7.39,0,0,0-6.13,3.14c-1.58,2.1-2.42,5.25-2.42,9.44s.85,7.31,2.42,9.44a7.1,7.1,0,0,0,6,3.14,6.81,6.81,0,0,0,5.16-2.26,11.41,11.41,0,0,0,2.67-6.61l-3.07-.48a8.16,8.16,0,0,1-1.61,4.51,3.9,3.9,0,0,1-3.07,1.45,4.41,4.41,0,0,1-3.79-2.17c-1-1.47-1.45-3.82-1.45-7.1s.52-5.48,1.53-6.94A4.66,4.66,0,0,1,238,111a3.52,3.52,0,0,1,2.67,1.21,7.55,7.55,0,0,1,1.53,3.71l3.06-.64a9.63,9.63,0,0,0-2.5-5.73A6.65,6.65,0,0,0,237.87,107.71Zm18,0a7.54,7.54,0,0,0-6.29,3.22c-1.64,2.19-2.42,5.36-2.42,9.52,0,4,.79,7.15,2.42,9.28a7.61,7.61,0,0,0,6.37,3.14,7.41,7.41,0,0,0,5.24-1.93,10.66,10.66,0,0,0,3-5.81l-3.23-.57c-.92,3.3-2.56,4.92-4.92,4.92a4.7,4.7,0,0,1-3.87-2,10.86,10.86,0,0,1-1.77-6.13h13.87v-1.13c0-4.07-.81-7.13-2.42-9.28A7.17,7.17,0,0,0,255.86,107.71Zm18.63,0a6.51,6.51,0,0,0-7,6.93,6.94,6.94,0,0,0,.64,3.15,5.7,5.7,0,0,0,1.94,2.26,21.82,21.82,0,0,0,4.92,2.09,11.73,11.73,0,0,1,3.22,1.38,2.62,2.62,0,0,1,1,2.17,3.66,3.66,0,0,1-1.13,2.75,4.29,4.29,0,0,1-3.14,1,4.45,4.45,0,0,1-3.31-1.21,6.12,6.12,0,0,1-1.53-3.79l-3.15.65c.71,5.17,3.29,7.74,7.75,7.74a7.45,7.45,0,0,0,5.64-2.1,7.87,7.87,0,0,0,2.1-5.64,7.44,7.44,0,0,0-.65-3.23,5.32,5.32,0,0,0-1.85-2.1,24.61,24.61,0,0,0-5-2.09,17.5,17.5,0,0,1-3.47-1.45,2.56,2.56,0,0,1-1-2.1,2.91,2.91,0,0,1,1.05-2.26,4.6,4.6,0,0,1,3.06-.89c2.41,0,3.75,1.32,4,3.95l3.06-.48a9.79,9.79,0,0,0-1.13-3.87,6,6,0,0,0-2.42-2.18A7.88,7.88,0,0,0,274.49,107.71Zm-72,.48,7,24.12h3l7-24.12h-3.22L212.22,123c-.5,1.79-.94,3.33-1.21,4.6-.34-1.6-.67-3.29-1.13-4.92l-4-14.44Zm19.77,0v24.12h3.14V108.19Zm-103.41.32a7.33,7.33,0,0,0-6.13,3.31c-1.63,2.19-2.5,5.36-2.5,9.52,0,4,.8,7.07,2.42,9.19a7.67,7.67,0,0,0,6.37,3.23,7.26,7.26,0,0,0,5.16-2,10.63,10.63,0,0,0,2.9-5.8l-3.14-.49c-.92,3.3-2.58,4.92-4.92,4.92a4.55,4.55,0,0,1-3.79-2,10.89,10.89,0,0,1-1.78-6.13H127.2l.09-1.12c0-4.08-.83-7.21-2.42-9.36A7.2,7.2,0,0,0,118.9,108.51Zm-35.41.57,5.64,24.11h3.31l3.71-18.55.64,4.12,3,14.43H103l5.72-24.11h-3l-3.15,14-1,4.68-1-4.68-2.75-14H94.62l-2.91,14.11-1,5L89.62,123l-2.91-14Zm200.76.24v1.13h3.07v8.06h1.21v-8.06h3.06v-1.13Zm8.55,0v9.19h1.13v-7.82l2.67,7.82h1.12l2.67-7.66v7.66h1.21v-9.19h-1.7l-2.18,6.45c-.21.65-.37,1.11-.48,1.45l-.48-1.37-2.18-6.53ZM180.12,111a4.53,4.53,0,0,1,3.87,2.26,9.55,9.55,0,0,1,1.29,4.68h-10.4a8.31,8.31,0,0,1,1.69-5A4.45,4.45,0,0,1,180.12,111Zm75.66,0a4.54,4.54,0,0,1,3.87,2.26,9.55,9.55,0,0,1,1.29,4.68h-10.4a8.38,8.38,0,0,1,1.69-5A4.44,4.44,0,0,1,255.78,111Zm-136.88.89a4.42,4.42,0,0,1,3.79,2.26,9.66,9.66,0,0,1,1.29,4.68H113.73a8.65,8.65,0,0,1,1.62-5.08A4.35,4.35,0,0,1,118.9,111.9Zm20,0a4.23,4.23,0,0,1,3.55,2.26c1,1.48,1.37,3.77,1.37,6.94s-.45,5.38-1.45,6.93-2.18,2.34-3.47,2.34a3.93,3.93,0,0,1-2.58-1,6.15,6.15,0,0,1-1.78-2.82,18.9,18.9,0,0,1-.64-5.65,12.22,12.22,0,0,1,1.53-6.69C136.44,112.69,137.62,111.9,138.9,111.9Z"/><path id="polygon287" class="cls-3" d="M38.27,86.33l-12,5.16,11.13,4.76,12.9-4.76ZM20.21,92.78,19.8,116l17.59,7.75V99.64Zm36.13,0-15.89,6v22.75l15.89-6.45Z"/><path id="polygon311" class="cls-3" d="M75.3,20.51,63.2,25.67l11.21,4.76,12.91-4.76ZM58.52,27.37V50.6l15,4.35L74,33.82Zm33.56,1.29-14.2,6.05V57.53l14.2-6.45Z"/><path id="use3387" class="cls-3" d="M18.47,53.21l-12,5.16,11.13,4.76,12.91-4.76ZM.4,59.66,0,82.89l17.58,7.74V66.51Zm36.14,0-15.89,6V88.45L36.54,82Z"/><path id="use3389" class="cls-3" d="M57.19,52.35l-12,5.16L56.3,62.27l12.91-4.76ZM39.12,58.8,38.72,82,56.3,89.77V65.66Zm36.14,0-15.89,6V87.6l15.89-6.46Z"/><path id="use3391" class="cls-3" d="M113.12,20.51l-12,5.16,11.13,4.76,12.91-4.76ZM95.05,27l-.41,23.23,17.59,7.75V33.82Zm36.13,0-15.89,6V55.76l15.89-6.45Z"/><path class="cls-2" d="M433.36,128.29h0a3.74,3.74,0,0,1,3.63-3.85h.12a3.86,3.86,0,0,1,2.89,1.18l-.57.62a3.16,3.16,0,0,0-2.33-1,2.91,2.91,0,0,0-2.88,2.93v.11h0a2.94,2.94,0,0,0,2.83,3h.05a3.18,3.18,0,0,0,2.39-1.07l.56.54a3.88,3.88,0,0,1-3,1.31,3.7,3.7,0,0,1-3.72-3.69Z"/><path class="cls-2" d="M441.66,124.24h.81V132h-.81Z"/><path class="cls-2" d="M444.24,129.27h0a2.86,2.86,0,0,1,5.72,0h0a2.85,2.85,0,0,1-2.83,2.86h-.05a2.81,2.81,0,0,1-2.84-2.78Zm4.88,0h0a2.06,2.06,0,0,0-2-2.14h0a2,2,0,0,0-2,2v.07h0a2.06,2.06,0,0,0,2,2.14h.05a2,2,0,0,0,2-2Z"/><path class="cls-2" d="M451.56,129.89v-3.41h.82v3.2a1.46,1.46,0,0,0,1.24,1.65,1.31,1.31,0,0,0,.28,0,1.63,1.63,0,0,0,1.65-1.6.49.49,0,0,0,0-.12v-3.14h.81V132h-.81V131a2.07,2.07,0,0,1-1.87,1.07,2,2,0,0,1-2.12-1.88A1.82,1.82,0,0,1,451.56,129.89Z"/><path class="cls-2" d="M458.07,129.25h0a2.7,2.7,0,0,1,2.53-2.85h.09a2.44,2.44,0,0,1,2.09,1.17v-3.32h.85V132h-.82v-1.11a2.44,2.44,0,0,1-2.09,1.22,2.69,2.69,0,0,1-2.66-2.71A.71.71,0,0,1,458.07,129.25Zm4.75,0h0a2,2,0,0,0-2-2.11h0a2,2,0,0,0-1.95,1.94,1,1,0,0,1,0,.17h0a2,2,0,0,0,1.83,2.12h.11a2,2,0,0,0,2-2.1v0Z"/><path class="cls-2" d="M468.27,129.27h0a2.86,2.86,0,0,1,5-1.89l-.54.57a2.26,2.26,0,0,0-1.67-.83,2,2,0,0,0-2,2.08v0h0a2.07,2.07,0,0,0,2,2.14h0a2.29,2.29,0,0,0,1.68-.82l.51.48a2.83,2.83,0,0,1-5-1.77Z"/><path class="cls-2" d="M474.38,129.27h0a2.86,2.86,0,1,1,5.71,0h0a2.84,2.84,0,0,1-2.82,2.86h0a2.82,2.82,0,0,1-2.85-2.76A.31.31,0,0,1,474.38,129.27Zm4.87,0h0a2.06,2.06,0,0,0-2-2.14h0a2,2,0,0,0-2,2v.08h0a2.07,2.07,0,0,0,2,2.14h.05a2,2,0,0,0,2-2Z"/><path class="cls-2" d="M481.77,126.49h.85v.93a2,2,0,0,1,1.77-1,1.87,1.87,0,0,1,1.77,1.09,2.19,2.19,0,0,1,1.93-1.09,2,2,0,0,1,2,1.88,1.69,1.69,0,0,1,0,.32V132h-.81v-3.2c0-1.06-.53-1.66-1.42-1.66a1.52,1.52,0,0,0-1.53,1.51,1.15,1.15,0,0,0,0,.19V132h-.81v-3.22c0-1-.54-1.64-1.41-1.64a1.59,1.59,0,0,0-1.52,1.65V132h-.81Z"/><path class="cls-2" d="M492.07,126.49h.82v1.12a2.44,2.44,0,0,1,2.09-1.22,2.67,2.67,0,0,1,2.63,2.72.49.49,0,0,1,0,.12h0a2.68,2.68,0,0,1-2.51,2.85H495a2.43,2.43,0,0,1-2.09-1.16v2.77h-.82Zm4.7,2.76h0a2,2,0,0,0-1.83-2.12h-.11a2.05,2.05,0,0,0-2,2.12h0a2,2,0,0,0,1.95,2.11h0a1.93,1.93,0,0,0,1.94-1.93A1.08,1.08,0,0,0,496.77,129.25Z"/><path class="cls-2" d="M499.23,129.89v-3.41h.82v3.2a1.47,1.47,0,0,0,1.26,1.65h.26a1.62,1.62,0,0,0,1.64-1.59v-3.27h.8V132h-.8V131a2.09,2.09,0,0,1-1.88,1.07,2,2,0,0,1-2.11-1.89C499.22,130.1,499.22,130,499.23,129.89Z"/><path class="cls-2" d="M506.35,130.53v-3.31h-.76v-.73h.76v-1.64h.81v1.64h1.74v.73h-1.74v3.2a.8.8,0,0,0,.7.91.59.59,0,0,0,.23,0,1.71,1.71,0,0,0,.76-.19v.7a2.16,2.16,0,0,1-1,.24,1.4,1.4,0,0,1-1.52-1.27A1.29,1.29,0,0,1,506.35,130.53Z"/><path class="cls-2" d="M510.58,124.4h.91v.93h-.91Zm.05,2.09h.81V132h-.81Z"/><path class="cls-2" d="M513.55,126.49h.82v1a2.09,2.09,0,0,1,1.88-1.07,2,2,0,0,1,2.1,1.89,1.6,1.6,0,0,1,0,.31V132h-.78v-3.2a1.46,1.46,0,0,0-1.27-1.64,1.06,1.06,0,0,0-.25,0,1.62,1.62,0,0,0-1.65,1.59.57.57,0,0,0,0,.13V132h-.81Z"/><path class="cls-2" d="M520.23,132.93l.37-.64a3.5,3.5,0,0,0,2.12.7,1.81,1.81,0,0,0,2-1.6,2,2,0,0,0,0-.35v-.65a2.62,2.62,0,0,1-2.15,1.16,2.54,2.54,0,0,1-2.58-2.49V129h0a2.54,2.54,0,0,1,2.5-2.59h.08a2.57,2.57,0,0,1,2.14,1.1v-1h.82v4.56a2.65,2.65,0,0,1-.71,1.94,2.91,2.91,0,0,1-2.09.76A4.32,4.32,0,0,1,520.23,132.93Zm4.5-4h0a1.9,1.9,0,0,0-2-1.85h0a1.81,1.81,0,0,0-1.9,1.73V129h0a1.84,1.84,0,0,0,1.84,1.86h.06a1.92,1.92,0,0,0,2-1.84h0Z"/><path class="cls-2" d="M530.83,127.22h-.76v-.71h.76V126a1.92,1.92,0,0,1,.47-1.41,1.64,1.64,0,0,1,1.18-.43,2.33,2.33,0,0,1,.9.15v.7a2.73,2.73,0,0,0-.8-.13c-.63,0-1,.38-1,1.17v.44h1.74v.7h-1.73V132h-.81Z"/><path class="cls-2" d="M534.18,129.27h0a2.86,2.86,0,0,1,5.71,0h0a2.84,2.84,0,0,1-2.82,2.86H537a2.8,2.8,0,0,1-2.84-2.76Zm4.87,0h0a2.06,2.06,0,0,0-2-2.14h0a2,2,0,0,0-2,2v.08h0a2.07,2.07,0,0,0,2,2.14h0a2,2,0,0,0,2-2A.15.15,0,0,0,539.05,129.27Z"/><path class="cls-2" d="M541.58,126.49h.81v1.44a2.35,2.35,0,0,1,2.24-1.52v.88h-.07a2.21,2.21,0,0,0-2.17,2.52V132h-.81Z"/><path class="cls-2" d="M548.71,129.27h0a2.86,2.86,0,0,1,5-1.89l-.54.57a2.22,2.22,0,0,0-1.66-.83,2,2,0,0,0-2,2.08v0h0a2.07,2.07,0,0,0,2,2.14h0a2.29,2.29,0,0,0,1.68-.82l.52.48a2.83,2.83,0,0,1-5-1.77Z"/><path class="cls-2" d="M554.79,129.27h0a2.86,2.86,0,0,1,5.71,0h0a2.85,2.85,0,0,1-2.83,2.86h0a2.81,2.81,0,0,1-2.85-2.78A.19.19,0,0,1,554.79,129.27Zm4.87,0h0a2.06,2.06,0,0,0-2-2.14h0a2,2,0,0,0-2,2v.07h0a2.07,2.07,0,0,0,2,2.14h0a2,2,0,0,0,2-2v-.1Z"/><path class="cls-2" d="M562.29,124.24h.85V132h-.81Z"/><path class="cls-2" d="M565.29,124.24h.81V132h-.81Z"/><path class="cls-2" d="M567.8,130.39h0c0-1.18,1-1.79,2.34-1.79a5.59,5.59,0,0,1,1.68.23v-.17c0-1-.59-1.48-1.62-1.48a3.86,3.86,0,0,0-1.67.39l-.24-.67a4.45,4.45,0,0,1,2-.47,2.47,2.47,0,0,1,1.78.61,2.18,2.18,0,0,1,.57,1.61V132h-.81v-.81a2.4,2.4,0,0,1-2,.93,1.84,1.84,0,0,1-2-1.62A.45.45,0,0,0,567.8,130.39Zm4-.42v-.51a5.44,5.44,0,0,0-1.6-.24c-1,0-1.6.45-1.6,1.1h0c0,.69.63,1.1,1.38,1.1a1.65,1.65,0,0,0,1.82-1.44Z"/><path class="cls-2" d="M575.39,130.93v1h-.86v-7.74h.82v3.37a2.47,2.47,0,0,1,2.1-1.22,2.67,2.67,0,0,1,2.63,2.72s0,.08,0,.12h0a2.69,2.69,0,0,1-2.51,2.85h-.11A2.43,2.43,0,0,1,575.39,130.93Zm3.88-1.68h0a2,2,0,0,0-1.84-2.12h-.09a2.07,2.07,0,0,0-2,2.12h0a2,2,0,0,0,2,2.11h0a1.93,1.93,0,0,0,1.93-1.94v-.17Z"/><path class="cls-2" d="M581.48,129.27h0a2.86,2.86,0,0,1,5.72,0h0a2.85,2.85,0,0,1-2.84,2.86h0a2.81,2.81,0,0,1-2.84-2.78Zm4.87,0h0a2.06,2.06,0,0,0-2-2.14h0a2,2,0,0,0-2,2v.07h0a2.07,2.07,0,0,0,2,2.14h.05a2,2,0,0,0,2-2s0-.05,0-.07Z"/><path class="cls-2" d="M588.88,126.49h.85v1.44a2.35,2.35,0,0,1,2.23-1.52v.88h-.06c-1.2,0-2.17.86-2.17,2.52V132h-.82Z"/><path class="cls-2" d="M592.7,130.39h0c0-1.18,1-1.79,2.35-1.79a5.52,5.52,0,0,1,1.67.23v-.17c0-1-.59-1.48-1.62-1.48a3.86,3.86,0,0,0-1.67.39l-.24-.67a4.46,4.46,0,0,1,2-.47A2.45,2.45,0,0,1,597,127a2.18,2.18,0,0,1,.57,1.61V132h-.81v-.81a2.4,2.4,0,0,1-2,.93,1.84,1.84,0,0,1-2-1.62A.45.45,0,0,0,592.7,130.39Zm4-.42v-.51a5.46,5.46,0,0,0-1.61-.24c-1,0-1.6.45-1.6,1.1h0c0,.69.64,1.1,1.38,1.1a1.66,1.66,0,0,0,1.83-1.45Z"/><path class="cls-2" d="M599.7,130.53v-3.31h-.76v-.73h.76v-1.64h.82v1.64h1.74v.73h-1.74v3.2a.8.8,0,0,0,.7.91h.22a1.71,1.71,0,0,0,.8-.19v.7a2.16,2.16,0,0,1-1,.24,1.4,1.4,0,0,1-1.55-1.23A1.71,1.71,0,0,1,599.7,130.53Z"/><path class="cls-2" d="M603.93,124.4h.93v.93h-.93Zm.05,2.09h.82V132H604Z"/><path class="cls-2" d="M606.37,126.49h.9l1.85,4.56,1.85-4.56h.88L609.48,132h-.76Z"/><path class="cls-2" d="M615.45,131.41a2.28,2.28,0,0,0,1.73-.76l.51.46a2.83,2.83,0,0,1-5-2,2.88,2.88,0,0,1,2.61-2.71,2.61,2.61,0,0,1,2.56,2.91,1.31,1.31,0,0,1,0,.28h-4.34A1.91,1.91,0,0,0,615.45,131.41Zm1.6-2.48a1.8,1.8,0,0,0-1.75-1.84h0a1.87,1.87,0,0,0-1.77,1.84Z"/><path class="cls-2" d="M622.49,126.49h.81v1.44a2.35,2.35,0,0,1,2.24-1.52v.88h-.07a2.21,2.21,0,0,0-2.17,2.52V132h-.81Z"/><path class="cls-2" d="M629.17,131.41a2.28,2.28,0,0,0,1.73-.76l.51.46a2.83,2.83,0,0,1-5-2A2.89,2.89,0,0,1,629,126.4a2.61,2.61,0,0,1,2.55,2.91v.28h-4.35A1.92,1.92,0,0,0,629.17,131.41Zm1.6-2.48a1.78,1.78,0,0,0-1.73-1.84h0a1.9,1.9,0,0,0-1.79,1.84Z"/><path class="cls-2" d="M632.79,131.28l.42-.59a3.1,3.1,0,0,0,1.89.7c.66,0,1.14-.33,1.14-.86h0c0-.55-.65-.76-1.37-1s-1.82-.54-1.82-1.52h0a1.66,1.66,0,0,1,1.73-1.58h.14a3.83,3.83,0,0,1,2,.6l-.37.62a3,3,0,0,0-1.62-.53c-.65,0-1.06.34-1.06.76h0c0,.53.68.76,1.41.94s1.76.59,1.76,1.58h0c0,1-.86,1.64-2,1.64A3.86,3.86,0,0,1,632.79,131.28Z"/><path class="cls-2" d="M641.15,131.41a2.28,2.28,0,0,0,1.73-.76l.51.46a2.83,2.83,0,0,1-5-2A2.89,2.89,0,0,1,641,126.4a2.62,2.62,0,0,1,2.55,2.91v.28h-4.35A1.92,1.92,0,0,0,641.15,131.41Zm1.6-2.48a1.79,1.79,0,0,0-1.73-1.84h0a1.9,1.9,0,0,0-1.79,1.84Z"/><path class="cls-2" d="M644.81,130.39h0c0-1.18,1-1.79,2.34-1.79a5.63,5.63,0,0,1,1.68.23v-.17c0-1-.59-1.48-1.63-1.48a3.85,3.85,0,0,0-1.66.39l-.24-.67a4.45,4.45,0,0,1,2-.47,2.47,2.47,0,0,1,1.78.61,2.17,2.17,0,0,1,.56,1.61V132h-.8v-.81a2.42,2.42,0,0,1-2,.93,1.84,1.84,0,0,1-2-1.62S644.81,130.43,644.81,130.39Zm4-.42v-.51a5.44,5.44,0,0,0-1.6-.24c-1,0-1.6.45-1.6,1.1h0c0,.69.64,1.1,1.37,1.1a1.66,1.66,0,0,0,1.83-1.44Z"/><path class="cls-2" d="M651.57,126.49h.82v1.44a2.36,2.36,0,0,1,2.24-1.52v.88h-.07c-1.2,0-2.17.86-2.17,2.52V132h-.82Z"/><path class="cls-2" d="M655.51,129.27h0a2.86,2.86,0,0,1,5-1.89L660,128a2.22,2.22,0,0,0-1.66-.83,2,2,0,0,0-2,2.08v0h0a2.07,2.07,0,0,0,2,2.14h0a2.25,2.25,0,0,0,1.67-.82l.53.48a2.83,2.83,0,0,1-5-1.77Z"/><path class="cls-2" d="M662.12,124.24h.81v3.21a2.07,2.07,0,0,1,1.87-1.07,2,2,0,0,1,2.11,1.89,1.6,1.6,0,0,1,0,.31V132h-.82v-3.2a1.46,1.46,0,0,0-1.25-1.64,1.23,1.23,0,0,0-.27,0,1.63,1.63,0,0,0-1.65,1.59V132h-.8Z"/><rect class="cls-4" x="411.31" y="67.2" width="12.16" height="46.31"/><path class="cls-5" d="M432.38,77v-.06A9.68,9.68,0,0,1,442,67.1h.36a9.22,9.22,0,0,1,8,3.93l-3.93,3a5,5,0,0,0-4.11-2.21c-2.65,0-4.5,2.24-4.5,5v0c0,2.83,1.85,5,4.5,5a5.14,5.14,0,0,0,4.24-2.28l3.94,2.8A9.93,9.93,0,0,1,432.38,77Z"/><path class="cls-5" d="M451.12,82.14v0c0-3,2.28-4.56,5.7-4.56a11.24,11.24,0,0,1,3.5.56v-.24c0-1.52-.94-2.36-2.91-2.36a10.44,10.44,0,0,0-4,.8l-1-3.6a14.6,14.6,0,0,1,5.9-1.14c2.61,0,4.38.63,5.54,1.78s1.52,2.58,1.52,4.63v8.36h-5V84.8A5.5,5.5,0,0,1,456,86.63C453.24,86.64,451.12,85.07,451.12,82.14Zm9.26-1.1v-.68a5.66,5.66,0,0,0-2-.37c-1.52,0-2.35.76-2.35,1.8v.06a1.61,1.61,0,0,0,1.62,1.6l.19,0a2.34,2.34,0,0,0,2.52-2.14A2.09,2.09,0,0,0,460.38,81Z"/><path class="cls-5" d="M467.43,71.76h5.11v2a5.4,5.4,0,0,1,4.36-2.4c3.1,0,5,2,5,5.32v9.52h-5.11V78.43c0-1.59-.84-2.45-2.05-2.45a2.17,2.17,0,0,0-2.15,2.45v7.88h-5.11Z"/><path class="cls-5" d="M483.38,79.1v0a7.6,7.6,0,0,1,7.6-7.6h.21a6.91,6.91,0,0,1,6.22,3.26l-3.48,2.59a3.09,3.09,0,0,0-2.71-1.52A3,3,0,0,0,488.37,79h0v.06a3,3,0,0,0,2.9,3.31,3.49,3.49,0,0,0,2.8-1.52l3.42,2.48A7.24,7.24,0,0,1,491,86.67a7.53,7.53,0,0,1-7.62-7.42Z"/><path class="cls-5" d="M497.72,79.1v0a7.29,7.29,0,0,1,7.35-7.6c5,0,7.35,3.69,7.35,8v1h-9.77a3,3,0,0,0,3.15,2.39A4.34,4.34,0,0,0,509,81.34l2.82,2.35a7.56,7.56,0,0,1-6.32,3C501,86.67,497.72,83.62,497.72,79.1Zm9.88-1.26c-.19-1.62-1.13-2.64-2.53-2.64s-2.28,1-2.53,2.64Z"/><path class="cls-5" d="M514.06,71.76h5.12v2.93c.83-2,2.18-3.28,4.6-3.17v5.37h-.43c-2.67,0-4.17,1.52-4.17,4.9v4.52h-5.12Z"/><path class="cls-6" d="M530.53,77v-.06a9.78,9.78,0,0,1,10.15-9.79,11,11,0,0,1,7.64,2.78l-3,3.69a6.64,6.64,0,0,0-4.55-1.77,4.93,4.93,0,0,0-4.82,5.06V77a5,5,0,0,0,4.72,5.22H541a5.23,5.23,0,0,0,3-.76V79.19h-3.71V75.4H549v8.38a12.7,12.7,0,0,1-8.18,2.91C534.92,86.69,530.53,82.66,530.53,77Z"/><path class="cls-6" d="M550.45,79.1v0a7.29,7.29,0,0,1,7.34-7.6c5,0,7.35,3.69,7.35,8v1h-9.77a3,3,0,0,0,3.15,2.39,4.32,4.32,0,0,0,3.23-1.52l2.83,2.35a7.6,7.6,0,0,1-6.33,3C553.68,86.67,550.45,83.62,550.45,79.1Zm9.87-1.26c-.19-1.62-1.13-2.64-2.53-2.64s-2.28,1-2.53,2.64Z"/><path class="cls-6" d="M566.78,71.76h5.12v2a5.38,5.38,0,0,1,4.35-2.4c3.1,0,5,2,5,5.32v9.52h-5.11V78.43c0-1.59-.83-2.45-2-2.45a2.17,2.17,0,0,0-2.15,2.45v7.88h-5.12Z"/><path class="cls-6" d="M582.72,79.1v0a7.73,7.73,0,0,1,8.07-7.6c4.69,0,8.05,3.4,8.05,7.55v0a7.74,7.74,0,0,1-8.07,7.6C586.08,86.65,582.72,83.25,582.72,79.1Zm11.11,0v0a3.15,3.15,0,0,0-3-3.28h-.08a3,3,0,0,0-3.05,3c0,.07,0,.13,0,.2v0a3.15,3.15,0,0,0,3,3.28h.08a3,3,0,0,0,3-3Z"/><path class="cls-6" d="M599.88,71.76H605v2a5.33,5.33,0,0,1,4.34-2.28,4.45,4.45,0,0,1,4.19,2.37,6.16,6.16,0,0,1,4.88-2.44c3.09,0,5,1.94,5,5.32v9.55h-5.12V78.4c0-1.58-.76-2.42-2-2.42s-2.1.84-2.1,2.42v7.91h-5.11V78.4c0-1.58-.76-2.42-2-2.42S605,76.82,605,78.4v7.91h-5.11Z"/><path class="cls-6" d="M624.88,79.1v0a7.29,7.29,0,0,1,7.35-7.6c5,0,7.35,3.69,7.35,8v1h-9.77A3,3,0,0,0,633,82.86a4.32,4.32,0,0,0,3.23-1.52L639,83.69a7.57,7.57,0,0,1-6.32,3C628.11,86.67,624.88,83.62,624.88,79.1Zm9.87-1.26c-.19-1.62-1.13-2.64-2.52-2.64s-2.28,1-2.53,2.64Z"/><path class="cls-6" d="M432.38,103.37v-.07A9.7,9.7,0,0,1,442,93.5h.37a9.22,9.22,0,0,1,8,3.92l-3.93,3a5.06,5.06,0,0,0-4.11-2.21c-2.65,0-4.5,2.23-4.5,5v.06c0,2.83,1.85,5,4.5,5a5.11,5.11,0,0,0,4.24-2.28l3.94,2.81a9.93,9.93,0,0,1-18.07-5.5Z"/><path class="cls-6" d="M450.42,103.37v-.07a10.15,10.15,0,0,1,20.29,0v0a9.87,9.87,0,0,1-10.17,9.8A9.76,9.76,0,0,1,450.42,103.37Zm15,0v-.07a4.89,4.89,0,0,0-4.7-5.08h-.14a4.82,4.82,0,0,0-4.77,4.85v.24a4.88,4.88,0,0,0,4.68,5.08h.14a4.82,4.82,0,0,0,4.8-4.82C465.39,103.5,465.38,103.44,465.38,103.37Z"/><path class="cls-6" d="M472.35,93.9h5.22v14.26h9.12v4.56H472.35Z"/><path class="cls-6" d="M488.39,93.9h5.22v14.26h9.11v4.56H488.39Z"/><path class="cls-6" d="M510.4,93.76h5l8,19h-5.59l-1.37-3.37h-7.28l-1.34,3.37h-5.5ZM515,105.31l-2.1-5.32-2.12,5.32Z"/><path class="cls-6" d="M524.74,93.9h9.67c2.37,0,4,.59,5.14,1.69a4.18,4.18,0,0,1,1.21,3v.06a4.36,4.36,0,0,1-2.91,4.2c2.28.76,3.74,2,3.74,4.6v.05c0,3.23-2.63,5.2-7.13,5.2h-9.72Zm8.36,7.51c1.59,0,2.48-.54,2.48-1.65v-.05c0-1-.81-1.62-2.37-1.62h-3.39v3.32Zm.76,7.13c1.59,0,2.5-.62,2.5-1.73v0c0-1-.81-1.69-2.56-1.69h-4v3.47Z"/><path class="cls-6" d="M542.27,103.37v-.07a10.15,10.15,0,0,1,20.29,0v0a9.87,9.87,0,0,1-10.18,9.8A9.76,9.76,0,0,1,542.27,103.37Zm15,0v-.07a4.89,4.89,0,0,0-4.7-5.08h-.15a4.8,4.8,0,0,0-4.76,4.84v.25a4.88,4.88,0,0,0,4.68,5.08h.14a4.82,4.82,0,0,0,4.8-4.82C557.24,103.5,557.23,103.44,557.23,103.37Z"/><path class="cls-6" d="M563.66,93.9h8.91c2.88,0,4.87.76,6.13,2a5.89,5.89,0,0,1,1.68,4.39v.06a6,6,0,0,1-3.89,5.78l4.5,6.57h-6l-3.8-5.71h-2.28v5.71h-5.23Zm8.66,9c1.78,0,2.81-.86,2.81-2.23v-.06c0-1.48-1.08-2.23-2.83-2.23h-3.42V103Z"/><path class="cls-6" d="M588.09,93.76h5l8,19h-5.6l-1.37-3.37h-7.27l-1.35,3.37h-5.49Zm4.56,11.55-2.1-5.32-2.13,5.32Z"/><path class="cls-6" d="M604.08,98.47h-5.65V93.92H615v4.55H609.3v14.27h-5.22Z"/><path class="cls-6" d="M614.17,103.37v-.07a9.87,9.87,0,0,1,10.18-9.79,9.77,9.77,0,0,1,10.12,9.74v0a9.87,9.87,0,0,1-10.18,9.8A9.76,9.76,0,0,1,614.17,103.37Zm15,0v-.07a4.89,4.89,0,0,0-4.69-5.08h-.15a4.82,4.82,0,0,0-4.77,4.85v.24a4.89,4.89,0,0,0,4.7,5.08h.13a4.81,4.81,0,0,0,4.79-4.82A1.41,1.41,0,0,0,629.13,103.37Z"/><path class="cls-6" d="M636.11,93.9H645c2.89,0,4.88.76,6.14,2a5.88,5.88,0,0,1,1.67,4.39v.06a6,6,0,0,1-3.88,5.78l4.49,6.57h-6l-3.8-5.71h-2.28v5.71h-5.22Zm8.66,9c1.77,0,2.8-.86,2.8-2.23v-.06c0-1.48-1.08-2.23-2.83-2.23h-3.41V103Z"/><path class="cls-6" d="M659.14,105.69,652,93.9h6l3.87,6.84,3.91-6.84h5.84l-7.19,11.68v7.14h-5.25Z"/><path class="cls-5" d="M357.06,19.75a66.06,66.06,0,0,0-19.52,44.56H349.7a54.78,54.78,0,0,1,54.21-52.1V0A66.59,66.59,0,0,0,357.06,19.75Z"/><path class="cls-7" d="M365.65,105.43A54.07,54.07,0,0,1,349.7,70H337.54a66.81,66.81,0,0,0,66.35,63.61V121.39A54.24,54.24,0,0,1,365.65,105.43Z"/><path class="cls-8" d="M369.9,66.84a34.5,34.5,0,0,1,34-34.44V20.24a46.57,46.57,0,0,0,0,93.14V101.22A34.49,34.49,0,0,1,369.9,66.84Z"/><path class="cls-9" d="M390.51,70H378.19a26.43,26.43,0,0,0,25.72,23.23V81A14,14,0,0,1,390.51,70Z"/><path class="cls-10" d="M378.14,64.31h12.28A13.93,13.93,0,0,1,403.91,52.8V40.65A26.31,26.31,0,0,0,378.14,64.31Z"/></svg>