<?xml version="1.0" encoding="utf-8"?>
<!-- Generator: Adobe Illustrator 19.0.0, SVG Export Plug-In . SVG Version: 6.00 Build 0)  -->
<svg version="1.0" id="Layer_1" xmlns="http://www.w3.org/2000/svg" xmlns:xlink="http://www.w3.org/1999/xlink" x="0px" y="0px"
	 viewBox="0 0 629 270" enable-background="new 0 0 629 270" xml:space="preserve">
<g id="XMLID_142_">
	<path id="XMLID_143_" fill="#234572" d="M310,84.4h24.2c14.2,0,22.7,8.4,22.7,20.5v0.2c0,13.7-10.7,20.9-24,20.9h-9.9v17.8H310
		V84.4z M333.4,114.3c6.5,0,10.3-3.9,10.3-9v-0.2c0-5.8-4.1-9-10.6-9h-10.1v18.1H333.4z"/>
	<path id="XMLID_163_" fill="#234572" d="M359,114.3v-0.2c0-16.9,12.7-30.7,30.9-30.7c11.2,0,17.9,3.7,23.4,9.2l-8.3,9.6
		c-4.6-4.2-9.2-6.7-15.2-6.7c-10,0-17.2,8.3-17.2,18.5v0.2c0,10.2,7,18.7,17.2,18.7c6.8,0,10.9-2.7,15.6-7l8.3,8.4
		c-6.1,6.5-12.9,10.6-24.3,10.6C371.9,144.8,359,131.3,359,114.3z"/>
	<path id="XMLID_165_" fill="#234572" d="M437.7,84h12l25.4,59.8h-13.6l-5.4-13.3H431l-5.4,13.3h-13.3L437.7,84z M451.4,118.9
		l-7.9-19.2l-7.9,19.2H451.4z"/>
	<path id="XMLID_168_" fill="#234572" d="M465.4,83.4h14.2l12.5,40.8l13.5-41H517l13.5,41L543,83.4h13.9l-20.6,60.7h-11.5
		l-13.6-39.5l-13.6,39.5H486L465.4,83.4z"/>
	<path id="XMLID_170_" fill="#234572" d="M552.3,113.8v-0.2c0-17.1,13.4-31.2,31.6-31.2c10.9,0,17.4,2.9,23.7,8.3l-8.4,10.1
		c-4.7-3.9-8.8-6.1-15.8-6.1c-9.7,0-17.3,8.5-17.3,18.8v0.2c0,11,7.6,19.1,18.3,19.1c4.8,0,9.1-1.2,12.5-3.6v-8.6h-13.4V109h26.2
		v26.2c-6.2,5.3-14.7,9.6-25.8,9.6C565.3,144.8,552.3,131.6,552.3,113.8z"/>
</g>
<g id="XMLID_62_">
	<path id="XMLID_63_" d="M310.8,156.7h8.9c5.4,0,8.9,2.9,8.9,7.6v0.1c0,5.1-4.3,7.8-9.4,7.8h-5.8v8.4h-2.7V156.7z M319.4,169.7
		c4,0,6.5-2.1,6.5-5.2v-0.1c0-3.4-2.6-5.2-6.4-5.2h-6v10.5H319.4z"/>
	<path id="XMLID_66_" d="M328.4,175.4L328.4,175.4c0-3.8,3.1-5.8,7.5-5.8c2.2,0,3.8,0.3,5.4,0.7v-0.5c0-3.1-1.9-4.8-5.2-4.8
		c-2.1,0-3.7,0.5-5.3,1.3l-0.8-2.1c1.9-0.9,3.8-1.5,6.4-1.5c2.5,0,4.4,0.7,5.7,1.9c1.2,1.2,1.8,2.9,1.8,5.2v10.8h-2.6v-2.6
		c-1.2,1.6-3.2,3-6.3,3C331.7,180.9,328.4,179,328.4,175.4z M341.3,174.1v-1.6c-1.3-0.4-3-0.7-5.1-0.7c-3.3,0-5.1,1.4-5.1,3.5v0.1
		c0,2.2,2,3.5,4.4,3.5C338.7,178.8,341.3,176.8,341.3,174.1z"/>
	<path id="XMLID_69_" d="M348.1,162.9h2.6v3.1c1.2-1.9,3-3.4,6-3.4c4.3,0,6.7,2.9,6.7,7v10.9h-2.6v-10.3c0-3.3-1.8-5.3-4.9-5.3
		c-3,0-5.3,2.2-5.3,5.5v10.1h-2.6V162.9z"/>
	<path id="XMLID_71_" d="M366.4,168.7L366.4,168.7c0-6.8,5-12.4,12.1-12.4c4.3,0,6.9,1.5,9.3,3.8l-1.8,2c-2-1.9-4.3-3.3-7.5-3.3
		c-5.3,0-9.2,4.3-9.2,9.8v0.1c0,5.5,4,9.8,9.2,9.8c3.3,0,5.4-1.3,7.7-3.4l1.8,1.7c-2.5,2.5-5.2,4.2-9.5,4.2
		C371.5,180.9,366.4,175.5,366.4,168.7z"/>
	<path id="XMLID_73_" d="M388.8,175.4L388.8,175.4c0-3.8,3.1-5.8,7.5-5.8c2.2,0,3.8,0.3,5.4,0.7v-0.5c0-3.1-1.9-4.8-5.2-4.8
		c-2.1,0-3.7,0.5-5.3,1.3l-0.8-2.1c1.9-0.9,3.8-1.5,6.4-1.5c2.5,0,4.4,0.7,5.7,1.9c1.2,1.2,1.8,2.9,1.8,5.2v10.8h-2.6v-2.6
		c-1.2,1.6-3.2,3-6.3,3C392,180.9,388.8,179,388.8,175.4z M401.7,174.1v-1.6c-1.3-0.4-3-0.7-5.1-0.7c-3.3,0-5.1,1.4-5.1,3.5v0.1
		c0,2.2,2,3.5,4.4,3.5C399.1,178.8,401.7,176.8,401.7,174.1z"/>
	<path id="XMLID_76_" d="M408.5,162.9h2.6v3.1c1.2-1.9,3-3.4,6-3.4c4.3,0,6.7,2.9,6.7,7v10.9h-2.6v-10.3c0-3.3-1.8-5.3-4.9-5.3
		c-3,0-5.3,2.2-5.3,5.5v10.1h-2.6V162.9z"/>
	<path id="XMLID_78_" d="M427,171.8L427,171.8c0-5,3.9-9.3,9-9.3c3.3,0,5.4,1.4,7,3.1l-1.7,1.8c-1.4-1.5-3-2.7-5.3-2.7
		c-3.6,0-6.3,3-6.3,6.8v0.1c0,3.8,2.8,6.8,6.5,6.8c2.2,0,4-1.1,5.4-2.6l1.7,1.6c-1.8,2-3.9,3.4-7.2,3.4
		C430.9,180.9,427,176.7,427,171.8z"/>
	<path id="XMLID_81_" d="M453.4,178.7c2.4,0,4.1-1,5.6-2.5l1.6,1.5c-1.8,2-3.9,3.3-7.3,3.3c-4.8,0-8.8-3.7-8.8-9.2
		c0-5.1,3.6-9.2,8.4-9.2c5.2,0,8.2,4.2,8.2,9.3c0,0.2,0,0.5,0,0.9h-14C447.6,176.5,450.3,178.7,453.4,178.7z M458.5,170.7
		c-0.3-3.2-2.1-5.9-5.6-5.9c-3,0-5.3,2.5-5.7,5.9H458.5z"/>
	<path id="XMLID_84_" d="M464.4,162.9h2.6v4.6c1.3-2.9,3.8-5,7.2-4.9v2.8H474c-3.8,0-7,2.8-7,8.1v7h-2.6V162.9z"/>
	<path id="XMLID_86_" d="M494.3,156.5h2.5l10.9,24h-2.9l-2.8-6.3h-13l-2.8,6.3h-2.8L494.3,156.5z M500.9,171.8l-5.4-12.2l-5.4,12.2
		H500.9z"/>
	<path id="XMLID_89_" d="M510.6,162.9h2.6v3.1c1.2-1.9,3-3.4,6-3.4c4.3,0,6.7,2.9,6.7,7v10.9h-2.6v-10.3c0-3.3-1.8-5.3-4.9-5.3
		c-3,0-5.3,2.2-5.3,5.5v10.1h-2.6V162.9z"/>
	<path id="XMLID_91_" d="M528.9,175.4L528.9,175.4c0-3.8,3.1-5.8,7.5-5.8c2.2,0,3.8,0.3,5.4,0.7v-0.5c0-3.1-1.9-4.8-5.2-4.8
		c-2.1,0-3.7,0.5-5.3,1.3l-0.8-2.1c1.9-0.9,3.8-1.5,6.4-1.5c2.5,0,4.4,0.7,5.7,1.9c1.2,1.2,1.8,2.9,1.8,5.2v10.8h-2.6v-2.6
		c-1.2,1.6-3.2,3-6.3,3C532.1,180.9,528.9,179,528.9,175.4z M541.8,174.1v-1.6c-1.3-0.4-3-0.7-5.1-0.7c-3.3,0-5.1,1.4-5.1,3.5v0.1
		c0,2.2,2,3.5,4.4,3.5C539.2,178.8,541.8,176.8,541.8,174.1z"/>
	<path id="XMLID_94_" d="M548.8,155.7h2.6v24.9h-2.6V155.7z"/>
	<path id="XMLID_98_" d="M555.8,185.2l0.9-2.1c0.9,0.4,1.6,0.6,2.8,0.6c1.6,0,2.6-0.8,3.6-3.3l-8-17.5h2.9l6.4,14.7l5.7-14.7h2.8
		l-7.4,18.2c-1.5,3.6-3.2,5-5.9,5C558.1,186.1,557,185.8,555.8,185.2z"/>
	<path id="XMLID_100_" d="M574.8,178.3l1.3-1.9c1.9,1.4,4,2.2,6.1,2.2c2.1,0,3.6-1.1,3.6-2.8v-0.1c0-1.8-2.1-2.5-4.4-3.1
		c-2.8-0.8-5.8-1.7-5.8-5v-0.1c0-3,2.5-5,6-5c2.1,0,4.5,0.7,6.3,1.9l-1.2,2c-1.6-1.1-3.5-1.7-5.2-1.7c-2.1,0-3.4,1.1-3.4,2.6v0.1
		c0,1.7,2.2,2.3,4.5,3c2.7,0.8,5.7,1.9,5.7,5v0.1c0,3.3-2.8,5.3-6.3,5.3C579.6,180.9,576.8,179.9,574.8,178.3z"/>
	<path id="XMLID_102_" d="M591.9,156.2h3v2.9h-3V156.2z M592.1,162.9h2.6v17.6h-2.6V162.9z"/>
	<path id="XMLID_105_" d="M598,178.3l1.3-1.9c1.9,1.4,4,2.2,6.1,2.2c2.1,0,3.6-1.1,3.6-2.8v-0.1c0-1.8-2.1-2.5-4.4-3.1
		c-2.8-0.8-5.8-1.7-5.8-5v-0.1c0-3,2.5-5,6-5c2.1,0,4.5,0.7,6.3,1.9l-1.2,2c-1.6-1.1-3.5-1.7-5.2-1.7c-2.1,0-3.4,1.1-3.4,2.6v0.1
		c0,1.7,2.2,2.3,4.5,3c2.7,0.8,5.7,1.9,5.7,5v0.1c0,3.3-2.8,5.3-6.3,5.3C602.7,180.9,600,179.9,598,178.3z"/>
	<path id="XMLID_107_" d="M308.8,201L308.8,201c0-3.9,2.9-7.3,7.2-7.3c4.3,0,7.2,3.4,7.2,7.2v0c0,3.9-2.9,7.3-7.2,7.3
		C311.7,208.2,308.8,204.9,308.8,201z M321.5,201L321.5,201c0-3.2-2.3-5.9-5.6-5.9s-5.5,2.6-5.5,5.8v0c0,3.2,2.3,5.8,5.6,5.8
		S321.5,204.2,321.5,201z"/>
	<path id="XMLID_110_" d="M326.1,193.9h10.1v1.5h-8.5v5h7.6v1.4h-7.6v6.1h-1.6V193.9z"/>
	<path id="XMLID_112_" d="M340.7,194.1h2.6l6,17.4L355,194h1.9l5.7,17.5l6-17.4h2.5l-7.5,21h-2l-5.7-17l-5.8,17h-2L340.7,194.1z"/>
	<path id="XMLID_114_" d="M374.2,194.1h2.4v9.3h12.1v-9.3h2.4V215h-2.4v-9.4h-12.1v9.4h-2.4V194.1z"/>
	<path id="XMLID_116_" d="M394.7,204.6L394.7,204.6c0-5.8,4.3-10.9,10.7-10.9c6.4,0,10.6,5,10.6,10.7v0.1c0,5.8-4.3,10.8-10.7,10.8
		C399,215.3,394.7,210.3,394.7,204.6z M413.6,204.6L413.6,204.6c0-4.8-3.5-8.7-8.2-8.7s-8.2,3.8-8.2,8.6v0.1c0,4.7,3.5,8.6,8.2,8.6
		S413.6,209.3,413.6,204.6z"/>
	<path id="XMLID_119_" d="M420.4,194.1h2.4v18.7h11.8v2.2h-14.1V194.1z"/>
	<path id="XMLID_122_" d="M438.3,194.1h15.1v2.1h-12.7v7.1h11.4v2.1h-11.4v7.3h12.9v2.1h-15.3V194.1z"/>
	<path id="XMLID_127_" d="M464.5,204.6L464.5,204.6c0-5.8,4.2-10.9,10.5-10.9c3.5,0,5.7,1,7.8,2.8l-1.5,1.8
		c-1.6-1.4-3.4-2.4-6.4-2.4c-4.6,0-7.9,3.9-7.9,8.6v0.1c0,5,3.2,8.7,8.3,8.7c2.4,0,4.6-0.9,6-2.1v-5.2h-6.4v-2.1h8.6v8.3
		c-1.9,1.7-4.9,3.2-8.4,3.2C468.6,215.3,464.5,210.5,464.5,204.6z"/>
	<path id="XMLID_129_" d="M488.3,194.1h15.1v2.1h-12.7v7.1H502v2.1h-11.4v7.3h12.9v2.1h-15.3V194.1z"/>
	<path id="XMLID_131_" d="M507.7,194.1h2.2l13.2,16.7v-16.7h2.3V215h-1.9L510,197.8V215h-2.3V194.1z"/>
	<path id="XMLID_133_" d="M528.5,204.6L528.5,204.6c0-5.8,4.3-10.9,10.7-10.9c6.4,0,10.6,5,10.6,10.7v0.1c0,5.8-4.3,10.8-10.7,10.8
		C532.8,215.3,528.5,210.3,528.5,204.6z M547.4,204.6L547.4,204.6c0-4.8-3.5-8.7-8.2-8.7s-8.2,3.8-8.2,8.6v0.1
		c0,4.7,3.5,8.6,8.2,8.6S547.4,209.3,547.4,204.6z"/>
	<path id="XMLID_136_" d="M553,194.1h2.4l7.6,11.4l7.6-11.4h2.4V215h-2.4V198l-7.6,11.2h-0.1l-7.6-11.2V215H553V194.1z"/>
	<path id="XMLID_138_" d="M578.3,194.1h15.1v2.1h-12.7v7.1h11.4v2.1h-11.4v7.3h12.9v2.1h-15.3V194.1z"/>
	<path id="XMLID_140_" d="M596.4,211.9l1.5-1.7c2.2,2,4.3,3,7.2,3c2.8,0,4.7-1.5,4.7-3.6v-0.1c0-1.9-1-3-5.4-4c-4.8-1-7-2.6-7-6
		v-0.1c0-3.3,2.9-5.7,6.9-5.7c3,0,5.2,0.9,7.3,2.6l-1.4,1.8c-1.9-1.6-3.9-2.3-6-2.3c-2.7,0-4.4,1.5-4.4,3.4v0.1c0,2,1.1,3.1,5.7,4.1
		c4.7,1,6.8,2.7,6.8,5.9v0.1c0,3.6-3,5.9-7.1,5.9C601.6,215.3,598.9,214.1,596.4,211.9z"/>
</g>
<g id="XMLID_46_">
	<defs>
		<path id="XMLID_47_" d="M105.7,271c-50.2-17.7-86.3-65.5-86.3-121.8C19.4,77.8,77.2,20,148.5,20s129.1,57.8,129.1,129.1
			s-57.8,129.1-129.1,129.1C133.5,278.2,119.1,275.7,105.7,271"/>
	</defs>
	<clipPath id="XMLID_96_">
		<use xlink:href="#XMLID_47_"  overflow="visible"/>
	</clipPath>
	
		<path id="XMLID_53_" opacity="0.66" clip-path="url(#XMLID_96_)" fill="none" stroke="#FF1D25" stroke-width="37.7488" stroke-miterlimit="10" d="
		M-56.4,164.8C63,82.6,226.2,110.1,312.1,226.9"/>
	
		<path id="XMLID_50_" opacity="0.66" clip-path="url(#XMLID_96_)" fill="none" stroke="#3FA9F5" stroke-width="37.7488" stroke-miterlimit="10" d="
		M-87.6,206.8c104.1-100.9,269.6-100.9,373.7,0"/>
	
		<path id="XMLID_49_" opacity="0.66" clip-path="url(#XMLID_96_)" fill="none" stroke="#7AC943" stroke-width="37.7488" stroke-miterlimit="10" d="
		M-54.6,210.6c104.1-100.9,269.6-100.9,373.7,0"/>
	
		<path id="XMLID_48_" opacity="0.41" clip-path="url(#XMLID_96_)" fill="none" stroke="#F2CA5B" stroke-width="37.7488" stroke-miterlimit="10" d="
		M-24.9,247.3c89.2-114.3,253-137.2,370.1-51.6"/>
</g>
<path id="XMLID_43_" fill="#BF3092" d="M70.6,254.1c0,0-0.9-0.7-2.7-1.9c-0.9-0.6-2-1.4-3.2-2.4c-1.2-1-2.7-2.1-4.2-3.4
	c-1.5-1.3-3.3-2.8-5-4.5c-0.9-0.9-1.8-1.7-2.7-2.7c-0.9-1-1.9-2-2.8-3c-3.8-4.2-7.9-9.2-11.8-15c-3.9-5.8-7.7-12.5-10.9-19.9
	c-3.2-7.4-6-15.5-7.8-24.1c-0.4-2.2-0.9-4.4-1.2-6.6c-0.2-1.1-0.3-2.2-0.5-3.3l-0.2-1.7l-0.2-1.7c-0.1-1.1-0.2-2.3-0.4-3.4
	c-0.1-1.1-0.2-2.3-0.2-3.4c-0.2-2.3-0.2-4.6-0.2-6.9c-0.1-9.3,1-18.7,3-28c2-9.2,5.2-18.2,9.1-26.6l0.7-1.6l0.4-0.8l0.2-0.4l0-0.1
	l0.1-0.2l0.1-0.2c0.5-1,1.1-2,1.6-3c0.5-1,1.1-2,1.6-3c0.5-1,1.2-2,1.8-2.9c2.3-4,4.9-7.6,7.5-11.2c5.3-7.1,11.3-13.2,17.3-18.6
	c1.5-1.3,3-2.7,4.6-3.9c1.6-1.2,3-2.4,4.6-3.5c1.6-1.1,3.1-2.1,4.6-3.2c0.7-0.5,1.5-1,2.3-1.5c0.8-0.5,1.5-0.9,2.3-1.4
	c1.5-0.9,3-1.8,4.5-2.6c1.5-0.8,2.9-1.6,4.3-2.3c1.4-0.7,2.9-1.3,4.2-2c1.4-0.6,2.7-1.3,4-1.8c5.3-2.2,10-3.7,13.9-4.8
	c2-0.5,3.7-1,5.2-1.4c1.5-0.3,2.9-0.6,3.9-0.8c2.1-0.4,3.3-0.6,3.3-0.6s-1.1,0.3-3.2,1c-1,0.3-2.3,0.7-3.8,1.1
	c-1.5,0.5-3.2,1.1-5.1,1.8c-3.8,1.4-8.3,3.3-13.3,5.7c-1.3,0.6-2.5,1.3-3.8,2c-1.3,0.7-2.6,1.4-4,2.2c-2.6,1.7-5.5,3.2-8.3,5.2
	c-5.7,3.8-11.5,8.4-17.1,13.8c-0.7,0.7-1.4,1.3-2.1,2c-0.7,0.7-1.4,1.4-2.1,2.2c-0.7,0.7-1.4,1.5-2.1,2.2c-0.7,0.7-1.4,1.5-2,2.3
	c-1.3,1.6-2.6,3.1-4,4.7c-1.3,1.7-2.5,3.3-3.8,5c-2.4,3.5-4.8,7.1-6.9,10.8c-0.5,0.9-1.1,1.8-1.6,2.8c-0.5,1-1,2-1.5,3
	c-0.5,1-1,2-1.6,3l-0.1,0.2c0,0-0.1,0.1,0,0l0,0.1l-0.2,0.4l-0.3,0.8L33.8,98c-3.7,8.1-6.6,16.7-8.5,25.5c-2,8.8-3.1,17.8-3.1,26.7
	c0,8.9,0.7,17.6,2.3,26c1.6,8.3,3.9,16.2,6.8,23.5c2.9,7.3,6.2,13.9,9.7,19.8c3.5,5.9,7.2,11,10.7,15.3c0.9,1.1,1.8,2.1,2.6,3.1
	c0.8,1,1.7,1.9,2.5,2.8c1.6,1.8,3.2,3.4,4.6,4.8c2.9,2.8,5.2,5,6.8,6.4C69.8,253.4,70.6,254.1,70.6,254.1z"/>
<path id="XMLID_233_" fill="#BF3092" d="M170.4,22.9c0,0,0.4,0,1.3,0.1c0.8,0,2.1,0.1,3.6,0.3c1.6,0.2,3.5,0.4,5.6,0.7
	c2.2,0.4,4.6,0.8,7.3,1.4c5.3,1.3,11.4,3.2,17.6,5.9l1.2,0.5l1.2,0.6c0.8,0.4,1.5,0.7,2.3,1.1c1.5,0.7,3.2,1.6,4.7,2.5
	c1.6,0.9,3.1,1.8,4.7,2.7c1.5,1,3,2,4.6,3c1.5,1.1,3,2.1,4.4,3.2c1.4,1.1,2.9,2.2,4.2,3.4c2.7,2.3,5.3,4.7,7.7,7.2
	c1.2,1.2,2.4,2.4,3.4,3.7c1.1,1.2,2.1,2.4,3.1,3.7c2,2.4,3.7,4.8,5.2,7.1c0.7,1.1,1.4,2.2,2.1,3.3c0.6,1.1,1.2,2.1,1.8,3
	c1.1,1.9,1.9,3.6,2.7,5c0.7,1.4,1.2,2.6,1.5,3.3c0.3,0.8,0.5,1.2,0.5,1.2s-1.1-1.4-3-3.9c-1-1.2-2.2-2.7-3.5-4.3
	c-0.7-0.8-1.4-1.7-2.2-2.6c-0.8-0.9-1.6-1.9-2.5-2.8c-1.8-2-3.7-4.1-5.8-6.2c-1-1.1-2.2-2.2-3.3-3.2c-1.1-1.1-2.3-2.2-3.5-3.3
	c-2.4-2.2-5-4.4-7.7-6.5c-1.3-1.1-2.7-2.1-4.1-3.2c-1.4-1-2.8-2-4.2-3c-1.5-1-2.9-2-4.3-2.9c-1.5-0.9-2.9-1.9-4.4-2.7
	c-0.7-0.4-1.5-0.9-2.2-1.3c-0.7-0.4-1.4-0.9-2.2-1.3c-0.8-0.4-1.5-0.8-2.3-1.2l-1.1-0.6l-1.1-0.6c-5.8-3-11.4-5.5-16.4-7.4
	c-4.9-2-9.1-3.4-12.1-4.3C172.1,23.5,170.4,22.9,170.4,22.9z"/>
</svg>
